{
.appVersion = "3436";
.formatVersion = 3;
DisplayStrings = (
"AÁĂÂÄÀĀĄÅÃÆ/AE.ss01 BCĆČÇĊDĎĐÐEÉĚÊËĖÈĒĘƏFGĞĢĠHĦIĲÍÎÏİÌĪĮJ/Jacute KĶLĹĽĻŁMNŃŇŅÑOÓÔÖÒŐŌØÕŒ/OE.ss01 PÞQRŔŘŖSŚŠŞȘẞTŤŢȚUÚÛÜÙŰŪŲŮVWẂŴẄẀXYÝŶŸỲZŹŽŻ/A.ss01/Aacute.ss01/Abreve.ss01/Acircumflex.ss01/Adieresis.ss01/Agrave.ss01/Amacron.ss01/Aogonek.ss01/Aring.ss01/Atilde.ss01/E.ss01/Eacute.ss01/Ecaron.ss01/Ecircumflex.ss01/Edieresis.ss01/Edotaccent.ss01/Egrave.ss01/Emacron.ss01/Eogonek.ss01/F.ss01/H.ss01/M.ss01/R.ss01/Racute.ss01/Rcaron.ss01/Rcommaaccent.ss01/T.ss01/Tcaron.ss01/Tcedilla.ss01/Tcommaaccent.ss01 aáăâäàāąåãæbcćčçċdďđðeéěêëėèēęəfgğģġhħ̇iıíîï/idotaccent ìīįĳjȷ/jacute kķlĺľļłmnńňņñoóôöòőōøõœpþqrŕřŗsśšşșßtťţțuúûüùűūųůvwẃŵẅẁxyýŷÿỳzźžż/f.ss01/r.ss01/racute.ss01/rcaron.ss01/rcommaaccent.ss01/t.ss01/tcaron.ss01/tcedilla.ss01/tcommaaccent.ss01/y.ss01/yacute.ss01/ycircumflex.ss01/ydieresis.ss01/ygrave.ss01/f.ss02/t.ss02/tcaron.ss02/tcedilla.ss02/tcommaaccent.ss02 
ﬁﬂi/f_f/f_f_i/f_f_l ane
ªº0123456789¹²³ .,:;…!¡?¿·•*#///backslash -–—_(){}[]‚„“”‘’«»‹›\"'@&¶§©®™°|¦†‡/ampersand.ss01 ¢$€£¥+−×÷=≠><≥≤±≈~¬^%‰̈̇̀́̋/caroncomb.alt ̧̨̦̂̌̆̊̃̄̒/_corner.serifCapLeft/_corner.serifLeft 

",
"# Basic test

nnonnoonoo nnannooaoo nnbnnooboo nncnnoocoo nndnnoodoo nnennooeoo nnfnnoofoo nngnnoogoo nnhnnoohoo nnı̇innooioo nnjnnoojoo nnknnookoo nnlnnooloo nnmnnoomoo nnpnnoopoo nnqnnooqoo nnrnnooroo nnsnnoosoo nntnnootoo nnunnoouoo nnvnnoovoo nnwnnoowoo nnxnnooxoo nnynnooyoo nnznnoozoo

HHOHHOOHOO HHAHHOOAOO HHBHHOOBOO HHCHHOOCOO HHDHHOODOO HHEHHOOEOO HHFHHOOFOO HHGHHOOGOO HHIHHOOIOO HHJHHOOJOO HHKHHOOKOO HHLHHOOLOO HHMHHOOMOO HHNHHOONOO HHPHHOOPOO HHQHHOOQOO HHRHHOOROO HHSHHOOSOO HHTHHOOTOO HHUHHOOUOO HHVHHOOVOO HHWHHOOWOO HHXHHOOXOO HHYHHOOYOO HHZHHOOZOO

",
"/_corner.serifCapLeft/_corner.serifLeft noah",
"adhesion
indonesia
shine on one
",
"hamburgefontsiv

glyphs = (
{
glyphname = A;
kernLeft = A;
kernRight = A.ss01;
lastChange = "2026-04-27 08:27:40 +0000";
layers = (
{
anchors = (
{
name = bottom;
pos = (340,0);
},
{
name = ogonek;
pos = (619,0);
},
{
name = top;
pos = (340,700);
}
);
background = {
hints = (
{
name = _corner.serifCapLeft;
origin = (0,2);
scale = (1.3,1);
type = Corner;
},
{
name = _corner.serifCapLeft;
options = 1;
origin = (0,3);
scale = (0.6,-1);
type = Corner;
}
);
shapes = (
{
closed = 1;
nodes = (
(349,700,l),
(321,700,l),
(591,0,l),
(619,0,l)
);
},
{
closed = 1;
nodes = (
(407,502,l),
(425,202,o),
(347,-6,o),
(192,-6,cs),
(119,-6,o),
(92,43,o),
(92,124,cs),
(92,333,o),
(298,502,o),
(376,566,c),
(373,575,l),
(287,511,o),
(57,334,o),
(57,132,cs),
(57,37,o),
(107,-16,o),
(190,-16,cs),
(359,-16,o),
(438,194,o),
(416,501,c)
);
}
);
};
hints = (
{
name = _corner.serifCapLeft;
origin = (0,2);
scale = (1.3,1);
type = Corner;
},
{
name = _corner.serifCapLeft;
options = 1;
origin = (0,3);
scale = (0.6,-1);
type = Corner;
}
);
layerId = m01;
shapes = (
{
closed = 1;
nodes = (
(349,700,l),
(321,700,l),
(591,0,l),
(619,0,l)
);
},
{
closed = 1;
nodes = (
(407,502,l),
(425,202,o),
(347,-6,o),
(192,-6,cs),
(119,-6,o),
(92,43,o),
(92,124,cs),
(92,333,o),
(298,502,o),
(376,566,c),
(373,575,l),
(287,511,o),
(57,334,o),
(57,132,cs),
(57,37,o),
(107,-16,o),
(190,-16,cs),
(359,-16,o),
(438,194,o),
(416,501,c)
);
}
);
width = 680;
},
{
anchors = (
{
name = bottom;
pos = (380,0);
},
{
name = ogonek;
pos = (659,0);
},
{
name = top;
pos = (380,700);
}
);
background = {
hints = (
{
name = _corner.serifCapLeft;
origin = (0,2);
scale = (1.3,1);
type = Corner;
},
{
name = _corner.serifCapLeft;
options = 1;
origin = (0,3);
scale = (0.6,-1);
type = Corner;
}
);
shapes = (
{
closed = 1;
nodes = (
(389,700,l),
(361,700,l),
(631,0,l),
(659,0,l)
);
},
{
closed = 1;
nodes = (
(447,502,l),
(465,202,o),
(387,-6,o),
(232,-6,cs),
(159,-6,o),
(132,43,o),
(132,124,cs),
(132,333,o),
(338,502,o),
(416,566,c),
(413,575,l),
(327,511,o),
(97,334,o),
(97,132,cs),
(97,37,o),
(147,-16,o),
(230,-16,cs),
(399,-16,o),
(478,194,o),
(456,501,c)
);
}
);
};
hints = (
{
name = _corner.serifCapLeft;
origin = (0,2);
scale = (1.3,1);
type = Corner;
},
{
name = _corner.serifCapLeft;
options = 1;
origin = (0,3);
scale = (0.6,-1);
type = Corner;
}
);
layerId = m002;
shapes = (
{
closed = 1;
nodes = (
(489,700,l),
(361,700,l),
(571,0,l),
(699,0,l)
);
},
{
closed = 1;
nodes = (
(447,502,l),
(465,202,o),
(367,14,o),
(272,14,cs),
(225,14,o),
(202,59,o),
(202,150,cs),
(202,363,o),
(338,522,o),
(416,566,c),
(413,575,l),
(327,531,o),
(47,364,o),
(47,144,cs),
(47,37,o),
(117,-16,o),
(220,-16,cs),
(409,-16,o),
(476,224,o),
(456,501,c)
);
}
);
width = 764;
}
);
unicode = 65;
},
{
glyphname = AE;
kernLeft = A;
lastChange = "2026-04-27 10:27:22 +0000";
layers = (
{
hints = (
{
name = _corner.serifCapLeft;
origin = (2,3);
scale = (1.3,1);
type = Corner;
},
{
name = _corner.serifCapLeft;
options = 1;
origin = (1,1);
scale = (1.7,-1.1);
type = Corner;
},
{
name = _corner.serifCapLeft;
origin = (3,0);
type = Corner;
},
{
name = _corner.serifCapLeft;
options = 2;
origin = (3,1);
scale = (-1,1);
type = Corner;
},
{
name = _corner.serifCapLeft;
origin = (4,0);
scale = (1.5,1.1);
type = Corner;
}
);
layerId = m01;
shapes = (
{
closed = 1;
nodes = (
(359,-16,o),
(428,194,o),
(446,501,c),
(437,502,l),
(415,202,o),
(347,-6,o),
(192,-6,cs),
(119,-6,o),
(92,43,o),
(92,124,cs),
(92,333,o),
(288,502,o),
(416,566,c),
(413,575,l),
(277,511,o),
(57,334,o),
(57,132,cs),
(57,37,o),
(107,-16,o),
(190,-16,cs)
);
},
{
closed = 1;
nodes = (
(761,0,l),
(763,16,l),
(564,16,l),
(564,0,l)
);
},
{
closed = 1;
nodes = (
(579,0,l),
(399,700,l),
(371,700,l),
(551,0,l)
);
},
{
closed = 1;
nodes = (
(673,363,l),
(673,377,l),
(474,377,l),
(474,363,l)
);
},
{
closed = 1;
nodes = (
(753,684,l),
(751,700,l),
(384,700,l),
(384,684,l)
);
}
);
width = 828;
},
{
hints = (
{
name = _corner.serifCapLeft;
origin = (2,3);
scale = (1.3,1);
type = Corner;
},
{
name = _corner.serifCapLeft;
options = 1;
origin = (1,1);
scale = (1.7,-1.1);
type = Corner;
},
{
name = _corner.serifCapLeft;
origin = (3,0);
type = Corner;
},
{
name = _corner.serifCapLeft;
options = 2;
origin = (3,1);
scale = (-1,1);
type = Corner;
},
{
name = _corner.serifCapLeft;
origin = (4,0);
scale = (1.5,1.1);
type = Corner;
}
);
layerId = m002;
shapes = (
{
closed = 1;
nodes = (
(409,-16,o),
(476,224,o),
(439,501,c),
(430,502,l),
(465,202,o),
(367,14,o),
(272,14,cs),
(225,14,o),
(202,59,o),
(202,150,cs),
(202,363,o),
(338,522,o),
(416,566,c),
(413,575,l),
(327,531,o),
(47,364,o),
(47,144,cs),
(47,37,o),
(117,-16,o),
(220,-16,cs)
);
},
{
closed = 1;
nodes = (
(760,0,l),
(770,106,l),
(541,106,l),
(571,0,l)
);
},
{
closed = 1;
nodes = (
(586,0,l),
(406,700,l),
(378,700,l),
(558,0,l)
);
},
{
closed = 1;
nodes = (
(680,363,l),
(680,377,l),
(481,377,l),
(481,363,l)
);
},
{
closed = 1;
nodes = (
(760,594,l),
(750,700,l),
(391,700,l),
(411,594,l)
);
}
);
width = 847;
}
);
metricLeft = "=A";
metricRight = "=E.ss01";
unicode = 198;
},
{
glyphname = B;
kernLeft = H;
kernRight = B;
lastChange = "2026-04-27 06:26:29 +0000";
layers = (
{
hints = (
{
name = _corner.serifCapLeft;
options = 1;
origin = (0,18);
scale = (1,-1);
type = Corner;
},
{
name = _corner.serifCapLeft;
origin = (0,19);
type = Corner;
}
);
layerId = m01;
shapes = (
{
closed = 1;
nodes = (
(153,0,l),
(162,0,l),
(392,0,ls),
(511,0,o),
(586,71,o),
(586,184,cs),
(586,286,o),
(525,353,o),
(423,364,c),
(423,356,l),
(507,378,o),
(551,438,o),
(551,526,cs),
(551,639,o),
(476,700,o),
(357,700,cs),
(162,700,l),
(153,700,l),
(134,700,l),
(134,0,l)
);
},
{
closed = 1;
nodes = (
(162,351,l),
(392,351,ls),
(490,351,o),
(551,288,o),
(551,184,cs),
(551,81,o),
(490,16,o),
(392,16,cs),
(162,16,l)
);
},
{
closed = 1;
nodes = (
(162,684,l),
(357,684,ls),
(455,684,o),
(516,629,o),
(516,526,cs),
(516,422,o),
(455,367,o),
(387,367,cs),
(162,367,l)
);
}
);
width = 640;
},
{
associatedMasterId = m01;
hints = (
{
name = _corner.serifCapLeft;
options = 1;
origin = (0,2);
scale = (1,-1);
type = Corner;
},
{
name = _corner.serifCapLeft;
origin = (0,3);
type = Corner;
}
);
layerId = "4611F51C-D3C1-49FC-8D82-3DE6188F7145";
name = "21 Apr 26 at 15.59";
shapes = (
{
closed = 1;
nodes = (
(162,0,l),
(162,700,l),
(134,700,l),
(134,0,l)
);
},
{
closed = 1;
nodes = (
(153,351,l),
(372,351,ls),
(470,351,o),
(531,288,o),
(531,184,cs),
(531,81,o),
(470,16,o),
(372,16,cs),
(153,16,l),
(153,0,l),
(372,0,ls),
(491,0,o),
(566,71,o),
(566,184,cs),
(566,296,o),
(491,367,o),
(372,367,cs),
(153,367,l)
);
},
{
closed = 1;
nodes = (
(332,351,ls),
(451,351,o),
(526,414,o),
(526,526,cs),
(526,639,o),
(451,700,o),
(332,700,cs),
(153,700,l),
(153,684,l),
(332,684,ls),
(430,684,o),
(491,629,o),
(491,526,cs),
(491,422,o),
(430,367,o),
(332,367,cs),
(153,367,l),
(153,351,l)
);
}
);
width = 600;
},
{
hints = (
{
name = _corner.serifCapLeft;
options = 1;
origin = (0,18);
scale = (1,-1);
type = Corner;
},
{
name = _corner.serifCapLeft;
origin = (0,19);
type = Corner;
}
);
layerId = m002;
shapes = (
{
closed = 1;
nodes = (
(153,0,l),
(162,0,l),
(392,0,ls),
(531,0,o),
(606,71,o),
(606,184,cs),
(606,286,o),
(545,353,o),
(423,364,c),
(423,356,l),
(527,378,o),
(571,438,o),
(571,526,cs),
(571,639,o),
(496,700,o),
(357,700,cs),
(162,700,l),
(153,700,l),
(134,700,l),
(134,0,l)
);
},
{
closed = 1;
nodes = (
(162,351,l),
(292,351,ls),
(390,351,o),
(451,288,o),
(451,184,cs),
(451,81,o),
(390,16,o),
(292,16,cs),
(162,16,l)
);
},
{
closed = 1;
nodes = (
(162,684,l),
(257,684,ls),
(355,684,o),
(416,629,o),
(416,526,cs),
(416,422,o),
(355,367,o),
(287,367,cs),
(162,367,l)
);
}
);
width = 660;
},
{
associatedMasterId = m002;
hints = (
{
name = _corner.serifCapLeft;
options = 1;
origin = (0,2);
scale = (1,-1);
type = Corner;
},
{
name = _corner.serifCapLeft;
origin = (0,3);
type = Corner;
}
);
layerId = "E4568DEB-9F55-4D3F-99EA-38A3A295C59E";
name = "21 Apr 26 at 15.59";
shapes = (
{
closed = 1;
nodes = (
(162,0,l),
(162,700,l),
(134,700,l),
(134,0,l)
);
},
{
closed = 1;
nodes = (
(153,351,l),
(372,351,ls),
(470,351,o),
(531,288,o),
(531,184,cs),
(531,81,o),
(470,16,o),
(372,16,cs),
(153,16,l),
(153,0,l),
(372,0,ls),
(491,0,o),
(566,71,o),
(566,184,cs),
(566,296,o),
(491,367,o),
(372,367,cs),
(153,367,l)
);
},
{
closed = 1;
nodes = (
(332,351,ls),
(451,351,o),
(526,414,o),
(526,526,cs),
(526,639,o),
(451,700,o),
(332,700,cs),
(153,700,l),
(153,684,l),
(332,684,ls),
(430,684,o),
(491,629,o),
(491,526,cs),
(491,422,o),
(430,367,o),
(332,367,cs),
(153,367,l),
(153,351,l)
);
}
);
width = 600;
}
);
unicode = 66;
},
{
glyphname = C;
kernLeft = O;
kernRight = C;
lastChange = "2026-04-27 06:35:38 +0000";
layers = (
{
anchors = (
{
name = bottom;
pos = (391,0);
},
{
name = top;
pos = (365,700);
}
);
layerId = m01;
shapes = (
{
closed = 1;
nodes = (
(502,-16,o),
(591,39,o),
(649,131,c),
(639,141,l),
(587,53,o),
(498,1,o),
(391,1,cs),
(216,1,o),
(90,134,o),
(90,351,cs),
(90,567,o),
(216,699,o),
(391,699,cs),
(473,699,o),
(594,670,o),
(589,575,cs),
(584,480,l),
(598,480,l),
(615,657,l),
(568,683,o),
(488,716,o),
(391,716,cs),
(194,716,o),
(55,565,o),
(55,351,cs),
(55,136,o),
(194,-16,o),
(391,-16,cs)
);
}
);
width = 689;
},
{
anchors = (
{
name = bottom;
pos = (391,0);
},
{
name = top;
pos = (365,700);
}
);
layerId = m002;
shapes = (
{
closed = 1;
nodes = (
(502,-16,o),
(591,39,o),
(649,131,c),
(639,141,l),
(587,53,o),
(498,1,o),
(391,1,cs),
(265,1,o),
(210,107,o),
(210,351,cs),
(210,593,o),
(265,699,o),
(391,699,cs),
(473,699,o),
(594,670,o),
(589,575,cs),
(584,480,l),
(598,480,l),
(615,657,l),
(568,683,o),
(488,716,o),
(391,716,cs),
(195,716,o),
(55,565,o),
(55,351,cs),
(55,136,o),
(194,-16,o),
(391,-16,cs)
);
}
);
width = 689;
},
{
anchors = (
{
name = bottom;
pos = (391,0);
},
{
name = top;
pos = (365,700);
}
);
associatedMasterId = m002;
layerId = "0B0FF222-997A-40E0-A188-CC0F0A48E35E";
name = "27 Apr 26 at 13.35";
shapes = (
{
closed = 1;
nodes = (
(502,-16,o),
(591,39,o),
(649,131,c),
(639,141,l),
(587,53,o),
(498,1,o),
(391,1,cs),
(265,1,o),
(210,107,o),
(210,351,cs),
(210,593,o),
(265,699,o),
(391,699,cs),
(473,699,o),
(552,670,o),
(547,535,cs),
(544,450,l),
(568,450,l),
(615,657,l),
(568,683,o),
(488,716,o),
(391,716,cs),
(195,716,o),
(55,565,o),
(55,351,cs),
(55,136,o),
(194,-16,o),
(391,-16,cs)
);
}
);
width = 689;
}
);
metricLeft = "=O";
metricRight = "=O-15";
unicode = 67;
},
{
glyphname = D;
kernLeft = H;
kernRight = O;
lastChange = "2026-04-27 06:26:54 +0000";
layers = (
{
anchors = (
{
name = bottom;
pos = (318,0);
},
{
name = center;
pos = (174,350);
},
{
name = top;
pos = (318,700);
}
);
hints = (
{
name = _corner.serifCapLeft;
options = 1;
origin = (1,2);
scale = (1,-1);
type = Corner;
},
{
name = _corner.serifCapLeft;
origin = (1,3);
type = Corner;
}
);
layerId = m01;
shapes = (
{
closed = 1;
nodes = (
(306,0,ls),
(520,0,o),
(640,126,o),
(640,351,cs),
(640,575,o),
(520,700,o),
(306,700,cs),
(143,700,l),
(143,684,l),
(306,684,ls),
(497,684,o),
(605,566,o),
(605,351,cs),
(605,135,o),
(497,16,o),
(306,16,cs),
(143,16,l),
(143,0,l)
);
},
{
closed = 1;
nodes = (
(152,0,l),
(152,700,l),
(124,700,l),
(124,0,l)
);
}
);
width = 695;
},
{
associatedMasterId = m01;
layerId = "41421FBC-4118-4329-8330-F38A6B089924";
name = "21 Apr 26 at 16.53";
shapes = (
{
closed = 1;
nodes = (
(587,-16,o),
(725,136,o),
(725,351,cs),
(725,524,o),
(631,647,o),
(497,700,cs),
(364,753,o),
(298,794,o),
(159,906,c),
(117,880,l),
(280,776,o),
(345,743,o),
(470,694,c),
(464,699,l),
(227,746,o),
(55,591,o),
(55,351,cs),
(55,136,o),
(194,-16,o),
(391,-16,cs)
);
},
{
closed = 1;
nodes = (
(216,1,o),
(90,134,o),
(90,351,cs),
(90,567,o),
(216,699,o),
(391,699,cs),
(564,699,o),
(690,567,o),
(690,351,cs),
(690,134,o),
(564,1,o),
(391,1,cs)
);
}
);
width = 695;
},
{
anchors = (
{
name = bottom;
pos = (318,0);
},
{
name = center;
pos = (174,350);
},
{
name = top;
pos = (318,700);
}
);
background = {
hints = (
{
name = _corner.serifCapLeft;
options = 1;
origin = (0,2);
scale = (1,-1);
type = Corner;
},
{
name = _corner.serifCapLeft;
origin = (0,3);
type = Corner;
}
);
shapes = (
{
closed = 1;
nodes = (
(152,0,l),
(152,700,l),
(124,700,l),
(124,0,l)
);
},
{
closed = 1;
nodes = (
(520,0,o),
(640,126,o),
(640,351,cs),
(640,575,o),
(520,700,o),
(306,700,cs),
(143,700,l),
(143,684,l),
(306,684,ls),
(497,684,o),
(605,566,o),
(605,351,cs),
(605,135,o),
(497,16,o),
(306,16,cs),
(143,16,l),
(143,0,l),
(306,0,ls)
);
}
);
};
hints = (
{
name = _corner.serifCapLeft;
options = 1;
origin = (1,2);
scale = (1,-1);
type = Corner;
},
{
name = _corner.serifCapLeft;
origin = (1,3);
type = Corner;
}
);
layerId = m002;
shapes = (
{
closed = 1;
nodes = (
(321,0,ls),
(517,0,o),
(655,136,o),
(655,351,cs),
(655,565,o),
(517,700,o),
(321,700,cs),
(143,700,l),
(143,684,l),
(291,684,ls),
(436,684,o),
(500,583,o),
(500,351,cs),
(500,118,o),
(436,16,o),
(291,16,cs),
(143,16,l),
(143,0,l)
);
},
{
closed = 1;
nodes = (
(152,0,l),
(152,700,l),
(124,700,l),
(124,0,l)
);
}
);
width = 710;
},
{
associatedMasterId = m002;
layerId = "1DF3276E-9B0D-413C-8447-B67950141FD3";
name = "21 Apr 26 at 16.53";
shapes = (
{
closed = 1;
nodes = (
(587,-16,o),
(725,136,o),
(725,351,cs),
(725,524,o),
(631,647,o),
(497,700,cs),
(364,753,o),
(298,794,o),
(159,906,c),
(117,880,l),
(280,776,o),
(345,743,o),
(470,694,c),
(464,699,l),
(227,746,o),
(55,591,o),
(55,351,cs),
(55,136,o),
(194,-16,o),
(391,-16,cs)
);
},
{
closed = 1;
nodes = (
(216,1,o),
(90,134,o),
(90,351,cs),
(90,567,o),
(216,699,o),
(391,699,cs),
(564,699,o),
(690,567,o),
(690,351,cs),
(690,134,o),
(564,1,o),
(391,1,cs)
);
}
);
width = 695;
}
);
metricLeft = "=H";
metricRight = "=O";
unicode = 68;
},
{
glyphname = Eth;
kernLeft = H;
kernRight = O;
lastChange = "2026-04-24 09:42:18 +0000";
layers = (
{
layerId = m01;
shapes = (
{
ref = D;
},
{
closed = 1;
nodes = (
(31,342,l),
(307,342,l),
(307,358,l),
(31,358,l)
);
}
);
width = 695;
},
{
layerId = m002;
shapes = (
{
ref = D;
},
{
closed = 1;
nodes = (
(31,342,l),
(307,342,l),
(307,358,l),
(31,358,l)
);
}
);
width = 695;
}
);
unicode = 208;
},
{
glyphname = E;
kernLeft = O;
kernRight = C;
lastChange = "2026-04-27 04:43:34 +0000";
layers = (
{
anchors = (
{
name = bottom;
pos = (385,0);
},
{
name = ogonek;
pos = (514,10);
},
{
name = top;
pos = (375,700);
},
{
name = topleft;
pos = (20,700);
}
);
background = {
shapes = (
{
closed = 1;
nodes = (
(639,141,l),
(587,53,o),
(498,1,o),
(391,1,cs),
(216,1,o),
(90,134,o),
(90,351,cs),
(90,567,o),
(216,699,o),
(391,699,cs),
(473,699,o),
(594,670,o),
(589,575,cs),
(584,480,l),
(598,480,l),
(615,657,l),
(568,683,o),
(488,716,o),
(391,716,cs),
(194,716,o),
(55,565,o),
(55,351,cs),
(55,136,o),
(194,-16,o),
(391,-16,cs),
(502,-16,o),
(591,39,o),
(649,131,c)
);
}
);
};
hints = (
{
name = _corner.serifCapLeft;
origin = (0,0);
scale = (1.3,1);
type = Corner;
},
{
name = _corner.serifCapLeft;
options = 2;
origin = (0,1);
scale = (-1.3,1);
type = Corner;
}
);
layerId = m01;
shapes = (
{
closed = 1;
nodes = (
(422,343,l),
(422,357,l),
(73,357,l),
(73,343,l)
);
},
{
ref = C;
}
);
width = 689;
},
{
anchors = (
{
name = bottom;
pos = (385,0);
},
{
name = ogonek;
pos = (514,10);
},
{
name = top;
pos = (375,700);
},
{
name = topleft;
pos = (20,700);
}
);
hints = (
{
name = _corner.serifCapLeft;
origin = (0,0);
scale = (1.3,1);
type = Corner;
},
{
name = _corner.serifCapLeft;
options = 2;
origin = (0,1);
scale = (-1.3,1);
type = Corner;
}
);
layerId = m002;
shapes = (
{
closed = 1;
nodes = (
(422,343,l),
(422,357,l),
(73,357,l),
(73,343,l)
);
},
{
ref = C;
}
);
width = 689;
}
);
metricLeft = "=O";
metricRight = "=C";
unicode = 69;
},
{
glyphname = Schwa;
kernLeft = Schwa;
kernRight = O;
lastChange = "2026-04-27 08:53:59 +0000";
layers = (
{
layerId = m01;
shapes = (
{
closed = 1;
nodes = (
(519,-16,o),
(651,134,o),
(651,349,cs),
(651,565,o),
(517,716,o),
(337,716,cs),
(225,716,o),
(128,655,o),
(69,560,c),
(80,555,l),
(133,644,o),
(234,699,o),
(337,699,cs),
(498,699,o),
(616,559,o),
(616,349,cs),
(616,143,o),
(498,1,o),
(344,1,cs),
(247,1,o),
(163,55,o),
(163,157,cs),
(163,222,o),
(201,286,o),
(280,302,c),
(280,306,l),
(194,295,o),
(128,242,o),
(128,157,cs),
(128,50,o),
(229,-16,o),
(344,-16,cs)
);
},
{
closed = 1;
nodes = (
(631,309,l),
(631,322,l),
(30,322,l),
(30,295,l)
);
}
);
width = 706;
},
{
background = {
shapes = (
{
closed = 1;
nodes = (
(280,306,l),
(194,295,o),
(128,242,o),
(128,157,cs),
(128,50,o),
(229,-16,o),
(344,-16,cs),
(519,-16,o),
(651,134,o),
(651,349,cs),
(651,565,o),
(517,716,o),
(337,716,cs),
(225,716,o),
(128,655,o),
(69,560,c),
(80,555,l),
(133,644,o),
(234,699,o),
(337,699,cs),
(498,699,o),
(616,559,o),
(616,349,cs),
(616,143,o),
(498,1,o),
(344,1,cs),
(247,1,o),
(163,55,o),
(163,157,cs),
(163,222,o),
(201,286,o),
(280,302,c)
);
},
{
closed = 1;
nodes = (
(631,322,l),
(30,322,l),
(30,295,l),
(631,309,l)
);
}
);
};
layerId = m002;
shapes = (
{
closed = 1;
nodes = (
(541,-16,o),
(680,136,o),
(680,351,cs),
(680,565,o),
(540,716,o),
(342,716,cs),
(225,716,o),
(128,655,o),
(69,560,c),
(80,555,l),
(133,644,o),
(234,699,o),
(342,699,cs),
(470,699,o),
(525,593,o),
(525,351,cs),
(525,107,o),
(470,1,o),
(344,1,cs),
(247,1,o),
(223,55,o),
(223,157,cs),
(223,222,o),
(261,286,o),
(340,302,c),
(280,306,l),
(164,295,o),
(98,242,o),
(98,157,cs),
(98,50,o),
(229,-16,o),
(344,-16,cs)
);
},
{
closed = 1;
nodes = (
(631,309,l),
(631,322,l),
(30,322,l),
(30,295,l)
);
}
);
width = 735;
}
);
metricRight = "=O";
unicode = 399;
},
{
glyphname = F;
kernLeft = H;
kernRight = F;
lastChange = "2026-04-27 10:18:24 +0000";
layers = (
{
hints = (
{
name = _corner.serifCapLeft;
options = 1;
origin = (0,2);
scale = (1,-1);
type = Corner;
},
{
name = _corner.serifCapLeft;
origin = (1,0);
type = Corner;
},
{
name = _corner.serifCapLeft;
options = 2;
origin = (1,1);
scale = (-1,1);
type = Corner;
},
{
name = _corner.serifCapLeft;
origin = (2,0);
scale = (1.5,1.1);
type = Corner;
},
{
name = _corner.serifCapLeft;
options = 1;
origin = (0,0);
scale = (1,-1);
type = Corner;
},
{
name = _corner.serifCapLeft;
origin = (0,3);
type = Corner;
}
);
layerId = m01;
shapes = (
{
closed = 1;
nodes = (
(152,0,l),
(152,700,l),
(124,700,l),
(124,0,l)
);
},
{
closed = 1;
nodes = (
(452,303,l),
(452,317,l),
(143,317,l),
(143,303,l)
);
},
{
closed = 1;
nodes = (
(512,684,l),
(510,700,l),
(143,700,l),
(143,684,l)
);
}
);
width = 560;
},
{
hints = (
{
name = _corner.serifCapLeft;
options = 1;
origin = (0,2);
scale = (1,-1);
type = Corner;
},
{
name = _corner.serifCapLeft;
origin = (1,0);
type = Corner;
},
{
name = _corner.serifCapLeft;
options = 2;
origin = (1,1);
scale = (-1,1);
type = Corner;
},
{
name = _corner.serifCapLeft;
origin = (2,0);
scale = (1.2,1.1);
type = Corner;
},
{
name = _corner.serifCapLeft;
options = 1;
origin = (0,0);
scale = (1,-1);
type = Corner;
},
{
name = _corner.serifCapLeft;
origin = (0,3);
type = Corner;
}
);
layerId = m002;
shapes = (
{
closed = 1;
nodes = (
(152,0,l),
(152,700,l),
(124,700,l),
(124,0,l)
);
},
{
closed = 1;
nodes = (
(452,303,l),
(452,317,l),
(143,317,l),
(143,303,l)
);
},
{
closed = 1;
nodes = (
(512,594,l),
(502,700,l),
(143,700,l),
(143,594,l)
);
}
);
width = 560;
}
);
metricLeft = "=H";
unicode = 70;
},
{
glyphname = G;
kernLeft = O;
kernRight = G;
lastChange = "2026-04-27 06:35:02 +0000";
layers = (
{
anchors = (
{
name = bottom;
pos = (392,0);
},
{
name = top;
pos = (382,700);
}
);
hints = (
{
name = _corner.serifCapLeft;
options = 1;
origin = (1,2);
scale = (2,-1);
type = Corner;
}
);
layerId = m01;
shapes = (
{
closed = 1;
nodes = (
(502,-16,o),
(591,39,o),
(649,131,c),
(639,141,l),
(587,53,o),
(498,1,o),
(391,1,cs),
(216,1,o),
(90,134,o),
(90,351,cs),
(90,567,o),
(216,699,o),
(391,699,cs),
(473,699,o),
(594,670,o),
(589,575,cs),
(584,480,l),
(598,480,l),
(615,657,l),
(568,683,o),
(488,716,o),
(391,716,cs),
(194,716,o),
(55,565,o),
(55,351,cs),
(55,136,o),
(194,-16,o),
(391,-16,cs)
);
},
{
closed = 1;
nodes = (
(724,-111,l),
(584,365,l),
(554,365,l),
(709,-111,l)
);
}
);
width = 745;
},
{
associatedMasterId = m01;
layerId = "06EF56BF-35D8-4352-934E-BD423D2E6C72";
name = "21 Apr 26 at 14.51";
shapes = (
{
closed = 1;
nodes = (
(690,351,l),
(690,134,o),
(564,1,o),
(391,1,cs),
(216,1,o),
(90,134,o),
(90,351,cs),
(90,567,o),
(216,699,o),
(391,699,cs),
(473,699,o),
(594,670,o),
(589,575,cs),
(584,480,l),
(598,480,l),
(615,657,l),
(568,683,o),
(488,716,o),
(391,716,cs),
(194,716,o),
(55,565,o),
(55,351,cs),
(55,136,o),
(194,-16,o),
(391,-16,cs),
(587,-16,o),
(725,136,o),
(725,351,c)
);
},
{
closed = 1;
nodes = (
(692,-111,l),
(724,-111,l),
(514,365,l),
(482,365,l)
);
}
);
width = 745;
},
{
anchors = (
{
name = bottom;
pos = (392,0);
},
{
name = top;
pos = (382,700);
}
);
background = {
hints = (
{
name = _corner.serifCapLeft;
options = 1;
origin = (1,2);
scale = (2,-1);
type = Corner;
}
);
shapes = (
{
closed = 1;
nodes = (
(502,-16,o),
(591,39,o),
(649,131,c),
(639,141,l),
(587,53,o),
(498,1,o),
(391,1,cs),
(216,1,o),
(90,134,o),
(90,351,cs),
(90,567,o),
(216,699,o),
(391,699,cs),
(473,699,o),
(594,670,o),
(589,575,cs),
(584,480,l),
(598,480,l),
(615,657,l),
(568,683,o),
(488,716,o),
(391,716,cs),
(194,716,o),
(55,565,o),
(55,351,cs),
(55,136,o),
(194,-16,o),
(391,-16,cs)
);
},
{
closed = 1;
nodes = (
(724,-111,l),
(584,365,l),
(554,365,l),
(709,-111,l)
);
}
);
};
hints = (
{
name = _corner.serifCapLeft;
options = 1;
origin = (1,2);
scale = (2,-1);
type = Corner;
}
);
layerId = m002;
shapes = (
{
closed = 1;
nodes = (
(502,-16,o),
(591,39,o),
(649,131,c),
(639,141,l),
(587,53,o),
(498,1,o),
(391,1,cs),
(265,1,o),
(210,107,o),
(210,351,cs),
(210,593,o),
(265,699,o),
(401,699,cs),
(483,699,o),
(604,670,o),
(599,575,cs),
(594,480,l),
(608,480,l),
(625,657,l),
(578,683,o),
(498,716,o),
(401,716,cs),
(195,716,o),
(55,565,o),
(55,351,cs),
(55,136,o),
(194,-16,o),
(391,-16,cs)
);
},
{
closed = 1;
nodes = (
(724,-111,l),
(584,365,l),
(554,365,l),
(709,-111,l)
);
}
);
width = 745;
},
{
associatedMasterId = m002;
layerId = "D369128B-CCCD-41D8-8655-29A885EC2614";
name = "21 Apr 26 at 14.51";
shapes = (
{
closed = 1;
nodes = (
(690,351,l),
(690,134,o),
(564,1,o),
(391,1,cs),
(216,1,o),
(90,134,o),
(90,351,cs),
(90,567,o),
(216,699,o),
(391,699,cs),
(473,699,o),
(594,670,o),
(589,575,cs),
(584,480,l),
(598,480,l),
(615,657,l),
(568,683,o),
(488,716,o),
(391,716,cs),
(194,716,o),
(55,565,o),
(55,351,cs),
(55,136,o),
(194,-16,o),
(391,-16,cs),
(587,-16,o),
(725,136,o),
(725,351,c)
);
},
{
closed = 1;
nodes = (
(692,-111,l),
(724,-111,l),
(514,365,l),
(482,365,l)
);
}
);
width = 745;
},
{
anchors = (
{
name = bottom;
pos = (392,0);
},
{
name = top;
pos = (382,700);
}
);
associatedMasterId = m002;
background = {
hints = (
{
name = _corner.serifCapLeft;
options = 1;
origin = (1,2);
scale = (2,-1);
type = Corner;
}
);
shapes = (
{
closed = 1;
nodes = (
(502,-16,o),
(591,39,o),
(649,131,c),
(639,141,l),
(587,53,o),
(498,1,o),
(391,1,cs),
(216,1,o),
(90,134,o),
(90,351,cs),
(90,567,o),
(216,699,o),
(391,699,cs),
(473,699,o),
(594,670,o),
(589,575,cs),
(584,480,l),
(598,480,l),
(615,657,l),
(568,683,o),
(488,716,o),
(391,716,cs),
(194,716,o),
(55,565,o),
(55,351,cs),
(55,136,o),
(194,-16,o),
(391,-16,cs)
);
},
{
closed = 1;
nodes = (
(724,-111,l),
(584,365,l),
(554,365,l),
(709,-111,l)
);
}
);
};
hints = (
{
name = _corner.serifCapLeft;
options = 1;
origin = (1,2);
scale = (2,-1);
type = Corner;
}
);
layerId = "FCB1A37E-6224-4789-82AE-FF079D2EF372";
name = "27 Apr 26 at 13.34";
shapes = (
{
closed = 1;
nodes = (
(502,-16,o),
(591,39,o),
(649,131,c),
(639,141,l),
(587,53,o),
(498,1,o),
(391,1,cs),
(265,1,o),
(210,107,o),
(210,351,cs),
(210,593,o),
(265,699,o),
(401,699,cs),
(486,699,o),
(572,670,o),
(567,535,cs),
(564,450,l),
(588,450,l),
(635,657,l),
(588,683,o),
(501,716,o),
(401,716,cs),
(195,716,o),
(55,565,o),
(55,351,cs),
(55,136,o),
(194,-16,o),
(391,-16,cs)
);
},
{
closed = 1;
nodes = (
(724,-111,l),
(584,365,l),
(554,365,l),
(709,-111,l)
);
}
);
width = 745;
}
);
metricLeft = "=O";
unicode = 71;
},
{
glyphname = H;
kernLeft = H;
kernRight = H;
lastChange = "2026-04-27 09:36:53 +0000";
layers = (
{
hints = (
{
name = _corner.serifCapLeft;
options = 1;
origin = (1,2);
scale = (1,-1);
type = Corner;
},
{
name = _corner.serifCapLeft;
origin = (1,1);
type = Corner;
},
{
name = _corner.serifCapLeft;
options = 1;
origin = (0,0);
scale = (1,-1);
type = Corner;
},
{
name = _corner.serifCapLeft;
origin = (0,3);
type = Corner;
},
{
name = _corner.serifCapLeft;
options = 1;
origin = (1,0);
scale = (1,-1);
type = Corner;
},
{
name = _corner.serifCapLeft;
origin = (1,3);
type = Corner;
},
{
name = _corner.serifCapLeft;
origin = (0,1);
type = Corner;
},
{
name = _corner.serifCapLeft;
options = 2;
origin = (0,2);
scale = (-1,1);
type = Corner;
}
);
layerId = m01;
shapes = (
{
closed = 1;
nodes = (
(624,0,l),
(624,700,l),
(596,700,l),
(596,0,l)
);
},
{
closed = 1;
nodes = (
(152,0,l),
(152,700,l),
(124,700,l),
(124,0,l)
);
},
{
closed = 1;
nodes = (
(143,342,l),
(612,342,l),
(612,358,l),
(143,358,l)
);
}
);
width = 748;
},
{
hints = (
{
name = _corner.serifCapLeft;
options = 1;
origin = (1,2);
scale = (1,-1);
type = Corner;
},
{
name = _corner.serifCapLeft;
origin = (1,1);
type = Corner;
},
{
name = _corner.serifCapLeft;
options = 1;
origin = (0,0);
scale = (1,-1);
type = Corner;
},
{
name = _corner.serifCapLeft;
origin = (0,3);
type = Corner;
},
{
name = _corner.serifCapLeft;
options = 1;
origin = (1,0);
scale = (1,-1);
type = Corner;
},
{
name = _corner.serifCapLeft;
origin = (1,3);
type = Corner;
},
{
name = _corner.serifCapLeft;
origin = (0,1);
type = Corner;
},
{
name = _corner.serifCapLeft;
options = 2;
origin = (0,2);
scale = (-1,1);
type = Corner;
}
);
layerId = m002;
shapes = (
{
closed = 1;
nodes = (
(624,0,l),
(624,700,l),
(496,700,l),
(496,0,l)
);
},
{
closed = 1;
nodes = (
(152,0,l),
(152,700,l),
(124,700,l),
(124,0,l)
);
},
{
closed = 1;
nodes = (
(143,342,l),
(612,342,l),
(612,358,l),
(143,358,l)
);
}
);
width = 748;
}
);
metricRight = "=|";
unicode = 72;
},
{
glyphname = Hbar;
kernLeft = H;
kernRight = H;
lastChange = "2026-04-24 09:42:18 +0000";
layers = (
{
layerId = m01;
shapes = (
{
ref = H;
},
{
closed = 1;
nodes = (
(31,541,l),
(717,541,l),
(717,557,l),
(31,557,l)
);
}
);
width = 748;
},
{
layerId = m002;
shapes = (
{
ref = H;
},
{
closed = 1;
nodes = (
(31,541,l),
(717,541,l),
(717,557,l),
(31,557,l)
);
}
);
width = 748;
}
);
unicode = 294;
},
{
glyphname = I;
kernLeft = H;
kernRight = H;
lastChange = "2026-04-27 09:55:23 +0000";
layers = (
{
anchors = (
{
name = bottom;
pos = (138,0);
},
{
name = ogonek;
pos = (211,0);
},
{
name = top;
pos = (138,700);
},
{
name = topleft;
pos = (19,700);
}
);
hints = (
{
name = _corner.serifCapLeft;
options = 1;
origin = (0,0);
scale = (1,-1);
type = Corner;
},
{
name = _corner.serifCapLeft;
origin = (0,1);
type = Corner;
},
{
name = _corner.serifCapLeft;
options = 2;
origin = (0,2);
scale = (-1,1);
type = Corner;
},
{
name = _corner.serifCapLeft;
origin = (0,3);
type = Corner;
}
);
layerId = m01;
shapes = (
{
closed = 1;
nodes = (
(152,0,l),
(152,700,l),
(124,700,l),
(124,0,l)
);
}
);
width = 276;
},
{
anchors = (
{
name = bottom;
pos = (188,0);
},
{
name = ogonek;
pos = (261,0);
},
{
name = top;
pos = (188,700);
},
{
name = topleft;
pos = (69,700);
}
);
hints = (
{
name = _corner.serifCapLeft;
options = 1;
origin = (0,0);
scale = (1,-1);
type = Corner;
},
{
name = _corner.serifCapLeft;
origin = (0,1);
type = Corner;
},
{
name = _corner.serifCapLeft;
options = 2;
origin = (0,2);
scale = (-1,1);
type = Corner;
},
{
name = _corner.serifCapLeft;
origin = (0,3);
type = Corner;
}
);
layerId = m002;
shapes = (
{
closed = 1;
nodes = (
(252,0,l),
(252,700,l),
(124,700,l),
(124,0,l)
);
}
);
width = 376;
}
);
metricLeft = "=H";
metricRight = "=H";
unicode = 73;
},
{
glyphname = J;
kernLeft = J;
kernRight = J;
lastChange = "2026-04-27 09:55:34 +0000";
layers = (
{
anchors = (
{
name = bottom;
pos = (138,0);
},
{
name = top;
pos = (138,700);
}
);
hints = (
{
name = _corner.serifCapLeft;
origin = (0,0);
type = Corner;
},
{
name = _corner.serifCapLeft;
options = 2;
origin = (0,1);
scale = (-1,1);
type = Corner;
}
);
layerId = m01;
shapes = (
{
closed = 1;
nodes = (
(152,700,l),
(124,700,l),
(124,20,ls),
(124,-111,o),
(31,-150,o),
(-4,-163,c),
(2,-179,l),
(43,-164,o),
(152,-118,o),
(152,20,cs)
);
}
);
width = 276;
},
{
anchors = (
{
name = bottom;
pos = (188,0);
},
{
name = top;
pos = (188,700);
}
);
hints = (
{
name = _corner.serifCapLeft;
origin = (0,0);
type = Corner;
},
{
name = _corner.serifCapLeft;
options = 2;
origin = (0,1);
scale = (-1,1);
type = Corner;
}
);
layerId = m002;
shapes = (
{
closed = 1;
nodes = (
(252,700,l),
(124,700,l),
(124,-60,ls),
(124,-121,o),
(81,-150,o),
(36,-163,c),
(42,-179,l),
(94,-166,o),
(252,-118,o),
(252,20,cs)
);
}
);
width = 376;
}
);
metricRight = "=H";
unicode = 74;
},
{
glyphname = K;
kernLeft = H;
kernRight = K;
lastChange = "2026-04-27 10:19:02 +0000";
layers = (
{
anchors = (
{
name = bottom;
pos = (331,0);
},
{
name = top;
pos = (321,700);
}
);
hints = (
{
name = _corner.serifCapLeft;
options = 1;
origin = (0,0);
scale = (1,-1);
type = Corner;
},
{
name = _corner.serifCapLeft;
origin = (0,1);
type = Corner;
},
{
name = _corner.serifCapLeft;
options = 2;
origin = (0,2);
scale = (-1,1);
type = Corner;
},
{
name = _corner.serifCapLeft;
origin = (0,3);
type = Corner;
},
{
name = _corner.serifCapLeft;
options = 1;
origin = (1,0);
scale = (0.8,-1);
type = Corner;
},
{
name = _corner.serifCapLeft;
origin = (1,3);
scale = (1.2,1);
type = Corner;
},
{
name = _corner.serifCapLeft;
origin = (2,2);
scale = (0.9,1);
type = Corner;
},
{
name = _corner.serifCapLeft;
options = 1;
origin = (2,3);
scale = (1.2,-1);
type = Corner;
}
);
layerId = m01;
shapes = (
{
closed = 1;
nodes = (
(152,0,l),
(152,700,l),
(124,700,l),
(124,0,l)
);
},
{
closed = 1;
nodes = (
(584,0,l),
(296,410,l),
(280,393,l),
(556,0,l)
);
},
{
closed = 1;
nodes = (
(127,241,l),
(150,241,l),
(554,700,l),
(531,700,l)
);
}
);
width = 642;
},
{
anchors = (
{
name = bottom;
pos = (331,0);
},
{
name = top;
pos = (321,700);
}
);
hints = (
{
name = _corner.serifCapLeft;
options = 1;
origin = (0,0);
scale = (1,-1);
type = Corner;
},
{
name = _corner.serifCapLeft;
origin = (0,1);
type = Corner;
},
{
name = _corner.serifCapLeft;
options = 2;
origin = (0,2);
scale = (-1,1);
type = Corner;
},
{
name = _corner.serifCapLeft;
origin = (0,3);
type = Corner;
},
{
name = _corner.serifCapLeft;
options = 1;
origin = (1,0);
scale = (0.8,-1);
type = Corner;
},
{
name = _corner.serifCapLeft;
origin = (1,3);
scale = (1.2,1);
type = Corner;
},
{
name = _corner.serifCapLeft;
origin = (2,2);
scale = (0.9,1);
type = Corner;
},
{
name = _corner.serifCapLeft;
options = 1;
origin = (2,3);
scale = (1.2,-1);
type = Corner;
}
);
layerId = m002;
shapes = (
{
closed = 1;
nodes = (
(152,0,l),
(152,700,l),
(124,700,l),
(124,0,l)
);
},
{
closed = 1;
nodes = (
(629,0,l),
(316,435,l),
(229,349,l),
(477,0,l)
);
},
{
closed = 1;
nodes = (
(127,241,l),
(150,241,l),
(574,700,l),
(551,700,l)
);
}
);
width = 682;
}
);
metricLeft = "=H";
unicode = 75;
},
{
glyphname = L;
kernLeft = H;
kernRight = L;
lastChange = "2026-04-27 10:18:44 +0000";
layers = (
{
anchors = (
{
name = bottom;
pos = (333,0);
},
{
name = center;
pos = (286,350);
},
{
name = top;
pos = (138,700);
},
{
name = topright;
pos = (402,700);
}
);
hints = (
{
name = _corner.serifCapLeft;
options = 1;
origin = (0,2);
scale = (1,-1);
type = Corner;
},
{
name = _corner.serifCapLeft;
origin = (0,3);
type = Corner;
},
{
name = _corner.serifCapLeft;
options = 1;
origin = (1,1);
scale = (1.7,-1.1);
type = Corner;
},
{
name = _corner.serifCapLeft;
origin = (0,1);
type = Corner;
}
);
layerId = m01;
shapes = (
{
closed = 1;
nodes = (
(152,0,l),
(152,700,l),
(124,700,l),
(124,0,l)
);
},
{
closed = 1;
nodes = (
(520,0,l),
(522,16,l),
(143,16,l),
(143,0,l)
);
}
);
width = 572;
},
{
anchors = (
{
name = bottom;
pos = (333,0);
},
{
name = center;
pos = (286,350);
},
{
name = top;
pos = (138,700);
},
{
name = topright;
pos = (402,700);
}
);
hints = (
{
name = _corner.serifCapLeft;
options = 1;
origin = (0,2);
scale = (1,-1);
type = Corner;
},
{
name = _corner.serifCapLeft;
origin = (0,3);
type = Corner;
},
{
name = _corner.serifCapLeft;
options = 1;
origin = (1,1);
scale = (1.7,-1.1);
type = Corner;
},
{
name = _corner.serifCapLeft;
origin = (0,1);
type = Corner;
}
);
layerId = m002;
shapes = (
{
closed = 1;
nodes = (
(152,0,l),
(152,700,l),
(124,700,l),
(124,0,l)
);
},
{
closed = 1;
nodes = (
(510,0,l),
(522,106,l),
(143,106,l),
(143,0,l)
);
}
);
width = 572;
}
);
metricLeft = "=H";
unicode = 76;
},
{
glyphname = Lslash;
kernLeft = H;
kernRight = L;
lastChange = "2026-04-24 09:42:18 +0000";
layers = (
{
layerId = m01;
shapes = (
{
ref = L;
},
{
closed = 1;
nodes = (
(31,340,l),
(307,410,l),
(307,428,l),
(31,358,l)
);
}
);
width = 572;
},
{
layerId = m002;
shapes = (
{
ref = L;
},
{
closed = 1;
nodes = (
(31,340,l),
(307,410,l),
(307,428,l),
(31,358,l)
);
}
);
width = 572;
}
);
unicode = 321;
},
{
glyphname = M;
kernLeft = M;
kernRight = M;
lastChange = "2026-04-27 06:20:27 +0000";
layers = (
{
hints = (
{
name = _corner.serifCapLeft;
origin = (0,2);
type = Corner;
},
{
name = _corner.serifCapLeft;
options = 1;
origin = (0,3);
scale = (1,-1);
type = Corner;
}
);
layerId = m01;
shapes = (
{
closed = 1;
nodes = (
(507,500,l),
(479,500,l),
(479,0,l),
(507,0,l)
);
},
{
closed = 1;
nodes = (
(263,26,l),
(32,12,l),
(32,0,l),
(297,0,l),
(297,12,l),
(182,82,o),
(99,236,o),
(99,426,cs),
(99,612,o),
(175,702,o),
(284,702,cs),
(408,702,o),
(479,598,o),
(479,438,c),
(488,438,l),
(492,606,o),
(416,716,o),
(284,716,cs),
(159,716,o),
(64,620,o),
(64,426,cs),
(64,228,o),
(171,72,o),
(291,3,c)
);
},
{
closed = 1;
nodes = (
(815,72,o),
(922,228,o),
(922,426,cs),
(922,620,o),
(827,716,o),
(702,716,cs),
(570,716,o),
(494,606,o),
(498,438,c),
(507,438,l),
(507,598,o),
(578,702,o),
(702,702,cs),
(811,702,o),
(887,612,o),
(887,426,cs),
(887,236,o),
(804,82,o),
(689,12,c),
(689,0,l),
(954,0,l),
(954,12,l),
(723,26,l),
(695,3,l)
);
}
);
width = 986;
},
{
hints = (
{
name = _corner.serifCapLeft;
origin = (0,2);
type = Corner;
},
{
name = _corner.serifCapLeft;
options = 1;
origin = (0,3);
scale = (1,-1);
type = Corner;
}
);
layerId = m002;
shapes = (
{
closed = 1;
nodes = (
(507,500,l),
(479,500,l),
(479,0,l),
(507,0,l)
);
},
{
closed = 1;
nodes = (
(263,26,l),
(32,12,l),
(32,0,l),
(347,0,l),
(347,12,l),
(242,122,o),
(199,286,o),
(199,476,cs),
(199,612,o),
(215,702,o),
(304,702,cs),
(398,702,o),
(479,598,o),
(479,438,c),
(488,438,l),
(492,606,o),
(416,716,o),
(284,716,cs),
(139,716,o),
(44,620,o),
(44,426,cs),
(44,228,o),
(171,72,o),
(291,3,c)
);
},
{
closed = 1;
nodes = (
(815,72,o),
(942,228,o),
(942,426,cs),
(942,620,o),
(847,716,o),
(702,716,cs),
(570,716,o),
(494,606,o),
(498,438,c),
(507,438,l),
(507,598,o),
(588,702,o),
(682,702,cs),
(771,702,o),
(787,612,o),
(787,476,cs),
(787,286,o),
(744,122,o),
(639,12,c),
(639,0,l),
(954,0,l),
(954,12,l),
(723,26,l),
(695,3,l)
);
}
);
width = 986;
}
);
metricRight = "=|";
unicode = 77;
},
{
glyphname = N;
kernLeft = H;
kernRight = N;
lastChange = "2026-04-27 10:19:40 +0000";
layers = (
{
anchors = (
{
name = bottom;
pos = (374,0);
},
{
name = top;
pos = (374,700);
}
);
hints = (
{
name = _corner.serifCapLeft;
origin = (0,1);
type = Corner;
},
{
name = _corner.serifCapLeft;
options = 1;
origin = (1,2);
scale = (1,-1);
type = Corner;
},
{
name = _corner.serifCapLeft;
origin = (1,3);
type = Corner;
},
{
name = _corner.serifCapLeft;
options = 1;
origin = (1,0);
scale = (1,-1);
type = Corner;
},
{
name = _corner.serifCapLeft;
options = 1;
origin = (0,2);
scale = (1,-1);
type = Corner;
}
);
layerId = m01;
shapes = (
{
closed = 1;
nodes = (
(624,0,l),
(624,700,l),
(606,700,l),
(606,0,l)
);
},
{
closed = 1;
nodes = (
(142,0,l),
(142,700,l),
(124,700,l),
(124,0,l)
);
},
{
closed = 1;
nodes = (
(586,0,l),
(624,0,l),
(162,700,l),
(124,700,l)
);
}
);
width = 748;
},
{
anchors = (
{
name = bottom;
pos = (374,0);
},
{
name = top;
pos = (374,700);
}
);
hints = (
{
name = _corner.serifCapLeft;
origin = (0,1);
type = Corner;
},
{
name = _corner.serifCapLeft;
options = 1;
origin = (1,2);
scale = (1,-1);
type = Corner;
},
{
name = _corner.serifCapLeft;
origin = (1,3);
type = Corner;
},
{
name = _corner.serifCapLeft;
options = 1;
origin = (1,0);
scale = (1,-1);
type = Corner;
},
{
name = _corner.serifCapLeft;
options = 1;
origin = (0,2);
scale = (1,-1);
type = Corner;
}
);
layerId = m002;
shapes = (
{
closed = 1;
nodes = (
(624,0,l),
(624,700,l),
(606,700,l),
(606,0,l)
);
},
{
closed = 1;
nodes = (
(142,0,l),
(142,700,l),
(124,700,l),
(124,0,l)
);
},
{
closed = 1;
nodes = (
(486,0,l),
(624,0,l),
(262,700,l),
(124,700,l)
);
}
);
width = 748;
}
);
metricLeft = "=H";
metricRight = "=H";
unicode = 78;
},
{
glyphname = O;
kernLeft = O;
kernRight = O;
lastChange = "2026-04-27 04:45:03 +0000";
layers = (
{
anchors = (
{
name = bottom;
pos = (390,0);
},
{
name = center;
pos = (390,350);
},
{
name = ogonek;
pos = (702,10);
},
{
name = top;
pos = (390,700);
},
{
name = topleft;
pos = (20,700);
},
{
name = topright;
pos = (760,700);
}
);
layerId = m01;
shapes = (
{
closed = 1;
nodes = (
(587,-16,o),
(725,136,o),
(725,351,cs),
(725,565,o),
(587,716,o),
(391,716,cs),
(194,716,o),
(55,565,o),
(55,351,cs),
(55,136,o),
(194,-16,o),
(391,-16,cs)
);
},
{
closed = 1;
nodes = (
(216,1,o),
(90,134,o),
(90,351,cs),
(90,567,o),
(216,699,o),
(391,699,cs),
(564,699,o),
(690,567,o),
(690,351,cs),
(690,134,o),
(564,1,o),
(391,1,cs)
);
}
);
width = 780;
},
{
anchors = (
{
name = bottom;
pos = (390,0);
},
{
name = center;
pos = (390,350);
},
{
name = ogonek;
pos = (702,10);
},
{
name = top;
pos = (390,700);
},
{
name = topleft;
pos = (20,700);
},
{
name = topright;
pos = (760,700);
}
);
layerId = m002;
shapes = (
{
closed = 1;
nodes = (
(587,-16,o),
(725,136,o),
(725,351,cs),
(725,565,o),
(587,716,o),
(391,716,cs),
(194,716,o),
(55,565,o),
(55,351,cs),
(55,136,o),
(194,-16,o),
(391,-16,cs)
);
},
{
closed = 1;
nodes = (
(265,1,o),
(210,107,o),
(210,351,cs),
(210,593,o),
(265,699,o),
(391,699,cs),
(516,699,o),
(570,593,o),
(570,351,cs),
(570,107,o),
(516,1,o),
(391,1,cs)
);
}
);
width = 780;
}
);
metricRight = "=|";
unicode = 79;
},
{
glyphname = Oslash;
kernLeft = O;
kernRight = O;
lastChange = "2026-04-24 09:42:18 +0000";
layers = (
{
layerId = m01;
shapes = (
{
ref = O;
},
{
closed = 1;
nodes = (
(130,-82,l),
(150,-82,l),
(650,782,l),
(630,782,l)
);
}
);
width = 780;
},
{
layerId = m002;
shapes = (
{
ref = O;
},
{
closed = 1;
nodes = (
(130,-82,l),
(150,-82,l),
(650,782,l),
(630,782,l)
);
}
);
width = 780;
}
);
unicode = 216;
},
{
glyphname = OE;
kernLeft = O;
kernRight = E;
lastChange = "2026-04-27 08:55:26 +0000";
layers = (
{
hints = (
{
name = _corner.serifCapLeft;
origin = (2,0);
scale = (1.3,1);
type = Corner;
},
{
name = _corner.serifCapLeft;
options = 2;
origin = (2,1);
scale = (-1.3,1);
type = Corner;
}
);
layerId = m01;
shapes = (
{
closed = 1;
nodes = (
(587,-16,o),
(725,136,o),
(725,351,cs),
(725,565,o),
(587,716,o),
(391,716,cs),
(194,716,o),
(55,565,o),
(55,351,cs),
(55,136,o),
(194,-16,o),
(391,-16,cs)
);
},
{
closed = 1;
nodes = (
(216,1,o),
(90,134,o),
(90,351,cs),
(90,567,o),
(216,699,o),
(391,699,cs),
(564,699,o),
(690,567,o),
(690,351,cs),
(690,134,o),
(564,1,o),
(391,1,cs)
);
},
{
closed = 1;
nodes = (
(1057,343,l),
(1057,357,l),
(708,357,l),
(708,343,l)
);
},
{
closed = 1;
nodes = (
(1137,-16,o),
(1226,39,o),
(1284,131,c),
(1274,141,l),
(1222,53,o),
(1133,1,o),
(1026,1,cs),
(851,1,o),
(725,134,o),
(725,351,cs),
(725,567,o),
(851,699,o),
(1026,699,cs),
(1108,699,o),
(1229,670,o),
(1224,575,cs),
(1219,480,l),
(1233,480,l),
(1250,657,l),
(1203,683,o),
(1123,716,o),
(1026,716,cs),
(829,716,o),
(690,565,o),
(690,351,cs),
(690,136,o),
(829,-16,o),
(1026,-16,cs)
);
}
);
width = 1324;
},
{
hints = (
{
name = _corner.serifCapLeft;
origin = (2,0);
scale = (1.3,1);
type = Corner;
},
{
name = _corner.serifCapLeft;
options = 2;
origin = (2,1);
scale = (-1.3,1);
type = Corner;
}
);
layerId = m002;
shapes = (
{
closed = 1;
nodes = (
(587,-16,o),
(725,136,o),
(725,351,cs),
(725,565,o),
(587,716,o),
(391,716,cs),
(194,716,o),
(55,565,o),
(55,351,cs),
(55,136,o),
(194,-16,o),
(391,-16,cs)
);
},
{
closed = 1;
nodes = (
(265,1,o),
(210,107,o),
(210,351,cs),
(210,593,o),
(265,699,o),
(391,699,cs),
(516,699,o),
(570,593,o),
(570,351,cs),
(570,107,o),
(516,1,o),
(391,1,cs)
);
},
{
closed = 1;
nodes = (
(937,343,l),
(937,357,l),
(588,357,l),
(588,343,l)
);
},
{
closed = 1;
nodes = (
(1017,-16,o),
(1106,39,o),
(1164,131,c),
(1154,141,l),
(1102,53,o),
(1013,1,o),
(906,1,cs),
(780,1,o),
(725,107,o),
(725,351,cs),
(725,593,o),
(780,699,o),
(906,699,cs),
(988,699,o),
(1109,670,o),
(1104,575,cs),
(1099,480,l),
(1113,480,l),
(1130,657,l),
(1083,683,o),
(1003,716,o),
(906,716,cs),
(710,716,o),
(570,565,o),
(570,351,cs),
(570,136,o),
(709,-16,o),
(906,-16,cs)
);
}
);
width = 1204;
}
);
metricLeft = "=O";
metricRight = "=E";
unicode = 338;
},
{
glyphname = P;
kernLeft = H;
kernRight = P;
lastChange = "2026-04-27 06:07:46 +0000";
layers = (
{
hints = (
{
name = _corner.serifCapLeft;
options = 1;
origin = (1,0);
scale = (1,-1);
type = Corner;
},
{
name = _corner.serifCapLeft;
options = 1;
origin = (1,2);
scale = (1,-1);
type = Corner;
},
{
name = _corner.serifCapLeft;
origin = (1,3);
type = Corner;
}
);
layerId = m01;
shapes = (
{
closed = 1;
nodes = (
(382,313,ls),
(501,313,o),
(576,384,o),
(576,506,cs),
(576,629,o),
(501,700,o),
(382,700,cs),
(143,700,l),
(143,684,l),
(382,684,ls),
(480,684,o),
(541,619,o),
(541,506,cs),
(541,392,o),
(480,329,o),
(382,329,cs),
(143,329,l),
(143,313,l)
);
},
{
closed = 1;
nodes = (
(152,0,l),
(152,700,l),
(124,700,l),
(124,0,l)
);
}
);
width = 630;
},
{
background = {
hints = (
{
name = _corner.serifCapLeft;
options = 1;
origin = (1,0);
scale = (1,-1);
type = Corner;
},
{
name = _corner.serifCapLeft;
options = 1;
origin = (1,2);
scale = (1,-1);
type = Corner;
},
{
name = _corner.serifCapLeft;
origin = (1,3);
type = Corner;
}
);
shapes = (
{
closed = 1;
nodes = (
(382,333,ls),
(501,333,o),
(576,404,o),
(576,516,cs),
(576,629,o),
(501,700,o),
(382,700,cs),
(143,700,l),
(143,684,l),
(382,684,ls),
(480,684,o),
(541,619,o),
(541,516,cs),
(541,412,o),
(480,349,o),
(382,349,cs),
(143,349,l),
(143,333,l)
);
},
{
closed = 1;
nodes = (
(152,0,l),
(152,700,l),
(124,700,l),
(124,0,l)
);
}
);
};
hints = (
{
name = _corner.serifCapLeft;
options = 1;
origin = (1,0);
scale = (1,-1);
type = Corner;
},
{
name = _corner.serifCapLeft;
options = 1;
origin = (1,2);
scale = (1,-1);
type = Corner;
},
{
name = _corner.serifCapLeft;
origin = (1,3);
type = Corner;
}
);
layerId = m002;
shapes = (
{
closed = 1;
nodes = (
(392,313,ls),
(511,313,o),
(586,384,o),
(586,506,cs),
(586,629,o),
(511,700,o),
(392,700,cs),
(143,700,l),
(143,684,l),
(277,684,ls),
(375,684,o),
(431,619,o),
(431,506,cs),
(431,392,o),
(375,329,o),
(277,329,cs),
(143,329,l),
(143,313,l)
);
},
{
closed = 1;
nodes = (
(152,0,l),
(152,700,l),
(124,700,l),
(124,0,l)
);
}
);
width = 630;
}
);
metricLeft = "=H";
unicode = 80;
},
{
glyphname = Thorn;
kernLeft = H;
kernRight = Thorn;
lastChange = "2026-04-27 08:56:56 +0000";
layers = (
{
hints = (
{
name = _corner.serifCapLeft;
options = 1;
origin = (1,0);
scale = (1,-1);
type = Corner;
},
{
name = _corner.serifCapLeft;
options = 1;
origin = (1,2);
scale = (1,-1);
type = Corner;
},
{
name = _corner.serifCapLeft;
origin = (1,3);
type = Corner;
},
{
name = _corner.serifCapLeft;
origin = (1,1);
type = Corner;
}
);
layerId = m01;
shapes = (
{
closed = 1;
nodes = (
(382,167,ls),
(501,167,o),
(576,238,o),
(576,350,cs),
(576,463,o),
(501,534,o),
(382,534,cs),
(143,534,l),
(143,518,l),
(382,518,ls),
(480,518,o),
(541,453,o),
(541,350,cs),
(541,246,o),
(480,183,o),
(382,183,cs),
(143,183,l),
(143,167,l)
);
},
{
closed = 1;
nodes = (
(152,0,l),
(152,700,l),
(124,700,l),
(124,0,l)
);
}
);
width = 630;
},
{
hints = (
{
name = _corner.serifCapLeft;
options = 1;
origin = (1,0);
scale = (1,-1);
type = Corner;
},
{
name = _corner.serifCapLeft;
options = 1;
origin = (1,2);
scale = (1,-1);
type = Corner;
},
{
name = _corner.serifCapLeft;
origin = (1,3);
type = Corner;
},
{
name = _corner.serifCapLeft;
origin = (1,1);
type = Corner;
}
);
layerId = m002;
shapes = (
{
closed = 1;
nodes = (
(382,167,ls),
(501,167,o),
(576,238,o),
(576,350,cs),
(576,463,o),
(501,534,o),
(382,534,cs),
(143,534,l),
(143,518,l),
(292,518,ls),
(380,518,o),
(421,453,o),
(421,350,cs),
(421,246,o),
(380,183,o),
(292,183,cs),
(143,183,l),
(143,167,l)
);
},
{
closed = 1;
nodes = (
(152,0,l),
(152,700,l),
(124,700,l),
(124,0,l)
);
}
);
width = 630;
}
);
unicode = 222;
},
{
glyphname = Q;
kernLeft = O;
kernRight = O;
lastChange = "2026-04-24 09:42:18 +0000";
layers = (
{
layerId = m01;
shapes = (
{
ref = O;
},
{
closed = 1;
nodes = (
(761,-216,l),
(776,-184,l),
(278,15,l),
(340,60,l),
(303,-5,l)
);
}
);
width = 780;
},
{
layerId = m002;
shapes = (
{
ref = O;
},
{
closed = 1;
nodes = (
(761,-216,l),
(776,-184,l),
(278,15,l),
(340,60,l),
(303,-5,l)
);
}
);
width = 780;
}
);
unicode = 81;
},
{
glyphname = R;
kernLeft = H;
kernRight = R;
lastChange = "2026-04-27 06:03:17 +0000";
layers = (
{
anchors = (
{
name = bottom;
pos = (360,0);
},
{
name = top;
pos = (310,700);
}
);
hints = (
{
name = _corner.serifCapLeft;
options = 1;
origin = (1,2);
scale = (1,-1);
type = Corner;
},
{
name = _corner.serifCapLeft;
origin = (1,3);
type = Corner;
},
{
name = _corner.serifCapLeft;
options = 1;
origin = (1,0);
scale = (1,-1);
type = Corner;
}
);
layerId = m01;
shapes = (
{
closed = 1;
nodes = (
(382,333,ls),
(501,333,o),
(576,404,o),
(576,516,cs),
(576,629,o),
(501,700,o),
(382,700,cs),
(143,700,l),
(143,684,l),
(382,684,ls),
(480,684,o),
(541,619,o),
(541,516,cs),
(541,412,o),
(480,349,o),
(382,349,cs),
(143,349,l),
(143,333,l)
);
},
{
closed = 1;
nodes = (
(152,0,l),
(152,700,l),
(124,700,l),
(124,0,l)
);
},
{
closed = 1;
nodes = (
(599,-111,l),
(614,-111,l),
(392,345,l),
(357,345,l)
);
}
);
width = 620;
},
{
anchors = (
{
name = bottom;
pos = (360,0);
},
{
name = top;
pos = (310,700);
}
);
hints = (
{
name = _corner.serifCapLeft;
options = 1;
origin = (1,2);
scale = (1,-1);
type = Corner;
},
{
name = _corner.serifCapLeft;
origin = (1,3);
type = Corner;
},
{
name = _corner.serifCapLeft;
options = 1;
origin = (1,0);
scale = (1,-1);
type = Corner;
}
);
layerId = m002;
shapes = (
{
closed = 1;
nodes = (
(392,333,ls),
(511,333,o),
(586,404,o),
(586,516,cs),
(586,629,o),
(511,700,o),
(392,700,cs),
(143,700,l),
(143,684,l),
(277,684,ls),
(375,684,o),
(431,619,o),
(431,516,cs),
(431,412,o),
(375,349,o),
(277,349,cs),
(143,349,l),
(143,333,l)
);
},
{
closed = 1;
nodes = (
(152,0,l),
(152,700,l),
(124,700,l),
(124,0,l)
);
},
{
closed = 1;
nodes = (
(599,-111,l),
(614,-111,l),
(392,345,l),
(357,345,l)
);
}
);
width = 620;
}
);
metricLeft = "=H";
unicode = 82;
},
{
glyphname = S;
kernLeft = S;
kernRight = S;
lastChange = "2026-04-27 06:34:13 +0000";
layers = (
{
anchors = (
{
name = bottom;
pos = (300,0);
},
{
name = top;
pos = (300,700);
}
);
background = {
shapes = (
{
closed = 1;
nodes = (
(434,1,o),
(478,85,o),
(478,154,cs),
(478,389,o),
(56,307,o),
(56,544,cs),
(56,662,o),
(166,716,o),
(283,716,cs),
(345,716,o),
(426,700,o),
(480,657,c),
(463,480,l),
(449,480,l),
(459,663,l),
(468,620,l),
(442,663,o),
(387,699,o),
(283,699,cs),
(187,699,o),
(91,657,o),
(91,551,cs),
(91,325,o),
(512,407,o),
(512,165,cs),
(512,71,o),
(450,-16,o),
(283,-16,cs),
(188,-16,o),
(108,13,o),
(53,43,c),
(69,242,l),
(83,242,l),
(83,124,ls),
(83,49,o),
(164,1,o),
(283,1,cs)
);
}
);
};
layerId = m01;
shapes = (
{
closed = 1;
nodes = (
(450,-16,o),
(527,54,o),
(527,160,cs),
(527,396,o),
(112,339,o),
(112,553,cs),
(112,648,o),
(199,699,o),
(303,699,cs),
(383,699,o),
(474,670,o),
(470,595,cs),
(464,480,l),
(478,480,l),
(495,657,l),
(446,696,o),
(368,716,o),
(303,716,cs),
(179,716,o),
(81,655,o),
(81,546,cs),
(81,320,o),
(496,378,o),
(496,154,cs),
(496,69,o),
(431,1,o),
(303,1,cs),
(224,1,o),
(102,32,o),
(105,118,cs),
(109,250,l),
(95,250,l),
(78,53,l),
(151,-1,o),
(237,-16,o),
(303,-16,cs)
);
}
);
width = 600;
},
{
associatedMasterId = m01;
background = {
shapes = (
{
closed = 1;
nodes = (
(459,1,o),
(503,85,o),
(503,154,cs),
(503,389,o),
(81,307,o),
(81,544,cs),
(81,662,o),
(191,716,o),
(308,716,cs),
(370,716,o),
(451,700,o),
(505,657,c),
(488,480,l),
(474,480,l),
(484,663,l),
(493,620,l),
(467,663,o),
(412,699,o),
(308,699,cs),
(212,699,o),
(116,657,o),
(116,551,cs),
(116,325,o),
(537,407,o),
(537,165,cs),
(537,71,o),
(475,-16,o),
(308,-16,cs),
(213,-16,o),
(133,13,o),
(78,43,c),
(94,242,l),
(108,242,l),
(108,124,ls),
(108,49,o),
(189,1,o),
(308,1,cs)
);
}
);
};
layerId = "67B1EB14-15D9-4772-A172-C164BD025B02";
name = "21 Apr 26 at 16.06";
shapes = (
{
closed = 1;
nodes = (
(460,-16,o),
(537,54,o),
(537,160,cs),
(537,396,o),
(112,339,o),
(112,553,cs),
(112,648,o),
(199,699,o),
(308,699,cs),
(393,699,o),
(484,670,o),
(480,595,cs),
(474,480,l),
(488,480,l),
(505,657,l),
(456,696,o),
(378,716,o),
(308,716,cs),
(179,716,o),
(81,655,o),
(81,546,cs),
(81,320,o),
(506,378,o),
(506,154,cs),
(506,69,o),
(441,1,o),
(308,1,cs),
(224,1,o),
(102,32,o),
(105,118,cs),
(109,250,l),
(95,250,l),
(78,53,l),
(151,-1,o),
(237,-16,o),
(308,-16,cs)
);
}
);
width = 600;
},
{
associatedMasterId = m01;
background = {
shapes = (
{
closed = 1;
nodes = (
(439,1,o),
(483,85,o),
(483,154,cs),
(483,389,o),
(61,307,o),
(61,544,cs),
(61,662,o),
(171,716,o),
(288,716,cs),
(350,716,o),
(431,700,o),
(485,657,c),
(468,480,l),
(454,480,l),
(464,663,l),
(473,620,l),
(447,663,o),
(392,699,o),
(288,699,cs),
(192,699,o),
(96,657,o),
(96,551,cs),
(96,325,o),
(517,407,o),
(517,165,cs),
(517,71,o),
(455,-16,o),
(288,-16,cs),
(193,-16,o),
(113,13,o),
(58,43,c),
(74,242,l),
(88,242,l),
(88,124,ls),
(88,49,o),
(169,1,o),
(288,1,cs)
);
}
);
};
layerId = "AF46E25B-7061-4C95-9442-0B7EF2830081";
name = "21 Apr 26 at 16.09";
shapes = (
{
closed = 1;
nodes = (
(420,-16,o),
(497,54,o),
(497,160,cs),
(497,396,o),
(112,339,o),
(112,553,cs),
(112,648,o),
(199,699,o),
(288,699,cs),
(353,699,o),
(444,670,o),
(440,595,cs),
(434,480,l),
(448,480,l),
(465,657,l),
(416,696,o),
(338,716,o),
(288,716,cs),
(179,716,o),
(81,655,o),
(81,546,cs),
(81,320,o),
(466,378,o),
(466,154,cs),
(466,69,o),
(401,1,o),
(288,1,cs),
(224,1,o),
(102,32,o),
(105,118,cs),
(109,250,l),
(95,250,l),
(78,53,l),
(151,-1,o),
(237,-16,o),
(288,-16,cs)
);
}
);
width = 560;
},
{
anchors = (
{
name = bottom;
pos = (300,0);
},
{
name = top;
pos = (300,700);
}
);
background = {
shapes = (
{
closed = 1;
nodes = (
(434,1,o),
(478,85,o),
(478,154,cs),
(478,389,o),
(56,307,o),
(56,544,cs),
(56,662,o),
(166,716,o),
(283,716,cs),
(345,716,o),
(426,700,o),
(480,657,c),
(463,480,l),
(449,480,l),
(459,663,l),
(468,620,l),
(442,663,o),
(387,699,o),
(283,699,cs),
(187,699,o),
(91,657,o),
(91,551,cs),
(91,325,o),
(512,407,o),
(512,165,cs),
(512,71,o),
(450,-16,o),
(283,-16,cs),
(188,-16,o),
(108,13,o),
(53,43,c),
(69,242,l),
(83,242,l),
(83,124,ls),
(83,49,o),
(164,1,o),
(283,1,cs)
);
}
);
};
layerId = m002;
shapes = (
{
closed = 1;
nodes = (
(450,-16,o),
(537,54,o),
(537,170,cs),
(537,406,o),
(212,419,o),
(212,583,cs),
(212,648,o),
(259,699,o),
(330,699,cs),
(383,699,o),
(474,670,o),
(470,595,cs),
(464,480,l),
(478,480,l),
(495,657,l),
(446,696,o),
(368,716,o),
(303,716,cs),
(169,716,o),
(71,655,o),
(71,536,cs),
(71,320,o),
(396,298,o),
(396,117,cs),
(396,69,o),
(371,1,o),
(283,1,cs),
(224,1,o),
(102,32,o),
(105,118,cs),
(109,250,l),
(95,250,l),
(78,53,l),
(151,-1,o),
(237,-16,o),
(303,-16,cs)
);
}
);
width = 600;
},
{
associatedMasterId = m002;
background = {
shapes = (
{
closed = 1;
nodes = (
(459,1,o),
(503,85,o),
(503,154,cs),
(503,389,o),
(81,307,o),
(81,544,cs),
(81,662,o),
(191,716,o),
(308,716,cs),
(370,716,o),
(451,700,o),
(505,657,c),
(488,480,l),
(474,480,l),
(484,663,l),
(493,620,l),
(467,663,o),
(412,699,o),
(308,699,cs),
(212,699,o),
(116,657,o),
(116,551,cs),
(116,325,o),
(537,407,o),
(537,165,cs),
(537,71,o),
(475,-16,o),
(308,-16,cs),
(213,-16,o),
(133,13,o),
(78,43,c),
(94,242,l),
(108,242,l),
(108,124,ls),
(108,49,o),
(189,1,o),
(308,1,cs)
);
}
);
};
layerId = "D45F4199-828E-4582-A219-20D69B791104";
name = "21 Apr 26 at 16.06";
shapes = (
{
closed = 1;
nodes = (
(460,-16,o),
(537,54,o),
(537,160,cs),
(537,396,o),
(112,339,o),
(112,553,cs),
(112,648,o),
(199,699,o),
(308,699,cs),
(393,699,o),
(484,670,o),
(480,595,cs),
(474,480,l),
(488,480,l),
(505,657,l),
(456,696,o),
(378,716,o),
(308,716,cs),
(179,716,o),
(81,655,o),
(81,546,cs),
(81,320,o),
(506,378,o),
(506,154,cs),
(506,69,o),
(441,1,o),
(308,1,cs),
(224,1,o),
(102,32,o),
(105,118,cs),
(109,250,l),
(95,250,l),
(78,53,l),
(151,-1,o),
(237,-16,o),
(308,-16,cs)
);
}
);
width = 600;
},
{
associatedMasterId = m002;
background = {
shapes = (
{
closed = 1;
nodes = (
(439,1,o),
(483,85,o),
(483,154,cs),
(483,389,o),
(61,307,o),
(61,544,cs),
(61,662,o),
(171,716,o),
(288,716,cs),
(350,716,o),
(431,700,o),
(485,657,c),
(468,480,l),
(454,480,l),
(464,663,l),
(473,620,l),
(447,663,o),
(392,699,o),
(288,699,cs),
(192,699,o),
(96,657,o),
(96,551,cs),
(96,325,o),
(517,407,o),
(517,165,cs),
(517,71,o),
(455,-16,o),
(288,-16,cs),
(193,-16,o),
(113,13,o),
(58,43,c),
(74,242,l),
(88,242,l),
(88,124,ls),
(88,49,o),
(169,1,o),
(288,1,cs)
);
}
);
};
layerId = "2160BA36-2908-43F4-A2E4-4910E1021F33";
name = "21 Apr 26 at 16.09";
shapes = (
{
closed = 1;
nodes = (
(420,-16,o),
(497,54,o),
(497,160,cs),
(497,396,o),
(112,339,o),
(112,553,cs),
(112,648,o),
(199,699,o),
(288,699,cs),
(353,699,o),
(444,670,o),
(440,595,cs),
(434,480,l),
(448,480,l),
(465,657,l),
(416,696,o),
(338,716,o),
(288,716,cs),
(179,716,o),
(81,655,o),
(81,546,cs),
(81,320,o),
(466,378,o),
(466,154,cs),
(466,69,o),
(401,1,o),
(288,1,cs),
(224,1,o),
(102,32,o),
(105,118,cs),
(109,250,l),
(95,250,l),
(78,53,l),
(151,-1,o),
(237,-16,o),
(288,-16,cs)
);
}
);
width = 560;
}
);
unicode = 83;
},
{
glyphname = Germandbls;
kernLeft = H;
kernRight = Germandbls;
lastChange = "2026-04-27 10:02:44 +0000";
layers = (
{
hints = (
{
name = _corner.serifCapLeft;
origin = (0,37);
type = Corner;
},
{
name = _corner.serifCapLeft;
options = 2;
origin = (0,0);
scale = (-1,1);
type = Corner;
}
);
layerId = m01;
shapes = (
{
closed = 1;
nodes = (
(152,0,l),
(152,447,ls),
(152,648,o),
(258,700,o),
(396,700,cs),
(482,700,o),
(533,667,o),
(575,629,c),
(383,398,l),
(522,352,o),
(611,287,o),
(611,167,cs),
(611,69,o),
(551,1,o),
(446,1,cs),
(374,1,o),
(321,32,o),
(325,108,cs),
(329,180,l),
(315,180,l),
(298,23,l),
(345,-4,o),
(397,-16,o),
(446,-16,cs),
(570,-16,o),
(647,54,o),
(647,173,cs),
(647,302,o),
(548,365,o),
(426,405,c),
(613,630,l),
(576,676,o),
(510,716,o),
(396,716,cs),
(249,716,o),
(124,655,o),
(124,447,cs),
(124,0,l)
);
}
);
width = 686;
},
{
associatedMasterId = m01;
hints = (
{
name = _corner.serifCapLeft;
options = 1;
origin = (1,2);
scale = (1,-1);
type = Corner;
},
{
name = _corner.serifCapLeft;
origin = (1,3);
type = Corner;
}
);
layerId = "8D1D8947-9255-4521-A514-23A333EB4710";
name = "24 Apr 26 at 10.19";
shapes = (
{
closed = 1;
nodes = (
(471,-16,o),
(556,71,o),
(556,200,cs),
(556,316,o),
(485,393,o),
(337,404,c),
(332,391,l),
(450,381,o),
(521,318,o),
(521,200,cs),
(521,81,o),
(450,1,o),
(352,1,cs),
(252,1,o),
(167,47,o),
(115,146,c),
(104,140,l),
(161,32,o),
(245,-16,o),
(352,-16,cs)
);
},
{
closed = 1;
nodes = (
(152,0,l),
(152,700,l),
(124,700,l),
(124,0,l)
);
},
{
closed = 1;
nodes = (
(332,378,l),
(512,684,l),
(487,684,l),
(307,378,l)
);
},
{
closed = 1;
nodes = (
(512,684,l),
(512,700,l),
(143,700,l),
(143,684,l)
);
}
);
width = 560;
},
{
hints = (
{
name = _corner.serifCapLeft;
origin = (0,37);
type = Corner;
},
{
name = _corner.serifCapLeft;
options = 2;
origin = (0,0);
scale = (-1,1);
type = Corner;
}
);
layerId = m002;
shapes = (
{
closed = 1;
nodes = (
(152,0,l),
(152,447,ls),
(152,648,o),
(258,700,o),
(396,700,cs),
(482,700,o),
(533,667,o),
(575,629,c),
(370,384,l),
(437,357,o),
(511,287,o),
(511,147,cs),
(511,69,o),
(481,1,o),
(411,1,cs),
(364,1,o),
(321,32,o),
(326,108,cs),
(329,180,l),
(315,180,l),
(298,23,l),
(345,-4,o),
(397,-16,o),
(446,-16,cs),
(590,-16,o),
(667,54,o),
(667,165,cs),
(667,306,o),
(544,396,o),
(453,438,c),
(613,630,l),
(576,676,o),
(510,716,o),
(396,716,cs),
(249,716,o),
(124,655,o),
(124,447,cs),
(124,0,l)
);
}
);
width = 686;
},
{
associatedMasterId = m002;
hints = (
{
name = _corner.serifCapLeft;
options = 1;
origin = (1,2);
scale = (1,-1);
type = Corner;
},
{
name = _corner.serifCapLeft;
origin = (1,3);
type = Corner;
}
);
layerId = "4C690893-5EA0-443F-995D-90CC7B5E2B2E";
name = "24 Apr 26 at 10.19";
shapes = (
{
closed = 1;
nodes = (
(471,-16,o),
(556,71,o),
(556,200,cs),
(556,316,o),
(485,393,o),
(337,404,c),
(332,391,l),
(450,381,o),
(521,318,o),
(521,200,cs),
(521,81,o),
(450,1,o),
(352,1,cs),
(252,1,o),
(167,47,o),
(115,146,c),
(104,140,l),
(161,32,o),
(245,-16,o),
(352,-16,cs)
);
},
{
closed = 1;
nodes = (
(152,0,l),
(152,700,l),
(124,700,l),
(124,0,l)
);
},
{
closed = 1;
nodes = (
(332,378,l),
(512,684,l),
(487,684,l),
(307,378,l)
);
},
{
closed = 1;
nodes = (
(512,684,l),
(512,700,l),
(143,700,l),
(143,684,l)
);
}
);
width = 560;
}
);
metricLeft = "=H";
unicode = 7838;
},
{
glyphname = T;
kernLeft = T;
kernRight = T;
lastChange = "2026-04-27 06:25:44 +0000";
layers = (
{
anchors = (
{
name = bottom;
pos = (353,0);
},
{
name = center;
pos = (306,350);
},
{
name = top;
pos = (306,700);
}
);
layerId = m01;
shapes = (
{
closed = 1;
nodes = (
(460,-16,o),
(544,32,o),
(601,140,c),
(590,146,l),
(538,47,o),
(453,1,o),
(353,1,cs),
(199,1,o),
(110,103,o),
(110,260,cs),
(110,472,o),
(249,612,o),
(373,682,c),
(367,689,l),
(215,624,o),
(75,478,o),
(75,260,cs),
(75,98,o),
(180,-16,o),
(353,-16,cs)
);
},
{
closed = 1;
nodes = (
(21,681,l),
(572,681,l),
(572,700,l),
(21,700,l)
);
}
);
width = 611;
},
{
anchors = (
{
name = bottom;
pos = (353,0);
},
{
name = center;
pos = (306,350);
},
{
name = top;
pos = (306,700);
}
);
layerId = m002;
shapes = (
{
closed = 1;
nodes = (
(460,-16,o),
(544,32,o),
(601,140,c),
(590,146,l),
(538,47,o),
(453,1,o),
(371,1,cs),
(249,1,o),
(210,103,o),
(210,260,cs),
(210,472,o),
(269,602,o),
(373,682,c),
(357,689,l),
(215,624,o),
(55,478,o),
(55,260,cs),
(55,98,o),
(160,-16,o),
(353,-16,cs)
);
},
{
closed = 1;
nodes = (
(21,681,l),
(572,681,l),
(572,700,l),
(21,700,l)
);
}
);
width = 611;
}
);
unicode = 84;
},
{
glyphname = U;
kernLeft = U;
kernRight = H;
lastChange = "2026-04-27 10:17:36 +0000";
layers = (
{
anchors = (
{
name = bottom;
pos = (329,-3);
},
{
name = ogonek;
pos = (706,0);
},
{
name = top;
pos = (396,700);
},
{
name = topright;
pos = (711,700);
}
);
hints = (
{
name = _corner.serifCapLeft;
options = 1;
origin = (1,0);
scale = (1,-1);
type = Corner;
},
{
name = _corner.serifCapLeft;
options = 1;
origin = (1,2);
scale = (1,-1);
type = Corner;
},
{
name = _corner.serifCapLeft;
origin = (1,1);
type = Corner;
}
);
layerId = m01;
shapes = (
{
closed = 1;
nodes = (
(486,-16,o),
(592,94,o),
(588,352,c),
(579,352,l),
(579,102,o),
(478,-2,o),
(329,-2,cs),
(195,-2,o),
(99,88,o),
(99,284,cs),
(99,464,o),
(182,618,o),
(297,688,c),
(297,700,l),
(32,700,l),
(32,688,l),
(263,674,l),
(291,697,l),
(171,628,o),
(64,472,o),
(64,284,cs),
(64,80,o),
(179,-16,o),
(329,-16,cs)
);
},
{
closed = 1;
nodes = (
(607,0,l),
(607,700,l),
(579,700,l),
(579,0,l)
);
}
);
width = 731;
},
{
anchors = (
{
name = bottom;
pos = (349,-3);
},
{
name = ogonek;
pos = (726,0);
},
{
name = top;
pos = (416,700);
},
{
name = topright;
pos = (731,700);
}
);
background = {
hints = (
{
name = _corner.serifCapLeft;
options = 1;
origin = (1,0);
scale = (1,-1);
type = Corner;
},
{
name = _corner.serifCapLeft;
options = 1;
origin = (1,2);
scale = (1,-1);
type = Corner;
},
{
name = _corner.serifCapLeft;
origin = (1,3);
type = Corner;
}
);
shapes = (
{
closed = 1;
nodes = (
(55,700,l),
(55,688,l),
(286,674,l),
(304,698,l),
(184,629,o),
(57,483,o),
(57,324,cs),
(57,151,o),
(202,55,o),
(352,55,cs),
(509,55,o),
(615,165,o),
(611,423,c),
(602,423,l),
(602,173,o),
(481,69,o),
(365,69,cs),
(248,69,o),
(212,159,o),
(212,276,cs),
(212,465,o),
(295,619,o),
(410,689,c),
(410,700,l)
);
},
{
closed = 1;
nodes = (
(602,700,l),
(602,0,l),
(630,0,l),
(630,700,l)
);
}
);
};
hints = (
{
name = _corner.serifCapLeft;
options = 1;
origin = (1,0);
scale = (1,-1);
type = Corner;
},
{
name = _corner.serifCapLeft;
options = 1;
origin = (1,2);
scale = (1,-1);
type = Corner;
},
{
name = _corner.serifCapLeft;
origin = (1,1);
type = Corner;
}
);
layerId = m002;
shapes = (
{
closed = 1;
nodes = (
(506,-16,o),
(612,94,o),
(608,352,c),
(599,352,l),
(599,102,o),
(478,-2,o),
(362,-2,cs),
(245,-2,o),
(209,88,o),
(209,244,cs),
(209,464,o),
(292,618,o),
(407,688,c),
(407,700,l),
(52,700,l),
(52,688,l),
(283,674,l),
(301,697,l),
(181,628,o),
(54,472,o),
(54,284,cs),
(54,80,o),
(189,-16,o),
(349,-16,cs)
);
},
{
closed = 1;
nodes = (
(627,0,l),
(627,700,l),
(599,700,l),
(599,0,l)
);
}
);
width = 751;
}
);
metricRight = "=H";
unicode = 85;
},
{
glyphname = V;
kernLeft = V;
kernRight = V;
lastChange = "2026-04-27 07:32:49 +0000";
layers = (
{
hints = (
{
name = _corner.serifCapLeft;
options = 1;
origin = (0,0);
scale = (1.3,-1);
type = Corner;
},
{
name = _corner.serifCapLeft;
origin = (0,3);
scale = (0.6,1);
type = Corner;
},
{
name = _corner.serifCapLeft;
origin = (1,3);
scale = (1.3,1);
type = Corner;
},
{
name = _corner.serifCapLeft;
options = 1;
origin = (1,4);
scale = (0.6,-1);
type = Corner;
}
);
layerId = m01;
shapes = (
{
closed = 1;
nodes = (
(608,700,l),
(338,0,l),
(359,0,l),
(629,700,l)
);
},
{
closed = 1;
nodes = (
(331,0,l),
(359,0,l),
(358,2,l),
(89,700,l),
(61,700,l)
);
}
);
width = 690;
},
{
hints = (
{
name = _corner.serifCapLeft;
options = 1;
origin = (0,0);
scale = (1.3,-1);
type = Corner;
},
{
name = _corner.serifCapLeft;
origin = (0,3);
scale = (0.6,1);
type = Corner;
},
{
name = _corner.serifCapLeft;
origin = (1,3);
scale = (1.3,1);
type = Corner;
},
{
name = _corner.serifCapLeft;
options = 1;
origin = (1,4);
scale = (0.6,-1);
type = Corner;
}
);
layerId = m002;
shapes = (
{
closed = 1;
nodes = (
(648,700,l),
(378,0,l),
(399,0,l),
(669,700,l)
);
},
{
closed = 1;
nodes = (
(331,0,l),
(389,0,l),
(433,118,l),
(209,700,l),
(61,700,l)
);
}
);
width = 730;
}
);
metricRight = "=|";
unicode = 86;
},
{
glyphname = W;
kernLeft = W;
kernRight = W;
lastChange = "2026-04-27 07:41:10 +0000";
layers = (
{
anchors = (
{
name = bottom;
pos = (518,0);
},
{
name = top;
pos = (518,700);
}
);
hints = (
{
name = _corner.serifCapLeft;
options = 1;
origin = (0,3);
scale = (0.6,-1);
type = Corner;
},
{
name = _corner.serifCapLeft;
origin = (0,2);
scale = (1.3,1);
type = Corner;
},
{
name = _corner.serifCapLeft;
options = 1;
origin = (3,2);
scale = (1.3,-1);
type = Corner;
},
{
name = _corner.serifCapLeft;
origin = (3,1);
scale = (0.6,1);
type = Corner;
}
);
layerId = m01;
shapes = (
{
closed = 1;
nodes = (
(322,0,l),
(322,1,l),
(92,700,l),
(64,700,l),
(294,0,l)
);
},
{
closed = 1;
nodes = (
(322,0,l),
(532,700,l),
(511,700,l),
(301,0,l)
);
},
{
closed = 1;
nodes = (
(742,0,l),
(742,1,l),
(532,700,l),
(511,700,l),
(509,682,l),
(714,0,l)
);
},
{
closed = 1;
nodes = (
(742,0,l),
(972,700,l),
(951,700,l),
(721,0,l)
);
}
);
width = 1036;
},
{
anchors = (
{
name = bottom;
pos = (558,0);
},
{
name = top;
pos = (558,700);
}
);
hints = (
{
name = _corner.serifCapLeft;
options = 1;
origin = (0,3);
scale = (0.6,-1);
type = Corner;
},
{
name = _corner.serifCapLeft;
origin = (0,2);
scale = (1.3,1);
type = Corner;
},
{
name = _corner.serifCapLeft;
options = 1;
origin = (3,2);
scale = (1.3,-1);
type = Corner;
},
{
name = _corner.serifCapLeft;
origin = (3,1);
scale = (0.6,1);
type = Corner;
}
);
layerId = m002;
shapes = (
{
closed = 1;
nodes = (
(355,0,l),
(390,129,l),
(202,700,l),
(64,700,l),
(294,0,l)
);
},
{
closed = 1;
nodes = (
(362,0,l),
(572,700,l),
(551,700,l),
(341,0,l)
);
},
{
closed = 1;
nodes = (
(772,0,l),
(807,129,l),
(619,700,l),
(551,700,l),
(524,568,l),
(711,0,l)
);
},
{
closed = 1;
nodes = (
(779,0,l),
(989,700,l),
(968,700,l),
(758,0,l)
);
}
);
width = 1054;
}
);
metricLeft = "=V";
metricRight = "=V";
unicode = 87;
},
{
glyphname = X;
kernLeft = X;
kernRight = X;
lastChange = "2026-04-27 07:45:33 +0000";
layers = (
{
hints = (
{
name = _corner.serifCapLeft;
options = 1;
origin = (0,0);
scale = (1,-1);
type = Corner;
},
{
name = _corner.serifCapLeft;
origin = (0,1);
type = Corner;
},
{
name = _corner.serifCapLeft;
options = 1;
origin = (0,2);
scale = (-1,1);
type = Corner;
},
{
name = _corner.serifCapLeft;
origin = (0,3);
type = Corner;
},
{
name = _corner.serifCapLeft;
origin = (2,1);
type = Corner;
},
{
name = _corner.serifCapLeft;
options = 1;
origin = (1,2);
scale = (1,-1);
type = Corner;
},
{
name = _corner.serifCapLeft;
origin = (1,1);
scale = (-1,-1);
type = Corner;
},
{
name = _corner.serifCapLeft;
options = 1;
origin = (2,2);
scale = (1,-1);
type = Corner;
}
);
layerId = m01;
shapes = (
{
closed = 1;
nodes = (
(642,0,l),
(146,700,l),
(114,700,l),
(610,0,l)
);
},
{
closed = 1;
nodes = (
(370,356,l),
(612,700,l),
(590,700,l),
(358,371,l)
);
},
{
closed = 1;
nodes = (
(358,381,l),
(84,0,l),
(106,0,l),
(370,366,l)
);
}
);
width = 727;
},
{
hints = (
{
name = _corner.serifCapLeft;
options = 1;
origin = (0,0);
scale = (1,-1);
type = Corner;
},
{
name = _corner.serifCapLeft;
origin = (0,1);
type = Corner;
},
{
name = _corner.serifCapLeft;
options = 1;
origin = (0,2);
scale = (-1,1);
type = Corner;
},
{
name = _corner.serifCapLeft;
origin = (0,3);
type = Corner;
},
{
name = _corner.serifCapLeft;
origin = (2,1);
type = Corner;
},
{
name = _corner.serifCapLeft;
options = 1;
origin = (1,2);
scale = (1,-1);
type = Corner;
},
{
name = _corner.serifCapLeft;
origin = (1,1);
scale = (-1,-1);
type = Corner;
},
{
name = _corner.serifCapLeft;
options = 1;
origin = (2,2);
scale = (1,-1);
type = Corner;
}
);
layerId = m002;
shapes = (
{
closed = 1;
nodes = (
(702,0,l),
(246,700,l),
(94,700,l),
(550,0,l)
);
},
{
closed = 1;
nodes = (
(410,346,l),
(632,700,l),
(610,700,l),
(398,361,l)
);
},
{
closed = 1;
nodes = (
(358,381,l),
(84,0,l),
(106,0,l),
(370,366,l)
);
}
);
width = 790;
}
);
metricLeft = "=V";
metricRight = "=V";
unicode = 88;
},
{
glyphname = Y;
kernLeft = Y;
kernRight = Y;
lastChange = "2026-04-27 08:25:15 +0000";
layers = (
{
anchors = (
{
name = bottom;
pos = (343,0);
},
{
name = top;
pos = (343,700);
},
{
name = topleft;
pos = (20,700);
}
);
hints = (
{
name = _corner.serifCapLeft;
options = 1;
origin = (0,2);
scale = (1.3,-1);
type = Corner;
},
{
name = _corner.serifCapLeft;
origin = (0,1);
scale = (0.7,1);
type = Corner;
},
{
name = _corner.serifCapLeft;
origin = (0,4);
scale = (1.3,1);
type = Corner;
},
{
name = _corner.serifCapLeft;
options = 1;
origin = (0,5);
scale = (0.7,-1);
type = Corner;
},
{
name = _corner.serifCapLeft;
origin = (1,3);
type = Corner;
},
{
name = _corner.serifCapLeft;
options = 2;
origin = (1,0);
scale = (-1,1);
type = Corner;
}
);
layerId = m01;
shapes = (
{
closed = 1;
nodes = (
(357,270,l),
(627,700,l),
(606,700,l),
(347,287,l),
(87,700,l),
(59,700,l),
(329,270,l)
);
},
{
closed = 1;
nodes = (
(357,0,l),
(357,270,l),
(329,270,l),
(329,0,l)
);
}
);
width = 686;
},
{
anchors = (
{
name = bottom;
pos = (343,0);
},
{
name = top;
pos = (343,700);
},
{
name = topleft;
pos = (20,700);
}
);
background = {
hints = (
{
name = _corner.serifCapLeft;
options = 1;
origin = (0,0);
scale = (1.3,-1);
type = Corner;
},
{
name = _corner.serifCapLeft;
origin = (0,3);
scale = (0.7,1);
type = Corner;
},
{
name = _corner.serifCapLeft;
origin = (1,2);
scale = (1.3,1);
type = Corner;
},
{
name = _corner.serifCapLeft;
options = 1;
origin = (1,3);
scale = (0.7,-1);
type = Corner;
},
{
name = _corner.serifCapLeft;
origin = (2,0);
type = Corner;
},
{
name = _corner.serifCapLeft;
options = 2;
origin = (2,1);
scale = (-1,1);
type = Corner;
}
);
shapes = (
{
closed = 1;
nodes = (
(606,700,l),
(336,270,l),
(357,270,l),
(627,700,l)
);
},
{
closed = 1;
nodes = (
(329,270,l),
(357,270,l),
(87,700,l),
(59,700,l)
);
},
{
closed = 1;
nodes = (
(329,0,l),
(357,0,l),
(357,270,l),
(329,270,l)
);
}
);
};
hints = (
{
name = _corner.serifCapLeft;
options = 1;
origin = (0,2);
scale = (1.3,-1);
type = Corner;
},
{
name = _corner.serifCapLeft;
origin = (0,1);
scale = (0.6,1);
type = Corner;
},
{
name = _corner.serifCapLeft;
origin = (0,4);
scale = (1.3,1);
type = Corner;
},
{
name = _corner.serifCapLeft;
options = 1;
origin = (0,5);
scale = (0.6,-1);
type = Corner;
},
{
name = _corner.serifCapLeft;
origin = (1,3);
type = Corner;
},
{
name = _corner.serifCapLeft;
options = 2;
origin = (1,0);
scale = (-1,1);
type = Corner;
}
);
layerId = m002;
shapes = (
{
closed = 1;
nodes = (
(429,270,l),
(639,700,l),
(618,700,l),
(424,303,l),
(199,700,l),
(51,700,l),
(301,270,l)
);
},
{
closed = 1;
nodes = (
(429,0,l),
(429,270,l),
(301,270,l),
(301,0,l)
);
}
);
width = 695;
},
{
anchors = (
{
name = bottom;
pos = (343,0);
},
{
name = top;
pos = (343,700);
},
{
name = topleft;
pos = (20,700);
}
);
associatedMasterId = m002;
hints = (
{
name = _corner.serifCapLeft;
options = 1;
origin = (0,0);
scale = (1.3,-1);
type = Corner;
},
{
name = _corner.serifCapLeft;
origin = (0,3);
scale = (0.7,1);
type = Corner;
},
{
name = _corner.serifCapLeft;
origin = (1,2);
scale = (1.3,1);
type = Corner;
},
{
name = _corner.serifCapLeft;
options = 1;
origin = (1,3);
scale = (0.7,-1);
type = Corner;
},
{
name = _corner.serifCapLeft;
origin = (2,0);
type = Corner;
},
{
name = _corner.serifCapLeft;
options = 2;
origin = (2,1);
scale = (-1,1);
type = Corner;
}
);
layerId = "CD70CB17-FB3A-4C36-8EAC-8A84D6FD2054";
name = "27 Apr 26 at 15.02";
shapes = (
{
closed = 1;
nodes = (
(606,700,l),
(336,270,l),
(357,270,l),
(627,700,l)
);
},
{
closed = 1;
nodes = (
(329,270,l),
(357,270,l),
(87,700,l),
(59,700,l)
);
},
{
closed = 1;
nodes = (
(329,0,l),
(357,0,l),
(357,270,l),
(329,270,l)
);
}
);
width = 686;
},
{
anchors = (
{
name = bottom;
pos = (343,0);
},
{
name = top;
pos = (343,700);
},
{
name = topleft;
pos = (20,700);
}
);
associatedMasterId = m01;
hints = (
{
name = _corner.serifCapLeft;
options = 1;
origin = (2,2);
scale = (1.3,-1);
type = Corner;
},
{
name = _corner.serifCapLeft;
origin = (2,1);
scale = (0.7,1);
type = Corner;
},
{
name = _corner.serifCapLeft;
origin = (0,2);
scale = (1.3,1);
type = Corner;
},
{
name = _corner.serifCapLeft;
options = 1;
origin = (0,3);
scale = (0.7,-1);
type = Corner;
},
{
name = _corner.serifCapLeft;
origin = (1,3);
type = Corner;
},
{
name = _corner.serifCapLeft;
options = 2;
origin = (1,0);
scale = (-1,1);
type = Corner;
}
);
layerId = "F6D54733-9C2F-434C-BF03-27A1E1A9D0DD";
name = "27 Apr 26 at 15.16";
shapes = (
{
closed = 1;
nodes = (
(357,270,l),
(354,275,l),
(87,700,l),
(59,700,l),
(329,270,l)
);
},
{
closed = 1;
nodes = (
(357,0,l),
(357,270,l),
(329,270,l),
(329,0,l)
);
},
{
closed = 1;
nodes = (
(357,270,l),
(627,700,l),
(606,700,l),
(336,270,l)
);
}
);
width = 686;
}
);
metricLeft = "=V";
metricRight = "=V";
unicode = 89;
},
{
glyphname = Z;
kernLeft = Z;
kernRight = Z;
lastChange = "2026-04-27 08:22:01 +0000";
layers = (
{
anchors = (
{
name = bottom;
pos = (300,0);
},
{
name = center;
pos = (300,350);
},
{
name = top;
pos = (300,700);
}
);
hints = (
{
name = _corner.serifCapLeft;
options = 1;
origin = (1,1);
scale = (2,-1.3);
type = Corner;
},
{
name = _corner.serifCapLeft;
options = 1;
origin = (2,3);
scale = (1.7,-1.3);
type = Corner;
}
);
layerId = m01;
shapes = (
{
closed = 1;
nodes = (
(77,16,l),
(532,684,l),
(504,684,l),
(49,16,l)
);
},
{
closed = 1;
nodes = (
(530,0,l),
(532,16,l),
(48,16,l),
(48,0,l)
);
},
{
closed = 1;
nodes = (
(532,684,l),
(532,700,l),
(80,700,l),
(78,684,l)
);
}
);
width = 600;
},
{
anchors = (
{
name = bottom;
pos = (300,0);
},
{
name = center;
pos = (300,350);
},
{
name = top;
pos = (300,700);
}
);
hints = (
{
name = _corner.serifCapLeft;
options = 1;
origin = (1,1);
scale = (2,-1.3);
type = Corner;
},
{
name = _corner.serifCapLeft;
options = 1;
origin = (2,3);
scale = (1.7,-1.3);
type = Corner;
}
);
layerId = m002;
shapes = (
{
closed = 1;
nodes = (
(192,16,l),
(562,684,l),
(419,684,l),
(49,16,l)
);
},
{
closed = 1;
nodes = (
(560,0,l),
(562,16,l),
(48,16,l),
(48,0,l)
);
},
{
closed = 1;
nodes = (
(562,684,l),
(562,700,l),
(80,700,l),
(78,684,l)
);
}
);
width = 630;
}
);
unicode = 90;
},
{
glyphname = A.ss01;
kernLeft = A.ss01;
kernRight = A.ss01;
lastChange = "2026-04-27 10:34:40 +0000";
layers = (
{
anchors = (
{
name = bottom;
pos = (345,0);
},
{
name = ogonek;
pos = (629,0);
},
{
name = top;
pos = (345,700);
}
);
hints = (
{
name = _corner.serifCapLeft;
options = 1;
origin = (0,0);
scale = (0.6,-1);
type = Corner;
},
{
name = _corner.serifCapLeft;
origin = (0,1);
scale = (1.2,1);
type = Corner;
},
{
name = _corner.serifCapLeft;
origin = (0,4);
scale = (1.3,1);
type = Corner;
},
{
name = _corner.serifCapLeft;
options = 1;
origin = (1,0);
scale = (1.3,-1);
type = Corner;
},
{
name = _corner.serifCapLeft;
options = 1;
origin = (1,2);
scale = (1,-1);
type = Corner;
},
{
name = _corner.serifCapLeft;
origin = (1,3);
scale = (0.6,1);
type = Corner;
}
);
layerId = m01;
shapes = (
{
closed = 1;
nodes = (
(629,0,l),
(359,700,l),
(331,700,l),
(331,699,l),
(601,0,l)
);
},
{
closed = 1;
nodes = (
(82,0,l),
(352,700,l),
(331,700,l),
(61,0,l)
);
},
{
closed = 1;
nodes = (
(517,242,l),
(517,258,l),
(168,258,l),
(168,242,l)
);
}
);
width = 690;
},
{
associatedMasterId = m01;
background = {
hints = (
{
name = _corner.serifCapLeft;
options = 1;
origin = (0,0);
scale = (1.3,-1);
type = Corner;
},
{
name = _corner.serifCapLeft;
options = 1;
origin = (0,2);
scale = (1,-1);
type = Corner;
},
{
name = _corner.serifCapLeft;
origin = (0,3);
scale = (0.6,1);
type = Corner;
},
{
name = _corner.serifCapLeft;
origin = (1,0);
scale = (1.2,1);
type = Corner;
},
{
name = _corner.serifCapLeft;
origin = (1,2);
scale = (1.3,1);
type = Corner;
},
{
name = _corner.serifCapLeft;
options = 1;
origin = (1,3);
scale = (0.6,-1);
type = Corner;
}
);
shapes = (
{
closed = 1;
nodes = (
(82,0,l),
(352,700,l),
(331,700,l),
(61,0,l)
);
},
{
closed = 1;
nodes = (
(359,700,l),
(331,700,l),
(601,0,l),
(629,0,l)
);
},
{
closed = 1;
nodes = (
(168,242,l),
(517,242,l),
(517,258,l),
(168,258,l)
);
}
);
};
hints = (
{
name = _corner.serifCapLeft;
origin = (0,2);
scale = (1.3,1);
type = Corner;
},
{
name = _corner.serifCapLeft;
options = 1;
origin = (0,3);
scale = (0.6,-1);
type = Corner;
},
{
name = _corner.serifCapLeft;
options = 1;
origin = (0,1);
scale = (1,-1);
type = Corner;
}
);
layerId = "1711142F-650C-487E-9235-9C19D127C159";
name = "21 Apr 26 at 14.32";
shapes = (
{
closed = 1;
nodes = (
(359,700,l),
(331,700,l),
(601,0,l),
(629,0,l)
);
},
{
closed = 1;
nodes = (
(417,502,l),
(435,202,o),
(357,-6,o),
(202,-6,cs),
(129,-6,o),
(102,43,o),
(102,124,cs),
(102,333,o),
(308,502,o),
(386,566,c),
(383,575,l),
(297,511,o),
(67,334,o),
(67,132,cs),
(67,37,o),
(117,-16,o),
(200,-16,cs),
(369,-16,o),
(448,194,o),
(426,501,c)
);
}
);
width = 690;
},
{
associatedMasterId = m01;
background = {
hints = (
{
name = _corner.serifCapLeft;
options = 1;
origin = (0,0);
scale = (1.3,-1);
type = Corner;
},
{
name = _corner.serifCapLeft;
options = 1;
origin = (0,2);
scale = (1,-1);
type = Corner;
},
{
name = _corner.serifCapLeft;
origin = (0,3);
scale = (0.6,1);
type = Corner;
},
{
name = _corner.serifCapLeft;
origin = (1,0);
scale = (1.2,1);
type = Corner;
},
{
name = _corner.serifCapLeft;
origin = (1,2);
scale = (1.3,1);
type = Corner;
},
{
name = _corner.serifCapLeft;
options = 1;
origin = (1,3);
scale = (0.6,-1);
type = Corner;
}
);
shapes = (
{
closed = 1;
nodes = (
(82,0,l),
(352,700,l),
(331,700,l),
(61,0,l)
);
},
{
closed = 1;
nodes = (
(359,700,l),
(331,700,l),
(601,0,l),
(629,0,l)
);
},
{
closed = 1;
nodes = (
(168,242,l),
(517,242,l),
(517,258,l),
(168,258,l)
);
}
);
};
hints = (
{
name = _corner.serifCapLeft;
origin = (0,2);
scale = (1.3,1);
type = Corner;
},
{
name = _corner.serifCapLeft;
options = 1;
origin = (0,3);
scale = (0.6,-1);
type = Corner;
},
{
name = _corner.serifCapLeft;
options = 1;
origin = (0,1);
scale = (1,-1);
type = Corner;
}
);
layerId = "E9D0C3CF-250B-4D4B-904C-90B81B2DF9E3";
name = "21 Apr 26 at 14.36";
shapes = (
{
closed = 1;
nodes = (
(359,700,l),
(331,700,l),
(601,0,l),
(629,0,l)
);
},
{
closed = 1;
nodes = (
(477,352,l),
(165,-1,l),
(112,39,o),
(102,93,o),
(102,174,cs),
(102,383,o),
(308,502,o),
(406,556,c),
(403,565,l),
(297,511,o),
(67,384,o),
(67,182,cs),
(67,87,o),
(97,24,o),
(170,-16,c),
(485,341,l)
);
}
);
width = 690;
},
{
anchors = (
{
name = bottom;
pos = (354,0);
},
{
name = ogonek;
pos = (638,0);
},
{
name = top;
pos = (354,700);
}
);
hints = (
{
name = _corner.serifCapLeft;
options = 1;
origin = (0,0);
scale = (0.6,-1);
type = Corner;
},
{
name = _corner.serifCapLeft;
origin = (0,1);
type = Corner;
},
{
name = _corner.serifCapLeft;
origin = (0,4);
scale = (1.3,1);
type = Corner;
},
{
name = _corner.serifCapLeft;
options = 1;
origin = (1,0);
scale = (1.3,-1);
type = Corner;
},
{
name = _corner.serifCapLeft;
options = 1;
origin = (1,2);
scale = (1,-1);
type = Corner;
},
{
name = _corner.serifCapLeft;
origin = (1,3);
scale = (0.6,1);
type = Corner;
}
);
layerId = m002;
shapes = (
{
closed = 1;
nodes = (
(688,0,l),
(408,700,l),
(350,700,l),
(306,582,l),
(540,0,l)
);
},
{
closed = 1;
nodes = (
(81,0,l),
(361,700,l),
(340,700,l),
(60,0,l)
);
},
{
closed = 1;
nodes = (
(526,242,l),
(526,258,l),
(177,258,l),
(177,242,l)
);
}
);
width = 748;
},
{
associatedMasterId = m002;
background = {
hints = (
{
name = _corner.serifCapLeft;
options = 1;
origin = (0,0);
scale = (1.3,-1);
type = Corner;
},
{
name = _corner.serifCapLeft;
options = 1;
origin = (0,2);
scale = (1,-1);
type = Corner;
},
{
name = _corner.serifCapLeft;
origin = (0,3);
scale = (0.6,1);
type = Corner;
},
{
name = _corner.serifCapLeft;
origin = (1,0);
scale = (1.2,1);
type = Corner;
},
{
name = _corner.serifCapLeft;
origin = (1,2);
scale = (1.3,1);
type = Corner;
},
{
name = _corner.serifCapLeft;
options = 1;
origin = (1,3);
scale = (0.6,-1);
type = Corner;
}
);
shapes = (
{
closed = 1;
nodes = (
(82,0,l),
(352,700,l),
(331,700,l),
(61,0,l)
);
},
{
closed = 1;
nodes = (
(359,700,l),
(331,700,l),
(601,0,l),
(629,0,l)
);
},
{
closed = 1;
nodes = (
(168,242,l),
(517,242,l),
(517,258,l),
(168,258,l)
);
}
);
};
hints = (
{
name = _corner.serifCapLeft;
origin = (0,2);
scale = (1.3,1);
type = Corner;
},
{
name = _corner.serifCapLeft;
options = 1;
origin = (0,3);
scale = (0.6,-1);
type = Corner;
},
{
name = _corner.serifCapLeft;
options = 1;
origin = (0,1);
scale = (1,-1);
type = Corner;
}
);
layerId = "E1D1C3B9-377B-462E-8861-D893AE175376";
name = "21 Apr 26 at 14.32";
shapes = (
{
closed = 1;
nodes = (
(359,700,l),
(331,700,l),
(601,0,l),
(629,0,l)
);
},
{
closed = 1;
nodes = (
(417,502,l),
(435,202,o),
(357,-6,o),
(202,-6,cs),
(129,-6,o),
(102,43,o),
(102,124,cs),
(102,333,o),
(308,502,o),
(386,566,c),
(383,575,l),
(297,511,o),
(67,334,o),
(67,132,cs),
(67,37,o),
(117,-16,o),
(200,-16,cs),
(369,-16,o),
(448,194,o),
(426,501,c)
);
}
);
width = 690;
},
{
associatedMasterId = m002;
background = {
hints = (
{
name = _corner.serifCapLeft;
options = 1;
origin = (0,0);
scale = (1.3,-1);
type = Corner;
},
{
name = _corner.serifCapLeft;
options = 1;
origin = (0,2);
scale = (1,-1);
type = Corner;
},
{
name = _corner.serifCapLeft;
origin = (0,3);
scale = (0.6,1);
type = Corner;
},
{
name = _corner.serifCapLeft;
origin = (1,0);
scale = (1.2,1);
type = Corner;
},
{
name = _corner.serifCapLeft;
origin = (1,2);
scale = (1.3,1);
type = Corner;
},
{
name = _corner.serifCapLeft;
options = 1;
origin = (1,3);
scale = (0.6,-1);
type = Corner;
}
);
shapes = (
{
closed = 1;
nodes = (
(82,0,l),
(352,700,l),
(331,700,l),
(61,0,l)
);
},
{
closed = 1;
nodes = (
(359,700,l),
(331,700,l),
(601,0,l),
(629,0,l)
);
},
{
closed = 1;
nodes = (
(168,242,l),
(517,242,l),
(517,258,l),
(168,258,l)
);
}
);
};
hints = (
{
name = _corner.serifCapLeft;
origin = (0,2);
scale = (1.3,1);
type = Corner;
},
{
name = _corner.serifCapLeft;
options = 1;
origin = (0,3);
scale = (0.6,-1);
type = Corner;
},
{
name = _corner.serifCapLeft;
options = 1;
origin = (0,1);
scale = (1,-1);
type = Corner;
}
);
layerId = "59492919-8573-40CE-A3E2-7E5FC63943F3";
name = "21 Apr 26 at 14.36";
shapes = (
{
closed = 1;
nodes = (
(359,700,l),
(331,700,l),
(601,0,l),
(629,0,l)
);
},
{
closed = 1;
nodes = (
(477,352,l),
(165,-1,l),
(112,39,o),
(102,93,o),
(102,174,cs),
(102,383,o),
(308,502,o),
(406,556,c),
(403,565,l),
(297,511,o),
(67,384,o),
(67,182,cs),
(67,87,o),
(97,24,o),
(170,-16,c),
(485,341,l)
);
}
);
width = 690;
}
);
},
{
glyphname = AE.ss01;
kernLeft = A.ss01;
kernRight = E.ss01;
lastChange = "2026-04-27 10:30:01 +0000";
layers = (
{
hints = (
{
name = _corner.serifCapLeft;
options = 1;
origin = (0,0);
scale = (1.3,-1);
type = Corner;
},
{
name = _corner.serifCapLeft;
options = 1;
origin = (0,2);
scale = (1.2,-1);
type = Corner;
},
{
name = _corner.serifCapLeft;
origin = (0,3);
scale = (0.6,1);
type = Corner;
},
{
name = _corner.serifCapLeft;
origin = (2,3);
type = Corner;
},
{
name = _corner.serifCapLeft;
options = 1;
origin = (3,1);
scale = (1.7,-1.1);
type = Corner;
},
{
name = _corner.serifCapLeft;
origin = (4,0);
type = Corner;
},
{
name = _corner.serifCapLeft;
options = 2;
origin = (4,1);
scale = (-1,1);
type = Corner;
},
{
name = _corner.serifCapLeft;
origin = (5,0);
scale = (1.5,1.1);
type = Corner;
}
);
layerId = m01;
shapes = (
{
closed = 1;
nodes = (
(74,0,l),
(454,700,l),
(433,700,l),
(53,0,l)
);
},
{
closed = 1;
nodes = (
(200,242,l),
(509,242,l),
(509,258,l),
(200,258,l)
);
},
{
closed = 1;
nodes = (
(514,0,l),
(514,700,l),
(486,700,l),
(486,0,l)
);
},
{
closed = 1;
nodes = (
(882,0,l),
(884,16,l),
(505,16,l),
(505,0,l)
);
},
{
closed = 1;
nodes = (
(794,363,l),
(794,377,l),
(505,377,l),
(505,363,l)
);
},
{
closed = 1;
nodes = (
(874,684,l),
(872,700,l),
(433,700,l),
(433,684,l)
);
}
);
width = 949;
},
{
hints = (
{
name = _corner.serifCapLeft;
options = 1;
origin = (0,0);
scale = (1.3,-1);
type = Corner;
},
{
name = _corner.serifCapLeft;
options = 1;
origin = (0,2);
scale = (1.2,-1);
type = Corner;
},
{
name = _corner.serifCapLeft;
origin = (0,3);
scale = (0.6,1);
type = Corner;
},
{
name = _corner.serifCapLeft;
origin = (2,3);
type = Corner;
},
{
name = _corner.serifCapLeft;
options = 1;
origin = (3,1);
scale = (1.7,-1.1);
type = Corner;
},
{
name = _corner.serifCapLeft;
origin = (4,0);
type = Corner;
},
{
name = _corner.serifCapLeft;
options = 2;
origin = (4,1);
scale = (-1,1);
type = Corner;
},
{
name = _corner.serifCapLeft;
origin = (5,0);
scale = (1.5,1.1);
type = Corner;
}
);
layerId = m002;
shapes = (
{
closed = 1;
nodes = (
(74,0,l),
(454,700,l),
(433,700,l),
(53,0,l)
);
},
{
closed = 1;
nodes = (
(200,242,l),
(509,242,l),
(509,258,l),
(200,258,l)
);
},
{
closed = 1;
nodes = (
(514,0,l),
(514,700,l),
(486,700,l),
(486,0,l)
);
},
{
closed = 1;
nodes = (
(874,0,l),
(884,106,l),
(505,106,l),
(505,0,l)
);
},
{
closed = 1;
nodes = (
(794,363,l),
(794,377,l),
(505,377,l),
(505,363,l)
);
},
{
closed = 1;
nodes = (
(874,594,l),
(864,700,l),
(433,700,l),
(383,594,l)
);
}
);
width = 961;
}
);
metricLeft = "=A.ss01";
metricRight = "=E.ss01";
},
{
glyphname = E.ss01;
kernLeft = H;
kernRight = E.ss01;
lastChange = "2026-04-27 09:28:40 +0000";
layers = (
{
anchors = (
{
name = bottom;
pos = (294,0);
},
{
name = ogonek;
pos = (520,0);
},
{
name = top;
pos = (304,700);
},
{
name = topleft;
pos = (20,700);
}
);
hints = (
{
name = _corner.serifCapLeft;
options = 1;
origin = (0,2);
scale = (1,-1);
type = Corner;
},
{
name = _corner.serifCapLeft;
origin = (0,3);
type = Corner;
},
{
name = _corner.serifCapLeft;
options = 1;
origin = (1,1);
scale = (1.7,-1.1);
type = Corner;
},
{
name = _corner.serifCapLeft;
origin = (2,0);
type = Corner;
},
{
name = _corner.serifCapLeft;
options = 2;
origin = (2,1);
scale = (-1,1);
type = Corner;
},
{
name = _corner.serifCapLeft;
origin = (3,0);
scale = (1.5,1.1);
type = Corner;
}
);
layerId = m01;
shapes = (
{
closed = 1;
nodes = (
(152,0,l),
(152,700,l),
(124,700,l),
(124,0,l)
);
},
{
closed = 1;
nodes = (
(520,0,l),
(522,16,l),
(143,16,l),
(143,0,l)
);
},
{
closed = 1;
nodes = (
(432,363,l),
(432,377,l),
(143,377,l),
(143,363,l)
);
},
{
closed = 1;
nodes = (
(512,684,l),
(510,700,l),
(143,700,l),
(143,684,l)
);
}
);
width = 587;
},
{
anchors = (
{
name = bottom;
pos = (294,0);
},
{
name = ogonek;
pos = (520,0);
},
{
name = top;
pos = (304,700);
},
{
name = topleft;
pos = (20,700);
}
);
hints = (
{
name = _corner.serifCapLeft;
options = 1;
origin = (0,2);
scale = (1,-1);
type = Corner;
},
{
name = _corner.serifCapLeft;
origin = (0,3);
type = Corner;
},
{
name = _corner.serifCapLeft;
options = 1;
origin = (1,1);
scale = (1.7,-1.1);
type = Corner;
},
{
name = _corner.serifCapLeft;
origin = (2,0);
type = Corner;
},
{
name = _corner.serifCapLeft;
options = 2;
origin = (2,1);
scale = (-1,1);
type = Corner;
},
{
name = _corner.serifCapLeft;
origin = (3,0);
scale = (1.5,1.1);
type = Corner;
}
);
layerId = m002;
shapes = (
{
closed = 1;
nodes = (
(152,0,l),
(152,700,l),
(124,700,l),
(124,0,l)
);
},
{
closed = 1;
nodes = (
(520,0,l),
(522,96,l),
(143,96,l),
(143,0,l)
);
},
{
closed = 1;
nodes = (
(432,363,l),
(432,377,l),
(143,377,l),
(143,363,l)
);
},
{
closed = 1;
nodes = (
(512,604,l),
(510,700,l),
(143,700,l),
(143,604,l)
);
}
);
width = 587;
}
);
metricLeft = "=H";
},
{
glyphname = F.ss01;
kernLeft = H;
kernRight = F.ss01;
lastChange = "2026-04-27 10:35:29 +0000";
layers = (
{
anchors = (
{
name = bottom;
pos = (280,0);
},
{
name = top;
pos = (280,700);
}
);
hints = (
{
name = _corner.serifCapLeft;
options = 1;
origin = (0,3);
scale = (1,-1);
type = Corner;
},
{
name = _corner.serifCapLeft;
origin = (1,0);
type = Corner;
},
{
name = _corner.serifCapLeft;
options = 2;
origin = (1,1);
scale = (-1,1);
type = Corner;
},
{
name = _corner.serifCapLeft;
origin = (2,0);
scale = (1.5,1.1);
type = Corner;
}
);
layerId = m01;
shapes = (
{
closed = 1;
nodes = (
(139,-130,l),
(152,80,l),
(152,700,l),
(124,700,l),
(124,-130,l)
);
},
{
closed = 1;
nodes = (
(452,263,l),
(452,277,l),
(143,277,l),
(143,263,l)
);
},
{
closed = 1;
nodes = (
(512,684,l),
(510,700,l),
(143,700,l),
(143,684,l)
);
}
);
width = 560;
},
{
anchors = (
{
name = bottom;
pos = (280,0);
},
{
name = top;
pos = (280,700);
}
);
hints = (
{
name = _corner.serifCapLeft;
options = 1;
origin = (0,3);
scale = (1,-1);
type = Corner;
},
{
name = _corner.serifCapLeft;
origin = (1,0);
type = Corner;
},
{
name = _corner.serifCapLeft;
options = 2;
origin = (1,1);
scale = (-1,1);
type = Corner;
},
{
name = _corner.serifCapLeft;
origin = (2,0);
scale = (1.5,1.1);
type = Corner;
}
);
layerId = m002;
shapes = (
{
closed = 1;
nodes = (
(139,-130,l),
(152,80,l),
(152,700,l),
(124,700,l),
(124,-130,l)
);
},
{
closed = 1;
nodes = (
(452,263,l),
(452,277,l),
(143,277,l),
(143,263,l)
);
},
{
closed = 1;
nodes = (
(512,594,l),
(502,700,l),
(143,700,l),
(143,594,l)
);
}
);
width = 560;
}
);
metricLeft = "=F";
},
{
glyphname = H.ss01;
kernLeft = H;
kernRight = H.ss01;
lastChange = "2026-04-27 09:59:06 +0000";
layers = (
{
hints = (
{
name = _corner.serifCapLeft;
options = 1;
origin = (1,0);
scale = (1,-1);
type = Corner;
},
{
name = _corner.serifCapLeft;
options = 1;
origin = (1,2);
scale = (1,-1);
type = Corner;
},
{
name = _corner.serifCapLeft;
origin = (1,3);
type = Corner;
}
);
layerId = m01;
shapes = (
{
closed = 1;
nodes = (
(699,0,l),
(699,12,l),
(468,26,l),
(440,3,l),
(560,72,o),
(667,228,o),
(667,379,cs),
(667,540,o),
(552,646,o),
(402,646,cs),
(245,646,o),
(139,526,o),
(143,328,c),
(152,328,l),
(152,518,o),
(253,632,o),
(402,632,cs),
(536,632,o),
(632,532,o),
(632,379,cs),
(632,236,o),
(549,82,o),
(434,12,c),
(434,0,l)
);
},
{
closed = 1;
nodes = (
(152,0,l),
(152,700,l),
(124,700,l),
(124,0,l)
);
}
);
width = 724;
},
{
background = {
shapes = (
{
closed = 1;
nodes = (
(560,72,o),
(667,228,o),
(667,379,cs),
(667,540,o),
(552,646,o),
(402,646,cs),
(245,646,o),
(139,526,o),
(143,328,c),
(152,328,l),
(152,518,o),
(253,632,o),
(402,632,cs),
(536,632,o),
(632,532,o),
(632,379,cs),
(632,236,o),
(549,82,o),
(434,12,c),
(434,0,l),
(699,0,l),
(699,12,l),
(468,26,l),
(440,3,l)
);
}
);
};
hints = (
{
name = _corner.serifCapLeft;
options = 1;
origin = (1,0);
scale = (1,-1);
type = Corner;
},
{
name = _corner.serifCapLeft;
options = 1;
origin = (1,2);
scale = (1,-1);
type = Corner;
},
{
name = _corner.serifCapLeft;
origin = (1,3);
type = Corner;
}
);
layerId = m002;
shapes = (
{
closed = 1;
nodes = (
(699,0,l),
(699,12,l),
(468,26,l),
(450,2,l),
(570,71,o),
(697,217,o),
(697,376,cs),
(697,549,o),
(552,645,o),
(402,645,cs),
(245,645,o),
(139,535,o),
(143,277,c),
(152,277,l),
(152,527,o),
(273,631,o),
(389,631,cs),
(506,631,o),
(542,541,o),
(542,424,cs),
(542,235,o),
(459,81,o),
(344,11,c),
(344,0,l)
);
},
{
closed = 1;
nodes = (
(152,0,l),
(152,700,l),
(124,700,l),
(124,0,l)
);
}
);
width = 734;
}
);
metricLeft = "=H";
metricRight = "=|";
},
{
glyphname = M.ss01;
kernLeft = H;
kernRight = H;
lastChange = "2026-04-27 10:42:33 +0000";
layers = (
{
hints = (
{
name = _corner.serifCapLeft;
options = 1;
origin = (1,0);
scale = (1,-1);
type = Corner;
},
{
name = _corner.serifCapLeft;
options = 1;
origin = (1,2);
scale = (1,-1);
type = Corner;
},
{
name = _corner.serifCapLeft;
origin = (1,3);
type = Corner;
},
{
name = _corner.serifCapLeft;
options = 1;
origin = (3,0);
scale = (1,-1);
type = Corner;
},
{
name = _corner.serifCapLeft;
origin = (3,1);
type = Corner;
},
{
name = _corner.serifCapLeft;
origin = (3,3);
type = Corner;
}
);
layerId = m01;
shapes = (
{
closed = 1;
nodes = (
(452,0,l),
(451,2,l),
(154,700,l),
(142,700,l),
(127,692,l),
(422,0,l)
);
},
{
closed = 1;
nodes = (
(142,0,l),
(142,700,l),
(124,700,l),
(124,0,l)
);
},
{
closed = 1;
nodes = (
(452,0,l),
(752,700,l),
(731,700,l),
(431,0,l)
);
},
{
closed = 1;
nodes = (
(759,0,l),
(759,700,l),
(731,700,l),
(731,0,l)
);
}
);
width = 883;
},
{
background = {
hints = (
{
name = _corner.serifCapLeft;
options = 1;
origin = (0,0);
scale = (1,-1);
type = Corner;
},
{
name = _corner.serifCapLeft;
options = 1;
origin = (0,2);
scale = (1,-1);
type = Corner;
},
{
name = _corner.serifCapLeft;
origin = (0,3);
type = Corner;
},
{
name = _corner.serifCapLeft;
options = 1;
origin = (1,0);
scale = (1,-1);
type = Corner;
},
{
name = _corner.serifCapLeft;
origin = (1,1);
type = Corner;
},
{
name = _corner.serifCapLeft;
origin = (1,3);
type = Corner;
}
);
shapes = (
{
closed = 1;
nodes = (
(144,0,l),
(144,700,l),
(126,700,l),
(126,0,l)
);
},
{
closed = 1;
nodes = (
(761,0,l),
(761,700,l),
(733,700,l),
(733,0,l)
);
},
{
closed = 1;
nodes = (
(733,700,l),
(433,0,l),
(454,0,l),
(754,700,l)
);
},
{
closed = 1;
nodes = (
(424,0,l),
(454,0,l),
(156,700,l),
(126,700,l)
);
}
);
};
hints = (
{
name = _corner.serifCapLeft;
options = 1;
origin = (1,0);
scale = (1,-1);
type = Corner;
},
{
name = _corner.serifCapLeft;
options = 1;
origin = (1,2);
scale = (1,-1);
type = Corner;
},
{
name = _corner.serifCapLeft;
origin = (1,3);
type = Corner;
},
{
name = _corner.serifCapLeft;
options = 1;
origin = (3,0);
scale = (1,-1);
type = Corner;
},
{
name = _corner.serifCapLeft;
origin = (3,1);
scale = (0.6,1);
type = Corner;
},
{
name = _corner.serifCapLeft;
origin = (3,3);
type = Corner;
}
);
layerId = m002;
shapes = (
{
closed = 1;
nodes = (
(451,0,l),
(495,118,l),
(271,700,l),
(141,700,l),
(128,689,l),
(393,0,l)
);
},
{
closed = 1;
nodes = (
(141,0,l),
(141,700,l),
(124,700,l),
(124,0,l)
);
},
{
closed = 1;
nodes = (
(461,0,l),
(731,700,l),
(710,700,l),
(440,0,l)
);
},
{
closed = 1;
nodes = (
(838,0,l),
(838,700,l),
(710,700,l),
(710,0,l)
);
}
);
width = 962;
}
);
metricLeft = "=H";
metricRight = "=H";
},
{
glyphname = OE.ss01;
kernLeft = O;
kernRight = E.ss01;
lastChange = "2026-04-27 10:25:09 +0000";
layers = (
{
hints = (
{
name = _corner.serifCapLeft;
options = 1;
origin = (2,1);
scale = (1.7,-1.1);
type = Corner;
},
{
name = _corner.serifCapLeft;
origin = (3,0);
type = Corner;
},
{
name = _corner.serifCapLeft;
options = 2;
origin = (3,1);
scale = (-1,1);
type = Corner;
},
{
name = _corner.serifCapLeft;
origin = (4,0);
scale = (1.5,1.1);
type = Corner;
}
);
layerId = m01;
shapes = (
{
closed = 1;
nodes = (
(503,21,l),
(469,7,o),
(431,1,o),
(391,1,cs),
(216,1,o),
(90,134,o),
(90,351,cs),
(90,567,o),
(216,699,o),
(391,699,cs),
(432,699,o),
(470,692,o),
(504,678,c),
(534,700,l),
(472,700,o),
(455,716,o),
(391,716,cs),
(194,716,o),
(55,565,o),
(55,351,cs),
(55,136,o),
(194,-16,o),
(391,-16,cs),
(453,-16,o),
(501,0,o),
(528,0,c)
);
},
{
closed = 1;
nodes = (
(519,0,l),
(519,700,l),
(491,700,l),
(442,709,l),
(391,699,l),
(430,699,o),
(492,687,o),
(491,652,c),
(491,48,l),
(491,21,o),
(457,1,o),
(391,1,c),
(391,-12,l),
(491,0,l)
);
},
{
closed = 1;
nodes = (
(887,0,l),
(889,16,l),
(510,16,l),
(510,0,l)
);
},
{
closed = 1;
nodes = (
(799,363,l),
(799,377,l),
(510,377,l),
(510,363,l)
);
},
{
closed = 1;
nodes = (
(879,684,l),
(877,700,l),
(510,700,l),
(510,684,l)
);
}
);
width = 954;
},
{
associatedMasterId = m01;
hints = (
{
name = _corner.serifCapLeft;
options = 1;
origin = (0,7);
scale = (1.7,-1.1);
type = Corner;
},
{
name = _corner.serifCapLeft;
origin = (2,0);
type = Corner;
},
{
name = _corner.serifCapLeft;
options = 2;
origin = (2,1);
scale = (-1,1);
type = Corner;
},
{
name = _corner.serifCapLeft;
origin = (0,15);
scale = (1.5,1.1);
type = Corner;
},
{
name = _corner.serifCapLeft;
options = 1;
origin = (1,2);
scale = (1.1,-1);
type = Corner;
},
{
name = _corner.serifCapLeft;
origin = (1,3);
scale = (1.1,1);
type = Corner;
}
);
layerId = "22127ACD-2BA5-414E-AA87-6F8F2B6392A7";
name = "24 Apr 26 at 15.02";
shapes = (
{
closed = 1;
nodes = (
(194,700,o),
(55,565,o),
(55,351,cs),
(55,136,o),
(194,0,o),
(391,0,cs),
(843,0,l),
(845,16,l),
(391,16,ls),
(216,16,o),
(90,134,o),
(90,351,cs),
(90,567,o),
(216,684,o),
(391,684,cs),
(835,684,l),
(833,700,l),
(391,700,ls)
);
},
{
closed = 1;
nodes = (
(495,0,l),
(495,700,l),
(467,700,l),
(467,0,l)
);
},
{
closed = 1;
nodes = (
(755,363,l),
(755,377,l),
(486,377,l),
(486,363,l)
);
}
);
width = 910;
},
{
background = {
shapes = (
{
ref = O;
}
);
};
hints = (
{
name = _corner.serifCapLeft;
options = 1;
origin = (2,1);
scale = (1.7,-1.1);
type = Corner;
},
{
name = _corner.serifCapLeft;
origin = (3,0);
type = Corner;
},
{
name = _corner.serifCapLeft;
options = 2;
origin = (3,1);
scale = (-1,1);
type = Corner;
},
{
name = _corner.serifCapLeft;
origin = (4,0);
scale = (1.5,1.1);
type = Corner;
}
);
layerId = m002;
shapes = (
{
closed = 1;
nodes = (
(503,21,l),
(469,7,o),
(431,1,o),
(391,1,cs),
(296,1,o),
(210,54,o),
(210,351,cs),
(210,627,o),
(286,699,o),
(391,699,cs),
(432,699,o),
(470,692,o),
(504,678,c),
(534,700,l),
(472,700,o),
(455,716,o),
(391,716,cs),
(194,716,o),
(55,565,o),
(55,351,cs),
(55,136,o),
(194,-16,o),
(391,-16,cs),
(453,-16,o),
(501,0,o),
(528,0,c)
);
},
{
closed = 1;
nodes = (
(519,0,l),
(519,700,l),
(491,700,l),
(442,709,l),
(391,699,l),
(430,699,o),
(492,687,o),
(491,652,c),
(491,48,l),
(491,21,o),
(457,1,o),
(391,1,c),
(391,-12,l),
(491,0,l)
);
},
{
closed = 1;
nodes = (
(879,0,l),
(889,106,l),
(510,106,l),
(510,0,l)
);
},
{
closed = 1;
nodes = (
(799,363,l),
(799,377,l),
(510,377,l),
(510,363,l)
);
},
{
closed = 1;
nodes = (
(879,594,l),
(869,700,l),
(510,700,l),
(510,594,l)
);
}
);
width = 966;
},
{
associatedMasterId = m002;
hints = (
{
name = _corner.serifCapLeft;
options = 1;
origin = (0,7);
scale = (1.7,-1.1);
type = Corner;
},
{
name = _corner.serifCapLeft;
origin = (2,0);
type = Corner;
},
{
name = _corner.serifCapLeft;
options = 2;
origin = (2,1);
scale = (-1,1);
type = Corner;
},
{
name = _corner.serifCapLeft;
origin = (0,15);
scale = (1.5,1.1);
type = Corner;
},
{
name = _corner.serifCapLeft;
options = 1;
origin = (1,2);
scale = (1.1,-1);
type = Corner;
},
{
name = _corner.serifCapLeft;
origin = (1,3);
scale = (1.1,1);
type = Corner;
}
);
layerId = "296CC577-A62C-4F34-BA1C-F9BCEE0AD0E4";
name = "24 Apr 26 at 15.02";
shapes = (
{
closed = 1;
nodes = (
(194,700,o),
(55,565,o),
(55,351,cs),
(55,136,o),
(194,0,o),
(391,0,cs),
(843,0,l),
(845,16,l),
(391,16,ls),
(216,16,o),
(90,134,o),
(90,351,cs),
(90,567,o),
(216,684,o),
(391,684,cs),
(835,684,l),
(833,700,l),
(391,700,ls)
);
},
{
closed = 1;
nodes = (
(495,0,l),
(495,700,l),
(467,700,l),
(467,0,l)
);
},
{
closed = 1;
nodes = (
(755,363,l),
(755,377,l),
(486,377,l),
(486,363,l)
);
}
);
width = 910;
}
);
metricLeft = "=O";
metricRight = "=E.ss01";
},
{
glyphname = R.ss01;
kernLeft = H;
kernRight = R;
lastChange = "2026-04-27 09:04:36 +0000";
layers = (
{
anchors = (
{
name = bottom;
pos = (325,0);
},
{
name = top;
pos = (305,700);
}
);
background = {
hints = (
{
name = _corner.serifCapLeft;
options = 1;
origin = (1,0);
scale = (1,-1);
type = Corner;
},
{
name = _corner.serifCapLeft;
options = 1;
origin = (1,2);
scale = (1,-1);
type = Corner;
},
{
name = _corner.serifCapLeft;
origin = (1,3);
type = Corner;
}
);
shapes = (
{
closed = 1;
nodes = (
(382,333,ls),
(501,333,o),
(576,404,o),
(576,516,cs),
(576,629,o),
(501,700,o),
(382,700,cs),
(143,700,l),
(143,684,l),
(382,684,ls),
(480,684,o),
(541,619,o),
(541,516,cs),
(541,412,o),
(480,349,o),
(382,349,cs),
(143,349,l),
(143,333,l)
);
},
{
closed = 1;
nodes = (
(152,0,l),
(152,700,l),
(124,700,l),
(124,0,l)
);
},
{
closed = 1;
nodes = (
(599,-111,l),
(614,-111,l),
(392,345,l),
(357,345,l)
);
}
);
};
hints = (
{
name = _corner.serifCapLeft;
options = 1;
origin = (1,2);
scale = (1,-1);
type = Corner;
}
);
layerId = m01;
shapes = (
{
closed = 1;
nodes = (
(382,333,ls),
(501,333,o),
(576,404,o),
(576,516,cs),
(576,629,o),
(501,700,o),
(382,700,cs),
(143,700,l),
(143,684,l),
(382,684,ls),
(480,684,o),
(541,619,o),
(541,516,cs),
(541,412,o),
(480,349,o),
(382,349,cs),
(143,349,l),
(143,333,l)
);
},
{
closed = 1;
nodes = (
(152,-100,l),
(152,700,l),
(124,700,l),
(124,-100,l)
);
},
{
closed = 1;
nodes = (
(589,0,l),
(390,345,l),
(350,345,l),
(574,0,l)
);
}
);
width = 610;
},
{
anchors = (
{
name = bottom;
pos = (325,0);
},
{
name = top;
pos = (305,700);
}
);
background = {
anchors = (
{
name = bottom;
pos = (360,0);
},
{
name = top;
pos = (310,700);
}
);
hints = (
{
name = _corner.serifCapLeft;
options = 1;
origin = (1,0);
scale = (1,-1);
type = Corner;
},
{
name = _corner.serifCapLeft;
options = 1;
origin = (1,2);
scale = (1,-1);
type = Corner;
},
{
name = _corner.serifCapLeft;
origin = (1,3);
type = Corner;
},
{
name = _corner.serifCapLeft;
options = 1;
origin = (1,2);
scale = (1,-1);
type = Corner;
},
{
name = _corner.serifCapLeft;
origin = (1,3);
type = Corner;
},
{
name = _corner.serifCapLeft;
options = 1;
origin = (1,0);
scale = (1,-1);
type = Corner;
}
);
shapes = (
{
closed = 1;
nodes = (
(382,333,ls),
(501,333,o),
(576,404,o),
(576,516,cs),
(576,629,o),
(501,700,o),
(382,700,cs),
(143,700,l),
(143,684,l),
(382,684,ls),
(480,684,o),
(541,619,o),
(541,516,cs),
(541,412,o),
(480,349,o),
(382,349,cs),
(143,349,l),
(143,333,l)
);
},
{
closed = 1;
nodes = (
(152,0,l),
(152,700,l),
(124,700,l),
(124,0,l)
);
},
{
closed = 1;
nodes = (
(599,-111,l),
(614,-111,l),
(392,345,l),
(357,345,l)
);
},
{
closed = 1;
nodes = (
(392,333,ls),
(511,333,o),
(586,404,o),
(586,516,cs),
(586,629,o),
(511,700,o),
(392,700,cs),
(143,700,l),
(143,684,l),
(277,684,ls),
(375,684,o),
(431,619,o),
(431,516,cs),
(431,412,o),
(375,349,o),
(277,349,cs),
(143,349,l),
(143,333,l)
);
},
{
closed = 1;
nodes = (
(152,0,l),
(152,700,l),
(124,700,l),
(124,0,l)
);
},
{
closed = 1;
nodes = (
(599,-111,l),
(614,-111,l),
(392,345,l),
(357,345,l)
);
}
);
};
hints = (
{
name = _corner.serifCapLeft;
options = 1;
origin = (1,2);
scale = (1,-1);
type = Corner;
}
);
layerId = m002;
shapes = (
{
closed = 1;
nodes = (
(392,333,ls),
(511,333,o),
(586,404,o),
(586,516,cs),
(586,629,o),
(511,700,o),
(392,700,cs),
(143,700,l),
(143,684,l),
(277,684,ls),
(375,684,o),
(431,619,o),
(431,516,cs),
(431,412,o),
(375,349,o),
(277,349,cs),
(143,349,l),
(143,333,l)
);
},
{
closed = 1;
nodes = (
(152,-100,l),
(152,700,l),
(124,700,l),
(124,-100,l)
);
},
{
closed = 1;
nodes = (
(589,0,l),
(390,345,l),
(350,345,l),
(574,0,l)
);
}
);
width = 610;
}
);
metricLeft = "=H";
},
{
glyphname = T.ss01;
kernLeft = T.ss01;
kernRight = T.ss01;
lastChange = "2026-04-27 09:29:56 +0000";
layers = (
{
anchors = (
{
name = bottom;
pos = (303,0);
},
{
name = center;
pos = (303,350);
},
{
name = top;
pos = (303,700);
}
);
hints = (
{
name = _corner.serifCapLeft;
origin = (0,3);
type = Corner;
},
{
name = _corner.serifCapLeft;
origin = (2,0);
scale = (1.7,1);
type = Corner;
},
{
name = _corner.serifCapLeft;
options = 1;
origin = (0,0);
scale = (1,-1);
type = Corner;
},
{
name = _corner.serifCapLeft;
options = 1;
origin = (1,3);
scale = (1.7,-1);
type = Corner;
}
);
layerId = m01;
shapes = (
{
closed = 1;
nodes = (
(317,0,l),
(317,700,l),
(289,700,l),
(289,0,l)
);
},
{
closed = 1;
nodes = (
(298,684,l),
(298,700,l),
(41,700,l),
(39,684,l)
);
},
{
closed = 1;
nodes = (
(567,684,l),
(565,700,l),
(308,700,l),
(308,684,l)
);
}
);
width = 606;
},
{
anchors = (
{
name = bottom;
pos = (303,0);
},
{
name = center;
pos = (303,350);
},
{
name = top;
pos = (303,700);
}
);
hints = (
{
name = _corner.serifCapLeft;
origin = (0,3);
type = Corner;
},
{
name = _corner.serifCapLeft;
origin = (2,0);
scale = (1.7,1);
type = Corner;
},
{
name = _corner.serifCapLeft;
options = 1;
origin = (0,0);
scale = (1,-1);
type = Corner;
},
{
name = _corner.serifCapLeft;
options = 1;
origin = (1,3);
scale = (1.7,-1);
type = Corner;
}
);
layerId = m002;
shapes = (
{
closed = 1;
nodes = (
(317,0,l),
(317,700,l),
(289,700,l),
(289,0,l)
);
},
{
closed = 1;
nodes = (
(298,594,l),
(298,700,l),
(41,700,l),
(39,594,l)
);
},
{
closed = 1;
nodes = (
(567,594,l),
(565,700,l),
(308,700,l),
(308,594,l)
);
}
);
width = 606;
}
);
metricRight = "=|";
},
{
glyphname = a;
kernLeft = a;
kernRight = a;
lastChange = "2026-04-27 07:30:54 +0000";
layers = (
{
anchors = (
{
name = bottom;
pos = (312,0);
},
{
name = ogonek;
pos = (570,0);
},
{
name = top;
pos = (262,500);
}
);
hints = (
{
name = _corner.serifLeft;
options = 1;
origin = (1,0);
scale = (1,-1);
type = Corner;
}
);
layerId = m01;
shapes = (
{
closed = 1;
nodes = (
(399,-16,o),
(442,147,o),
(400,264,c),
(394,260,l),
(432,150,o),
(387,-6,o),
(232,-6,cs),
(129,-6,o),
(87,63,o),
(87,144,cs),
(87,283,o),
(224,333,o),
(367,356,c),
(364,365,l),
(213,342,o),
(57,284,o),
(57,144,cs),
(57,57,o),
(117,-16,o),
(230,-16,cs)
);
},
{
closed = 1;
nodes = (
(512,0,l),
(332,500,l),
(307,500,l),
(487,0,l)
);
},
{
closed = 1;
nodes = (
(332,500,l),
(187,500,l),
(187,490,l),
(332,480,l)
);
}
);
width = 623;
},
{
associatedMasterId = m01;
hints = (
{
name = _corner.serifLeft;
options = 1;
origin = (0,0);
scale = (1,-1);
type = Corner;
}
);
layerId = "3A269B5B-6826-4A34-829F-E68F2560C6DB";
name = "20 Apr 26 at 13.59";
shapes = (
{
closed = 1;
nodes = (
(439,0,l),
(439,500,l),
(414,500,l),
(414,0,l)
);
},
{
closed = 1;
nodes = (
(90,490,l),
(414,480,l),
(414,500,l),
(90,500,l)
);
},
{
closed = 1;
nodes = (
(414,480,l),
(400,361,o),
(52,323,o),
(52,133,cs),
(52,67,o),
(95,-16,o),
(223,-16,cs),
(358,-16,o),
(424,101,o),
(424,236,c),
(414,236,l),
(414,87,o),
(342,-6,o),
(223,-6,cs),
(114,-6,o),
(82,73,o),
(82,133,cs),
(82,317,o),
(369,335,o),
(414,458,c)
);
}
);
width = 600;
},
{
associatedMasterId = m01;
hints = (
{
name = _corner.serifLeft;
options = 1;
origin = (0,0);
scale = (1,-1);
type = Corner;
}
);
layerId = "51D7168D-8C54-46F6-A2A8-F23017312B02";
name = "20 Apr 26 at 14.11";
shapes = (
{
closed = 1;
nodes = (
(477,0,l),
(357,500,l),
(332,500,l),
(452,0,l)
);
},
{
closed = 1;
nodes = (
(397,230,l),
(418,113,o),
(346,-6,o),
(214,-6,cs),
(112,-6,o),
(80,63,o),
(80,134,cs),
(80,273,o),
(207,323,o),
(370,346,c),
(367,355,l),
(196,332,o),
(50,274,o),
(50,134,cs),
(50,57,o),
(100,-16,o),
(214,-16,cs),
(358,-16,o),
(428,110,o),
(403,234,c)
);
}
);
width = 608;
},
{
associatedMasterId = m01;
hints = (
{
name = _corner.serifLeft;
options = 1;
origin = (0,0);
scale = (1,-1);
type = Corner;
}
);
layerId = "CF918641-8244-43B6-A197-1BC173F1004D";
name = "21 Apr 26 at 14.34";
shapes = (
{
closed = 1;
nodes = (
(512,0,l),
(332,500,l),
(307,500,l),
(487,0,l)
);
},
{
closed = 1;
nodes = (
(394,260,l),
(432,150,o),
(387,-6,o),
(232,-6,cs),
(129,-6,o),
(87,63,o),
(87,144,cs),
(87,283,o),
(224,333,o),
(367,356,c),
(364,365,l),
(213,342,o),
(57,284,o),
(57,144,cs),
(57,57,o),
(117,-16,o),
(230,-16,cs),
(399,-16,o),
(442,147,o),
(400,264,c)
);
},
{
closed = 1;
nodes = (
(187,490,l),
(332,480,l),
(332,500,l),
(187,500,l)
);
}
);
width = 623;
},
{
associatedMasterId = m01;
hints = (
{
name = _corner.serifLeft;
options = 1;
origin = (0,0);
scale = (1,-1);
type = Corner;
}
);
layerId = "9940A59C-DF36-47FC-979A-BE53F994ED90";
name = "21 Apr 26 at 14.36";
shapes = (
{
closed = 1;
nodes = (
(512,0,l),
(332,500,l),
(307,500,l),
(487,0,l)
);
},
{
closed = 1;
nodes = (
(391,301,l),
(224,-3,l),
(129,7,o),
(87,63,o),
(87,144,cs),
(87,283,o),
(224,333,o),
(367,356,c),
(364,365,l),
(213,342,o),
(57,284,o),
(57,144,cs),
(57,57,o),
(117,-16,o),
(230,-16,c),
(395,285,l)
);
},
{
closed = 1;
nodes = (
(187,490,l),
(332,480,l),
(332,500,l),
(187,500,l)
);
}
);
width = 623;
},
{
anchors = (
{
name = bottom;
pos = (312,0);
},
{
name = ogonek;
pos = (570,0);
},
{
name = top;
pos = (262,500);
}
);
hints = (
{
name = _corner.serifLeft;
options = 1;
origin = (1,0);
scale = (1,-1);
type = Corner;
}
);
layerId = m002;
shapes = (
{
closed = 1;
nodes = (
(399,-16,o),
(425,147,o),
(390,264,c),
(380,260,l),
(417,150,o),
(387,14,o),
(278,14,cs),
(209,14,o),
(187,63,o),
(187,144,cs),
(187,273,o),
(262,352,o),
(367,357,c),
(364,365,l),
(193,352,o),
(47,284,o),
(47,144,cs),
(47,57,o),
(107,-16,o),
(220,-16,cs)
);
},
{
closed = 1;
nodes = (
(498,0,l),
(318,500,l),
(293,500,l),
(473,0,l)
);
},
{
closed = 1;
nodes = (
(318,500,l),
(173,500,l),
(173,490,l),
(318,480,l)
);
}
);
width = 609;
}
);
unicode = 97;
},
{
glyphname = ae;
kernLeft = a;
kernRight = e;
lastChange = "2026-04-27 09:06:11 +0000";
layers = (
{
layerId = m01;
shapes = (
{
closed = 1;
nodes = (
(712,-16,o),
(782,28,o),
(824,97,c),
(816,101,l),
(778,37,o),
(705,-6,o),
(631,-6,cs),
(515,-6,o),
(435,98,o),
(435,251,cs),
(435,401,o),
(515,506,o),
(626,506,cs),
(696,506,o),
(756,464,o),
(756,391,cs),
(756,343,o),
(729,297,o),
(672,285,c),
(672,282,l),
(734,290,o),
(782,329,o),
(782,391,cs),
(782,468,o),
(709,516,o),
(626,516,cs),
(500,516,o),
(405,407,o),
(405,251,cs),
(405,94,o),
(501,-16,o),
(631,-16,cs)
);
},
{
closed = 1;
nodes = (
(399,-16,o),
(442,147,o),
(400,264,c),
(394,260,l),
(432,150,o),
(387,-6,o),
(232,-6,cs),
(129,-6,o),
(87,63,o),
(87,144,cs),
(87,283,o),
(224,333,o),
(367,356,c),
(364,365,l),
(213,342,o),
(57,284,o),
(57,144,cs),
(57,57,o),
(117,-16,o),
(230,-16,cs)
);
},
{
closed = 1;
nodes = (
(428,232,l),
(332,500,l),
(307,500,l),
(403,232,l)
);
},
{
closed = 1;
nodes = (
(332,500,l),
(187,500,l),
(187,490,l),
(332,480,l)
);
},
{
closed = 1;
nodes = (
(852,270,l),
(852,290,l),
(419,280,l),
(419,270,l)
);
}
);
width = 872;
},
{
background = {
shapes = (
{
closed = 1;
nodes = (
(418,232,l),
(322,500,l),
(297,500,l),
(393,232,l)
);
},
{
closed = 1;
nodes = (
(384,260,l),
(422,150,o),
(377,-6,o),
(222,-6,cs),
(119,-6,o),
(77,63,o),
(77,144,cs),
(77,283,o),
(214,333,o),
(357,356,c),
(354,365,l),
(203,342,o),
(47,284,o),
(47,144,cs),
(47,57,o),
(107,-16,o),
(220,-16,cs),
(389,-16,o),
(432,147,o),
(390,264,c)
);
},
{
closed = 1;
nodes = (
(177,490,l),
(322,480,l),
(322,500,l),
(177,500,l)
);
},
{
closed = 1;
nodes = (
(662,282,l),
(724,290,o),
(772,329,o),
(772,391,cs),
(772,468,o),
(699,516,o),
(616,516,cs),
(490,516,o),
(395,407,o),
(395,251,cs),
(395,94,o),
(491,-16,o),
(621,-16,cs),
(702,-16,o),
(772,28,o),
(814,97,c),
(806,101,l),
(768,37,o),
(695,-6,o),
(621,-6,cs),
(505,-6,o),
(425,98,o),
(425,251,cs),
(425,401,o),
(505,506,o),
(616,506,cs),
(686,506,o),
(746,464,o),
(746,391,cs),
(746,343,o),
(719,297,o),
(662,285,c)
);
},
{
closed = 1;
nodes = (
(409,270,l),
(842,270,l),
(842,290,l),
(409,280,l)
);
}
);
};
layerId = m002;
shapes = (
{
closed = 1;
nodes = (
(741,-16,o),
(801,26,o),
(844,97,c),
(836,101,l),
(798,37,o),
(734,-6,o),
(661,-6,cs),
(589,-6,o),
(535,45,o),
(535,251,cs),
(535,443,o),
(588,506,o),
(642,506,cs),
(696,506,o),
(696,442,o),
(696,398,cs),
(696,305,o),
(662,280,o),
(582,282,c),
(662,282,l),
(780,290,o),
(822,326,o),
(822,391,cs),
(822,468,o),
(760,516,o),
(646,516,cs),
(493,516,o),
(395,409,o),
(395,251,cs),
(395,90,o),
(503,-16,o),
(661,-16,cs)
);
},
{
closed = 1;
nodes = (
(399,-16,o),
(430,147,o),
(395,264,c),
(385,260,l),
(422,150,o),
(387,14,o),
(278,14,cs),
(209,14,o),
(187,63,o),
(187,144,cs),
(187,273,o),
(262,352,o),
(367,357,c),
(364,365,l),
(193,352,o),
(47,284,o),
(47,144,cs),
(47,57,o),
(107,-16,o),
(220,-16,cs)
);
},
{
closed = 1;
nodes = (
(418,232,l),
(322,500,l),
(297,500,l),
(393,232,l)
);
},
{
closed = 1;
nodes = (
(322,500,l),
(177,500,l),
(177,490,l),
(322,480,l)
);
},
{
closed = 1;
nodes = (
(872,270,l),
(872,290,l),
(439,280,l),
(439,270,l)
);
}
);
width = 892;
}
);
metricLeft = "=a";
metricRight = "=e";
unicode = 230;
},
{
glyphname = b;
kernLeft = l;
kernRight = o;
lastChange = "2026-04-27 06:36:55 +0000";
layers = (
{
hints = (
{
name = _corner.serifLeft;
options = 1;
origin = (1,2);
scale = (1,-1);
type = Corner;
},
{
name = _corner.serifLeft;
origin = (1,3);
type = Corner;
}
);
layerId = m01;
shapes = (
{
closed = 1;
nodes = (
(494,-16,o),
(591,94,o),
(591,251,cs),
(591,407,o),
(494,516,o),
(355,516,cs),
(216,516,o),
(139,407,o),
(139,251,cs),
(139,94,o),
(216,-16,o),
(355,-16,cs)
);
},
{
closed = 1;
nodes = (
(149,0,l),
(149,720,l),
(124,710,l),
(124,0,l)
);
},
{
closed = 1;
nodes = (
(228,-6,o),
(149,100,o),
(149,251,cs),
(149,401,o),
(228,506,o),
(355,506,cs),
(482,506,o),
(561,401,o),
(561,251,cs),
(561,100,o),
(482,-6,o),
(355,-6,cs)
);
}
);
width = 641;
},
{
hints = (
{
name = _corner.serifLeft;
options = 1;
origin = (1,2);
scale = (1,-1);
type = Corner;
},
{
name = _corner.serifLeft;
origin = (1,3);
type = Corner;
}
);
layerId = m002;
shapes = (
{
closed = 1;
nodes = (
(514,-16,o),
(611,94,o),
(611,251,cs),
(611,407,o),
(514,516,o),
(355,516,cs),
(216,516,o),
(139,407,o),
(139,251,cs),
(139,94,o),
(216,-16,o),
(355,-16,cs)
);
},
{
closed = 1;
nodes = (
(149,0,l),
(149,720,l),
(124,710,l),
(124,0,l)
);
},
{
closed = 1;
nodes = (
(228,-6,o),
(149,100,o),
(149,251,cs),
(149,401,o),
(228,506,o),
(355,506,cs),
(425,506,o),
(471,442,o),
(471,251,cs),
(471,58,o),
(425,-6,o),
(355,-6,cs)
);
}
);
width = 656;
},
{
associatedMasterId = m002;
hints = (
{
name = _corner.serifLeft;
options = 1;
origin = (2,2);
scale = (1,-1);
type = Corner;
},
{
name = _corner.serifLeft;
origin = (2,3);
type = Corner;
}
);
layerId = "6690FA23-0843-47E8-83C4-C5F847F0D88A";
name = "24 Apr 26 at 17.24";
shapes = (
{
closed = 1;
nodes = (
(579,-16,o),
(676,94,o),
(676,251,cs),
(676,407,o),
(579,516,o),
(425,516,cs),
(311,516,o),
(244,427,o),
(244,251,cs),
(244,74,o),
(301,-16,o),
(430,-16,cs)
);
},
{
closed = 1;
nodes = (
(343,4,o),
(274,70,o),
(274,251,cs),
(274,431,o),
(353,496,o),
(405,496,cs),
(487,496,o),
(496,421,o),
(496,251,cs),
(496,80,o),
(487,4,o),
(410,4,cs)
);
},
{
closed = 1;
nodes = (
(274,0,l),
(274,720,l),
(109,710,l),
(109,0,l)
);
}
);
width = 701;
},
{
associatedMasterId = m002;
hints = (
{
name = _corner.serifLeft;
options = 1;
origin = (1,2);
scale = (1,-1);
type = Corner;
},
{
name = _corner.serifLeft;
origin = (1,3);
type = Corner;
}
);
layerId = "06D3ECC8-81F3-40BA-8C52-C673019A9B9C";
name = "24 Apr 26 at 17.56";
shapes = (
{
closed = 1;
nodes = (
(569,-16,o),
(666,94,o),
(666,251,cs),
(666,407,o),
(569,516,o),
(430,516,cs),
(301,516,o),
(249,430,o),
(249,244,cs),
(249,87,o),
(291,-16,o),
(430,-16,cs)
);
},
{
closed = 1;
nodes = (
(274,0,l),
(274,720,l),
(109,710,l),
(109,0,l)
);
},
{
closed = 1;
nodes = (
(352,4,o),
(274,39,o),
(274,251,cs),
(274,492,o),
(382,495,o),
(400,495,cs),
(448,495,o),
(486,462,o),
(486,251,cs),
(486,39,o),
(448,4,o),
(400,4,cs)
);
}
);
width = 691;
}
);
metricLeft = "=l";
metricRight = "=o";
unicode = 98;
},
{
glyphname = c;
kernLeft = o;
kernRight = c;
lastChange = "2026-04-27 10:00:02 +0000";
layers = (
{
anchors = (
{
name = bottom;
pos = (277,-7);
},
{
name = top;
pos = (277,500);
}
);
layerId = m01;
shapes = (
{
closed = 1;
nodes = (
(347,-16,o),
(417,18,o),
(459,97,c),
(451,101,l),
(413,27,o),
(339,-6,o),
(276,-6,cs),
(159,-6,o),
(80,100,o),
(80,251,cs),
(80,401,o),
(149,506,o),
(282,506,cs),
(368,506,o),
(412,459,o),
(412,404,cs),
(412,299,l),
(422,299,l),
(434,453,l),
(395,504,o),
(326,516,o),
(282,516,cs),
(137,516,o),
(50,407,o),
(50,251,cs),
(50,94,o),
(147,-16,o),
(276,-16,cs)
);
}
);
width = 484;
},
{
anchors = (
{
name = bottom;
pos = (262,-7);
},
{
name = top;
pos = (262,500);
}
);
layerId = m002;
shapes = (
{
closed = 1;
nodes = (
(382,-16,o),
(442,18,o),
(484,97,c),
(476,101,l),
(438,27,o),
(374,-6,o),
(316,-6,cs),
(237,-6,o),
(185,56,o),
(185,251,cs),
(185,445,o),
(227,506,o),
(318,506,cs),
(400,506,o),
(444,459,o),
(444,404,cs),
(444,299,l),
(454,299,l),
(466,453,l),
(427,504,o),
(358,516,o),
(304,516,cs),
(144,516,o),
(45,407,o),
(45,251,cs),
(45,94,o),
(152,-16,o),
(301,-16,cs)
);
}
);
width = 509;
},
{
anchors = (
{
name = bottom;
pos = (222,-7);
},
{
name = top;
pos = (222,500);
}
);
associatedMasterId = m002;
layerId = "156E26C8-D7D8-4926-B93B-02394B565F26";
name = "27 Apr 26 at 11.06";
shapes = (
{
closed = 1;
nodes = (
(322,-16,o),
(392,18,o),
(434,97,c),
(426,101,l),
(388,27,o),
(314,-6,o),
(251,-6,cs),
(134,-6,o),
(55,100,o),
(55,251,cs),
(55,401,o),
(124,506,o),
(257,506,cs),
(343,506,o),
(387,459,o),
(387,404,cs),
(387,299,l),
(397,299,l),
(409,453,l),
(370,504,o),
(301,516,o),
(257,516,cs),
(112,516,o),
(25,407,o),
(25,251,cs),
(25,94,o),
(122,-16,o),
(251,-16,cs)
);
}
);
width = 429;
}
);
metricLeft = "=o";
unicode = 99;
},
{
glyphname = d;
kernLeft = o;
kernRight = l;
lastChange = "2026-04-27 03:21:35 +0000";
layers = (
{
anchors = (
{
name = bottom;
pos = (336,0);
},
{
name = center;
pos = (498,640);
},
{
name = top;
pos = (336,500);
},
{
name = topright;
pos = (591,800);
}
);
hints = (
{
name = _corner.serifLeft;
options = 1;
origin = (2,0);
scale = (1,-1);
type = Corner;
},
{
name = _corner.serifLeft;
options = 1;
origin = (2,2);
scale = (1,-1);
type = Corner;
}
);
layerId = m01;
shapes = (
{
closed = 1;
nodes = (
(425,-16,o),
(502,94,o),
(502,251,cs),
(502,407,o),
(425,516,o),
(286,516,cs),
(147,516,o),
(50,407,o),
(50,251,cs),
(50,94,o),
(147,-16,o),
(286,-16,cs)
);
},
{
closed = 1;
nodes = (
(159,-6,o),
(80,100,o),
(80,251,cs),
(80,401,o),
(159,506,o),
(286,506,cs),
(413,506,o),
(492,401,o),
(492,251,cs),
(492,100,o),
(413,-6,o),
(286,-6,cs)
);
},
{
closed = 1;
nodes = (
(517,0,l),
(517,720,l),
(492,710,l),
(492,0,l)
);
}
);
width = 631;
},
{
anchors = (
{
name = bottom;
pos = (323,0);
},
{
name = center;
pos = (485,640);
},
{
name = top;
pos = (323,500);
},
{
name = topright;
pos = (626,800);
}
);
hints = (
{
name = _corner.serifLeft;
options = 1;
origin = (2,0);
scale = (1,-1);
type = Corner;
},
{
name = _corner.serifLeft;
options = 1;
origin = (2,2);
scale = (1,-1);
type = Corner;
}
);
layerId = m002;
shapes = (
{
closed = 1;
nodes = (
(440,-16,o),
(517,94,o),
(517,251,cs),
(517,407,o),
(440,516,o),
(301,516,cs),
(142,516,o),
(45,407,o),
(45,251,cs),
(45,94,o),
(142,-16,o),
(301,-16,cs)
);
},
{
closed = 1;
nodes = (
(211,-6,o),
(185,58,o),
(185,251,cs),
(185,442,o),
(211,506,o),
(301,506,cs),
(428,506,o),
(507,401,o),
(507,251,cs),
(507,100,o),
(428,-6,o),
(301,-6,cs)
);
},
{
closed = 1;
nodes = (
(532,0,l),
(532,720,l),
(507,710,l),
(507,0,l)
);
}
);
width = 646;
}
);
metricLeft = "=o";
metricRight = "=l";
unicode = 100;
},
{
glyphname = eth;
kernLeft = o;
kernRight = eth;
lastChange = "2026-04-27 09:08:48 +0000";
layers = (
{
layerId = m01;
shapes = (
{
closed = 1;
nodes = (
(425,-16,o),
(522,94,o),
(522,291,cs),
(522,497,o),
(428,633,o),
(302,720,c),
(293,710,l),
(384,644,o),
(480,523,o),
(493,362,c),
(498,360,l),
(470,456,o),
(390,516,o),
(286,516,cs),
(147,516,o),
(50,407,o),
(50,251,cs),
(50,94,o),
(147,-16,o),
(286,-16,cs)
);
},
{
closed = 1;
nodes = (
(159,-6,o),
(80,100,o),
(80,251,cs),
(80,401,o),
(159,506,o),
(286,506,cs),
(413,506,o),
(492,401,o),
(492,251,cs),
(492,100,o),
(413,-6,o),
(286,-6,cs)
);
},
{
closed = 1;
nodes = (
(294,569,l),
(303,557,l),
(474,702,l),
(465,714,l)
);
}
);
width = 572;
},
{
layerId = m002;
shapes = (
{
closed = 1;
nodes = (
(440,-16,o),
(537,94,o),
(537,291,cs),
(537,497,o),
(443,633,o),
(317,720,c),
(308,710,l),
(399,644,o),
(497,520,o),
(508,358,c),
(516,365,l),
(481,457,o),
(400,516,o),
(291,516,cs),
(142,516,o),
(45,407,o),
(45,251,cs),
(45,94,o),
(142,-16,o),
(291,-16,cs)
);
},
{
closed = 1;
nodes = (
(227,-6,o),
(185,56,o),
(185,251,cs),
(185,445,o),
(227,506,o),
(291,506,cs),
(356,506,o),
(397,445,o),
(397,251,cs),
(397,56,o),
(356,-6,o),
(291,-6,cs)
);
},
{
closed = 1;
nodes = (
(489,702,l),
(480,714,l),
(309,569,l),
(318,557,l)
);
}
);
width = 582;
}
);
metricLeft = "=o";
metricRight = "=o";
unicode = 240;
},
{
glyphname = e;
kernLeft = o;
kernRight = e;
lastChange = "2026-04-27 09:00:19 +0000";
layers = (
{
anchors = (
{
name = bottom;
pos = (264,0);
},
{
name = ogonek;
pos = (378,10);
},
{
name = top;
pos = (264,500);
}
);
layerId = m01;
shapes = (
{
closed = 1;
nodes = (
(317,282,l),
(379,290,o),
(427,329,o),
(427,391,cs),
(427,468,o),
(354,516,o),
(271,516,cs),
(145,516,o),
(50,407,o),
(50,251,cs),
(50,94,o),
(146,-16,o),
(276,-16,cs),
(357,-16,o),
(427,28,o),
(469,97,c),
(461,101,l),
(423,37,o),
(350,-6,o),
(276,-6,cs),
(160,-6,o),
(80,98,o),
(80,251,cs),
(80,401,o),
(160,506,o),
(271,506,cs),
(341,506,o),
(401,464,o),
(401,391,cs),
(401,343,o),
(374,297,o),
(317,285,c)
);
},
{
closed = 1;
nodes = (
(64,270,l),
(497,270,l),
(497,290,l),
(64,280,l)
);
}
);
width = 517;
},
{
associatedMasterId = m01;
layerId = "3A9D6F84-DFB8-4104-9D93-9AF049953B51";
name = "20 Apr 26 at 14.51";
shapes = (
{
closed = 1;
nodes = (
(487,281,l),
(487,407,o),
(398,516,o),
(267,516,cs),
(137,516,o),
(40,407,o),
(40,251,cs),
(40,94,o),
(137,-16,o),
(272,-16,cs),
(358,-16,o),
(428,27,o),
(469,97,c),
(463,101,l),
(425,36,o),
(348,-6,o),
(272,-6,cs),
(149,-6,o),
(70,100,o),
(70,251,cs),
(70,401,o),
(149,506,o),
(267,506,cs),
(386,506,o),
(457,401,o),
(457,281,c)
);
},
{
closed = 1;
nodes = (
(54,281,l),
(487,281,l),
(487,290,l),
(54,290,l)
);
}
);
width = 600;
},
{
associatedMasterId = m01;
layerId = "FE9F22AA-FABA-44BD-9AC2-86BF72C99B47";
name = "20 Apr 26 at 14.57";
shapes = (
{
closed = 1;
nodes = (
(257,288,l),
(339,296,o),
(402,335,o),
(402,406,cs),
(402,480,o),
(332,516,o),
(256,516,cs),
(127,516,o),
(40,407,o),
(40,251,cs),
(40,94,o),
(137,-16,o),
(272,-16,cs),
(358,-16,o),
(428,27,o),
(469,97,c),
(463,101,l),
(425,36,o),
(348,-6,o),
(272,-6,cs),
(149,-6,o),
(70,100,o),
(70,251,cs),
(70,401,o),
(149,506,o),
(256,506,cs),
(313,506,o),
(376,477,o),
(376,403,cs),
(376,322,o),
(303,298,o),
(257,295,c)
);
},
{
closed = 1;
nodes = (
(54,281,l),
(487,281,l),
(487,301,l),
(54,291,l)
);
}
);
width = 600;
},
{
anchors = (
{
name = bottom;
pos = (289,0);
},
{
name = ogonek;
pos = (403,10);
},
{
name = top;
pos = (289,500);
}
);
layerId = m002;
shapes = (
{
closed = 1;
nodes = (
(312,282,l),
(430,290,o),
(472,326,o),
(472,391,cs),
(472,468,o),
(410,516,o),
(296,516,cs),
(143,516,o),
(45,409,o),
(45,251,cs),
(45,90,o),
(153,-16,o),
(311,-16,cs),
(391,-16,o),
(451,26,o),
(494,97,c),
(486,101,l),
(448,37,o),
(384,-6,o),
(311,-6,cs),
(239,-6,o),
(185,45,o),
(185,251,cs),
(185,443,o),
(238,506,o),
(292,506,cs),
(346,506,o),
(346,442,o),
(346,398,cs),
(346,305,o),
(312,280,o),
(232,282,c)
);
},
{
closed = 1;
nodes = (
(89,270,l),
(522,270,l),
(522,290,l),
(89,280,l)
);
}
);
width = 542;
}
);
metricLeft = "=o";
unicode = 101;
},
{
glyphname = f;
kernLeft = f;
kernRight = f;
lastChange = "2026-04-27 10:43:41 +0000";
layers = (
{
hints = (
{
name = _corner.serifLeft;
origin = (0,12);
type = Corner;
},
{
name = _corner.serifLeft;
options = 1;
origin = (0,13);
scale = (1,-1);
type = Corner;
}
);
layerId = m01;
shapes = (
{
closed = 1;
nodes = (
(366,710,o),
(391,664,o),
(391,607,cs),
(391,562,l),
(401,562,l),
(413,666,l),
(384,691,o),
(358,720,o),
(281,720,cs),
(190,720,o),
(128,681,o),
(128,564,cs),
(128,0,l),
(153,0,l),
(153,564,ls),
(153,675,o),
(202,710,o),
(279,710,cs)
);
},
{
closed = 1;
nodes = (
(20,486,l),
(317,486,l),
(317,500,l),
(20,500,l)
);
}
);
width = 359;
},
{
hints = (
{
name = _corner.serifLeft;
origin = (0,12);
type = Corner;
},
{
name = _corner.serifLeft;
options = 1;
origin = (0,13);
scale = (1,-1);
type = Corner;
}
);
layerId = m002;
shapes = (
{
closed = 1;
nodes = (
(397,710,o),
(422,664,o),
(422,607,cs),
(422,562,l),
(432,562,l),
(444,666,l),
(415,691,o),
(389,720,o),
(312,720,cs),
(221,720,o),
(114,681,o),
(114,544,cs),
(114,0,l),
(234,0,l),
(234,564,ls),
(234,675,o),
(233,710,o),
(310,710,cs)
);
},
{
closed = 1;
nodes = (
(51,486,l),
(348,486,l),
(348,500,l),
(51,500,l)
);
}
);
width = 390;
}
);
unicode = 102;
},
{
glyphname = g;
kernLeft = g;
kernRight = g;
lastChange = "2026-04-27 06:43:42 +0000";
layers = (
{
anchors = (
{
name = bottom;
pos = (238,-203);
},
{
name = top;
pos = (209,500);
}
);
layerId = m01;
shapes = (
{
closed = 1;
nodes = (
(356,-215,o),
(441,-156,o),
(441,-55,cs),
(441,29,o),
(390,120,o),
(132,101,c),
(137,94,l),
(308,225,l),
(296,230,l),
(123,101,l),
(128,89,l),
(353,96,o),
(411,32,o),
(411,-52,cs),
(411,-146,o),
(349,-200,o),
(237,-200,cs),
(103,-200,o),
(68,-127,o),
(53,-82,c),
(44,-85,l),
(52,-143,o),
(99,-215,o),
(237,-215,cs)
);
},
{
closed = 1;
nodes = (
(309,197,o),
(373,263,o),
(373,357,cs),
(373,450,o),
(309,516,o),
(209,516,cs),
(108,516,o),
(45,450,o),
(45,357,cs),
(45,263,o),
(108,197,o),
(209,197,cs)
);
},
{
closed = 1;
nodes = (
(116,207,o),
(75,267,o),
(75,357,cs),
(75,447,o),
(116,506,o),
(209,506,cs),
(302,506,o),
(343,447,o),
(343,357,cs),
(343,267,o),
(302,207,o),
(209,207,cs)
);
},
{
closed = 1;
nodes = (
(276,495,l),
(447,521,l),
(447,531,l),
(209,516,l)
);
}
);
width = 492;
},
{
associatedMasterId = m01;
layerId = "20ED8146-90E5-41CA-90DF-F3A6FAB4EF87";
name = "21 Apr 26 at 11.10";
shapes = (
{
closed = 1;
nodes = (
(376,-215,o),
(461,-156,o),
(461,-55,cs),
(461,29,o),
(403,98,o),
(282,121,c),
(287,114,l),
(365,262,l),
(353,260,l),
(273,121,l),
(278,109,l),
(388,79,o),
(431,32,o),
(431,-52,cs),
(431,-146,o),
(369,-200,o),
(257,-200,cs),
(103,-200,o),
(68,-97,o),
(53,-42,c),
(44,-45,l),
(52,-113,o),
(99,-215,o),
(257,-215,cs)
);
},
{
closed = 1;
nodes = (
(329,197,o),
(393,263,o),
(393,357,cs),
(393,450,o),
(329,516,o),
(229,516,cs),
(128,516,o),
(65,450,o),
(65,357,cs),
(65,263,o),
(128,197,o),
(229,197,cs)
);
},
{
closed = 1;
nodes = (
(136,207,o),
(95,267,o),
(95,357,cs),
(95,447,o),
(136,506,o),
(229,506,cs),
(322,506,o),
(363,447,o),
(363,357,cs),
(363,267,o),
(322,207,o),
(229,207,cs)
);
},
{
closed = 1;
nodes = (
(341,478,l),
(343,550,o),
(373,600,o),
(435,600,cs),
(472,600,o),
(494,584,o),
(494,540,cs),
(494,498,l),
(501,498,l),
(509,588,l),
(487,603,o),
(466,613,o),
(438,613,cs),
(369,613,o),
(331,553,o),
(333,478,c)
);
}
);
width = 512;
},
{
associatedMasterId = m01;
layerId = "ED89C134-4000-4773-9A1C-B8EB210B45C9";
name = "22 Apr 26 at 09.46";
shapes = (
{
closed = 1;
nodes = (
(356,-215,o),
(441,-156,o),
(441,-55,cs),
(441,29,o),
(390,120,o),
(132,101,c),
(137,94,l),
(308,225,l),
(296,230,l),
(123,101,l),
(128,89,l),
(353,96,o),
(411,32,o),
(411,-52,cs),
(411,-146,o),
(349,-200,o),
(237,-200,cs),
(103,-200,o),
(68,-127,o),
(53,-82,c),
(44,-85,l),
(52,-143,o),
(99,-215,o),
(237,-215,cs)
);
},
{
closed = 1;
nodes = (
(309,197,o),
(373,263,o),
(373,357,cs),
(373,450,o),
(309,516,o),
(209,516,cs),
(108,516,o),
(45,450,o),
(45,357,cs),
(45,263,o),
(108,197,o),
(209,197,cs)
);
},
{
closed = 1;
nodes = (
(116,207,o),
(75,267,o),
(75,357,cs),
(75,447,o),
(116,506,o),
(209,506,cs),
(302,506,o),
(343,447,o),
(343,357,cs),
(343,267,o),
(302,207,o),
(209,207,cs)
);
},
{
closed = 1;
nodes = (
(209,506,l),
(447,524,l),
(447,544,l),
(209,516,l)
);
}
);
width = 492;
},
{
anchors = (
{
name = bottom;
pos = (218,-203);
},
{
name = top;
pos = (189,500);
}
);
layerId = m002;
shapes = (
{
closed = 1;
nodes = (
(366,-215,o),
(471,-156,o),
(471,-55,cs),
(471,29,o),
(410,120,o),
(122,101,c),
(127,94,l),
(354,225,l),
(342,230,l),
(113,101,l),
(118,89,l),
(263,96,o),
(331,32,o),
(331,-62,cs),
(331,-146,o),
(269,-200,o),
(204,-200,cs),
(133,-200,o),
(51,-136,o),
(33,-82,c),
(24,-85,l),
(39,-128,o),
(99,-215,o),
(247,-215,cs)
);
},
{
closed = 1;
nodes = (
(359,197,o),
(433,263,o),
(433,357,cs),
(433,450,o),
(359,516,o),
(229,516,cs),
(98,516,o),
(25,450,o),
(25,357,cs),
(25,263,o),
(98,197,o),
(229,197,cs)
);
},
{
closed = 1;
nodes = (
(174,207,o),
(155,229,o),
(155,357,cs),
(155,485,o),
(174,506,o),
(229,506,cs),
(284,506,o),
(303,485,o),
(303,357,cs),
(303,229,o),
(284,207,o),
(229,207,cs)
);
},
{
closed = 1;
nodes = (
(326,495,l),
(487,521,l),
(487,531,l),
(229,516,l)
);
}
);
width = 502;
},
{
associatedMasterId = m002;
layerId = "58873EAD-61F0-4A4C-A88F-F09A015CEE3F";
name = "21 Apr 26 at 11.10";
shapes = (
{
closed = 1;
nodes = (
(376,-215,o),
(461,-156,o),
(461,-55,cs),
(461,29,o),
(403,98,o),
(282,121,c),
(287,114,l),
(365,262,l),
(353,260,l),
(273,121,l),
(278,109,l),
(388,79,o),
(431,32,o),
(431,-52,cs),
(431,-146,o),
(369,-200,o),
(257,-200,cs),
(103,-200,o),
(68,-97,o),
(53,-42,c),
(44,-45,l),
(52,-113,o),
(99,-215,o),
(257,-215,cs)
);
},
{
closed = 1;
nodes = (
(329,197,o),
(393,263,o),
(393,357,cs),
(393,450,o),
(329,516,o),
(229,516,cs),
(128,516,o),
(65,450,o),
(65,357,cs),
(65,263,o),
(128,197,o),
(229,197,cs)
);
},
{
closed = 1;
nodes = (
(136,207,o),
(95,267,o),
(95,357,cs),
(95,447,o),
(136,506,o),
(229,506,cs),
(322,506,o),
(363,447,o),
(363,357,cs),
(363,267,o),
(322,207,o),
(229,207,cs)
);
},
{
closed = 1;
nodes = (
(341,478,l),
(343,550,o),
(373,600,o),
(435,600,cs),
(472,600,o),
(494,584,o),
(494,540,cs),
(494,498,l),
(501,498,l),
(509,588,l),
(487,603,o),
(466,613,o),
(438,613,cs),
(369,613,o),
(331,553,o),
(333,478,c)
);
}
);
width = 512;
},
{
associatedMasterId = m002;
layerId = "8179804E-FEC9-4898-9F7D-D9AAB3EA9288";
name = "22 Apr 26 at 09.46";
shapes = (
{
closed = 1;
nodes = (
(356,-215,o),
(441,-156,o),
(441,-55,cs),
(441,29,o),
(390,120,o),
(132,101,c),
(137,94,l),
(308,225,l),
(296,230,l),
(123,101,l),
(128,89,l),
(353,96,o),
(411,32,o),
(411,-52,cs),
(411,-146,o),
(349,-200,o),
(237,-200,cs),
(103,-200,o),
(68,-127,o),
(53,-82,c),
(44,-85,l),
(52,-143,o),
(99,-215,o),
(237,-215,cs)
);
},
{
closed = 1;
nodes = (
(309,197,o),
(373,263,o),
(373,357,cs),
(373,450,o),
(309,516,o),
(209,516,cs),
(108,516,o),
(45,450,o),
(45,357,cs),
(45,263,o),
(108,197,o),
(209,197,cs)
);
},
{
closed = 1;
nodes = (
(116,207,o),
(75,267,o),
(75,357,cs),
(75,447,o),
(116,506,o),
(209,506,cs),
(302,506,o),
(343,447,o),
(343,357,cs),
(343,267,o),
(302,207,o),
(209,207,cs)
);
},
{
closed = 1;
nodes = (
(209,506,l),
(447,524,l),
(447,544,l),
(209,516,l)
);
}
);
width = 492;
}
);
unicode = 103;
},
{
glyphname = h;
kernLeft = l;
kernRight = n;
lastChange = "2026-04-27 06:44:00 +0000";
layers = (
{
hints = (
{
name = _corner.serifLeft;
options = 1;
origin = (1,0);
scale = (1,-1);
type = Corner;
},
{
name = _corner.serifLeft;
options = 1;
origin = (1,2);
scale = (1,-1);
type = Corner;
},
{
name = _corner.serifLeft;
origin = (1,3);
type = Corner;
}
);
layerId = m01;
shapes = (
{
closed = 1;
nodes = (
(592,0,l),
(592,10,l),
(403,20,l),
(389,2,l),
(480,52,o),
(553,144,o),
(553,280,cs),
(553,427,o),
(466,516,o),
(343,516,cs),
(234,516,o),
(139,437,o),
(142,251,c),
(149,251,l),
(149,431,o),
(240,506,o),
(343,506,cs),
(454,506,o),
(523,421,o),
(523,280,cs),
(523,150,o),
(464,59,o),
(377,9,c),
(377,0,l)
);
},
{
closed = 1;
nodes = (
(149,0,l),
(149,720,l),
(124,710,l),
(124,0,l)
);
}
);
width = 612;
},
{
hints = (
{
name = _corner.serifLeft;
options = 1;
origin = (1,0);
scale = (1,-1);
type = Corner;
},
{
name = _corner.serifLeft;
options = 1;
origin = (1,2);
scale = (1,-1);
type = Corner;
},
{
name = _corner.serifLeft;
origin = (1,3);
type = Corner;
}
);
layerId = m002;
shapes = (
{
closed = 1;
nodes = (
(587,0,l),
(587,20,l),
(388,60,l),
(344,2,l),
(505,52,o),
(588,164,o),
(588,300,cs),
(588,447,o),
(491,516,o),
(343,516,cs),
(194,516,o),
(142,375,o),
(142,251,c),
(149,251,l),
(149,391,o),
(229,506,o),
(323,506,cs),
(402,506,o),
(448,421,o),
(448,290,cs),
(448,150,o),
(379,69,o),
(312,9,c),
(312,0,l)
);
},
{
closed = 1;
nodes = (
(149,0,l),
(149,720,l),
(124,710,l),
(124,0,l)
);
}
);
width = 642;
},
{
associatedMasterId = m002;
hints = (
{
name = _corner.serifLeft;
options = 1;
origin = (0,0);
scale = (1,-1);
type = Corner;
},
{
name = _corner.serifLeft;
options = 1;
origin = (0,2);
scale = (1,-1);
type = Corner;
},
{
name = _corner.serifLeft;
origin = (0,3);
type = Corner;
}
);
layerId = "0E64A8D3-97F8-411A-BF84-C4871AA5971F";
name = "27 Apr 26 at 10.18";
shapes = (
{
closed = 1;
nodes = (
(149,0,l),
(149,720,l),
(124,710,l),
(124,0,l)
);
},
{
closed = 1;
nodes = (
(480,52,o),
(553,144,o),
(553,280,cs),
(553,427,o),
(466,516,o),
(343,516,cs),
(234,516,o),
(139,437,o),
(142,251,c),
(149,251,l),
(149,431,o),
(240,506,o),
(343,506,cs),
(454,506,o),
(523,421,o),
(523,280,cs),
(523,150,o),
(464,59,o),
(377,9,c),
(377,0,l),
(592,0,l),
(592,10,l),
(403,20,l),
(389,2,l)
);
}
);
width = 602;
}
);
metricLeft = "=n";
metricRight = "=n";
unicode = 104;
},
{
glyphname = hbar;
kernLeft = l;
kernRight = h;
lastChange = "2026-04-24 09:42:18 +0000";
layers = (
{
layerId = m01;
shapes = (
{
ref = h;
},
{
closed = 1;
nodes = (
(30,576,l),
(277,576,l),
(277,590,l),
(30,590,l)
);
}
);
width = 622;
},
{
layerId = m002;
shapes = (
{
ref = h;
},
{
closed = 1;
nodes = (
(30,576,l),
(277,576,l),
(277,590,l),
(30,590,l)
);
}
);
width = 622;
}
);
unicode = 295;
},
{
glyphname = idotless;
kernLeft = n;
kernRight = u;
lastChange = "2026-04-27 09:48:32 +0000";
layers = (
{
anchors = (
{
name = bottom;
pos = (127,0);
},
{
name = ogonek;
pos = (233,0);
},
{
name = top;
pos = (102,500);
}
);
hints = (
{
name = _corner.serifLeft;
options = 1;
origin = (0,0);
scale = (1,-1);
type = Corner;
},
{
name = _corner.serifLeft;
options = 1;
origin = (0,2);
scale = (1,-1);
type = Corner;
},
{
name = _corner.serifLeft;
origin = (0,3);
type = Corner;
}
);
layerId = m01;
shapes = (
{
closed = 1;
nodes = (
(139,0,l),
(139,500,l),
(114,500,l),
(114,0,l)
);
}
);
width = 253;
},
{
anchors = (
{
name = bottom;
pos = (177,0);
},
{
name = ogonek;
pos = (283,0);
},
{
name = top;
pos = (152,500);
}
);
hints = (
{
name = _corner.serifLeft;
options = 1;
origin = (0,0);
scale = (1,-1);
type = Corner;
},
{
name = _corner.serifLeft;
options = 1;
origin = (0,2);
scale = (1,-1);
type = Corner;
},
{
name = _corner.serifLeft;
origin = (0,3);
type = Corner;
}
);
layerId = m002;
shapes = (
{
closed = 1;
nodes = (
(234,0,l),
(234,500,l),
(114,500,l),
(114,0,l)
);
}
);
width = 348;
}
);
unicode = 305;
},
{
glyphname = jdotless;
kernLeft = j;
kernRight = j;
lastChange = "2026-04-27 10:47:48 +0000";
layers = (
{
anchors = (
{
name = bottom;
pos = (120,-200);
},
{
name = top;
pos = (102,500);
}
);
hints = (
{
name = _corner.serifLeft;
options = 1;
origin = (0,8);
scale = (1,-1);
type = Corner;
}
);
layerId = m01;
shapes = (
{
closed = 1;
nodes = (
(114,-171,o),
(75,-186,o),
(32,-206,c),
(36,-216,l),
(87,-196,o),
(139,-177,o),
(139,-70,cs),
(139,500,l),
(114,500,l),
(114,-70,ls)
);
}
);
width = 240;
},
{
anchors = (
{
name = bottom;
pos = (120,-200);
},
{
name = top;
pos = (102,500);
}
);
associatedMasterId = m01;
hints = (
{
name = _corner.serifLeft;
options = 1;
origin = (0,16);
scale = (1,-1);
type = Corner;
}
);
layerId = "35C8D7EC-FA2D-43CC-98DC-2DE653579F1C";
name = "21 Apr 26 at 10.36";
shapes = (
{
closed = 1;
nodes = (
(114,-171,o),
(75,-206,o),
(22,-206,cs),
(-14,-206,o),
(-44,-190,o),
(-44,-136,cs),
(-44,-58,l),
(-54,-58,l),
(-66,-192,l),
(-46,-203,o),
(-16,-216,o),
(22,-216,cs),
(87,-216,o),
(139,-177,o),
(139,-70,cs),
(139,500,l),
(114,500,l),
(114,-70,ls)
);
}
);
width = 240;
},
{
anchors = (
{
name = bottom;
pos = (170,-200);
},
{
name = top;
pos = (152,500);
}
);
hints = (
{
name = _corner.serifLeft;
options = 1;
origin = (0,8);
scale = (1,-1);
type = Corner;
}
);
layerId = m002;
shapes = (
{
closed = 1;
nodes = (
(119,-159,o),
(92,-199,o),
(34,-206,c),
(35,-216,l),
(182,-199,o),
(239,-155,o),
(239,-60,cs),
(239,500,l),
(119,500,l),
(119,-60,ls)
);
}
);
width = 340;
},
{
anchors = (
{
name = bottom;
pos = (120,-200);
},
{
name = top;
pos = (102,500);
}
);
associatedMasterId = m002;
hints = (
{
name = _corner.serifLeft;
options = 1;
origin = (0,16);
scale = (1,-1);
type = Corner;
}
);
layerId = "AB427AA9-B38E-4C00-9990-2959EC2D29C5";
name = "21 Apr 26 at 10.36";
shapes = (
{
closed = 1;
nodes = (
(114,-171,o),
(75,-206,o),
(22,-206,cs),
(-14,-206,o),
(-44,-190,o),
(-44,-136,cs),
(-44,-58,l),
(-54,-58,l),
(-66,-192,l),
(-46,-203,o),
(-16,-216,o),
(22,-216,cs),
(87,-216,o),
(139,-177,o),
(139,-70,cs),
(139,500,l),
(114,500,l),
(114,-70,ls)
);
}
);
width = 240;
}
);
unicode = 567;
},
{
glyphname = k;
kernLeft = l;
kernRight = k;
lastChange = "2026-04-27 04:24:16 +0000";
layers = (
{
anchors = (
{
name = bottom;
pos = (326,0);
},
{
name = top;
pos = (286,800);
}
);
hints = (
{
name = _corner.serifLeft;
options = 1;
origin = (2,0);
scale = (1,-1);
type = Corner;
},
{
name = _corner.serifLeft;
options = 1;
origin = (2,2);
scale = (1,-1);
type = Corner;
},
{
name = _corner.serifLeft;
origin = (2,3);
type = Corner;
}
);
layerId = m01;
shapes = (
{
closed = 1;
nodes = (
(174,199,o),
(212,195,o),
(251,195,cs),
(382,195,o),
(513,242,o),
(513,369,cs),
(513,447,o),
(456,516,o),
(348,516,cs),
(234,516,o),
(139,437,o),
(142,251,c),
(149,251,l),
(149,431,o),
(240,506,o),
(348,506,cs),
(444,506,o),
(483,441,o),
(483,369,cs),
(483,247,o),
(369,204,o),
(247,204,cs),
(210,204,o),
(172,208,o),
(136,215,c),
(138,206,l)
);
},
{
closed = 1;
nodes = (
(538,-60,l),
(352,208,l),
(312,203,l),
(524,-60,l)
);
},
{
closed = 1;
nodes = (
(149,0,l),
(149,720,l),
(124,710,l),
(124,0,l)
);
}
);
width = 572;
},
{
anchors = (
{
name = bottom;
pos = (326,0);
},
{
name = top;
pos = (286,800);
}
);
hints = (
{
name = _corner.serifLeft;
options = 1;
origin = (2,0);
scale = (1,-1);
type = Corner;
},
{
name = _corner.serifLeft;
options = 1;
origin = (2,2);
scale = (1,-1);
type = Corner;
},
{
name = _corner.serifLeft;
origin = (2,3);
type = Corner;
}
);
layerId = m002;
shapes = (
{
closed = 1;
nodes = (
(174,199,o),
(212,195,o),
(251,195,cs),
(402,195,o),
(533,242,o),
(533,369,cs),
(533,447,o),
(476,516,o),
(348,516,cs),
(234,516,o),
(139,437,o),
(142,251,c),
(149,251,l),
(149,431,o),
(250,506,o),
(327,506,cs),
(384,506,o),
(393,441,o),
(393,369,cs),
(393,247,o),
(359,204,o),
(247,204,cs),
(210,204,o),
(172,208,o),
(136,215,c),
(138,206,l)
);
},
{
closed = 1;
nodes = (
(538,-60,l),
(352,208,l),
(312,203,l),
(524,-60,l)
);
},
{
closed = 1;
nodes = (
(149,0,l),
(149,720,l),
(124,710,l),
(124,0,l)
);
}
);
width = 582;
}
);
metricLeft = "=l";
unicode = 107;
},
{
glyphname = l;
kernLeft = l;
kernRight = l;
lastChange = "2026-04-27 09:46:09 +0000";
layers = (
{
anchors = (
{
name = bottom;
pos = (136,0);
},
{
name = center;
pos = (147,250);
},
{
name = top;
pos = (107,710);
},
{
name = topright;
pos = (193,800);
}
);
hints = (
{
name = _corner.serifLeft;
options = 1;
origin = (0,0);
scale = (1,-1);
type = Corner;
},
{
name = _corner.serifLeft;
options = 1;
origin = (0,2);
scale = (1,-1);
type = Corner;
},
{
name = _corner.serifLeft;
origin = (0,3);
type = Corner;
}
);
layerId = m01;
shapes = (
{
closed = 1;
nodes = (
(149,0,l),
(149,720,l),
(124,710,l),
(124,0,l)
);
}
);
width = 263;
},
{
anchors = (
{
name = bottom;
pos = (174,0);
},
{
name = center;
pos = (185,250);
},
{
name = top;
pos = (145,710);
},
{
name = topright;
pos = (261,800);
}
);
hints = (
{
name = _corner.serifLeft;
options = 1;
origin = (0,0);
scale = (1,-1);
type = Corner;
},
{
name = _corner.serifLeft;
options = 1;
origin = (0,2);
scale = (1,-1);
type = Corner;
},
{
name = _corner.serifLeft;
origin = (0,3);
type = Corner;
}
);
layerId = m002;
shapes = (
{
closed = 1;
nodes = (
(237,0,l),
(237,720,l),
(117,710,l),
(117,0,l)
);
}
);
width = 351;
}
);
metricLeft = "=n";
metricRight = "=u";
unicode = 108;
},
{
glyphname = lslash;
kernLeft = l;
kernRight = l;
lastChange = "2026-04-27 09:46:25 +0000";
layers = (
{
layerId = m01;
shapes = (
{
ref = l;
},
{
closed = 1;
nodes = (
(30,374,l),
(242,434,l),
(242,450,l),
(30,390,l)
);
}
);
width = 293;
},
{
layerId = m002;
shapes = (
{
ref = l;
},
{
closed = 1;
nodes = (
(71,374,l),
(283,434,l),
(283,450,l),
(71,390,l)
);
}
);
width = 351;
}
);
unicode = 322;
},
{
glyphname = m;
kernLeft = n;
kernRight = n;
lastChange = "2026-04-27 09:44:59 +0000";
layers = (
{
hints = (
{
name = _corner.serifLeft;
options = 1;
origin = (1,0);
scale = (1,-1);
type = Corner;
},
{
name = _corner.serifLeft;
options = 1;
origin = (1,2);
scale = (1,-1);
type = Corner;
},
{
name = _corner.serifLeft;
origin = (1,3);
type = Corner;
},
{
name = _corner.serifLeft;
options = 1;
origin = (2,0);
scale = (1,-1);
type = Corner;
},
{
name = _corner.serifLeft;
origin = (2,15);
type = Corner;
}
);
layerId = m01;
shapes = (
{
closed = 1;
nodes = (
(891,0,l),
(891,10,l),
(702,20,l),
(688,2,l),
(779,52,o),
(852,164,o),
(852,300,cs),
(852,447,o),
(765,516,o),
(667,516,cs),
(563,516,o),
(468,437,o),
(471,251,c),
(478,251,l),
(478,431,o),
(569,506,o),
(667,506,cs),
(753,506,o),
(822,441,o),
(822,300,cs),
(822,170,o),
(763,59,o),
(676,9,c),
(676,0,l)
);
},
{
closed = 1;
nodes = (
(139,0,l),
(139,500,l),
(114,500,l),
(114,0,l)
);
},
{
closed = 1;
nodes = (
(478,0,l),
(478,360,ls),
(478,477,o),
(396,516,o),
(322,516,cs),
(224,516,o),
(129,437,o),
(132,251,c),
(139,251,l),
(139,431,o),
(230,506,o),
(322,506,cs),
(384,506,o),
(453,471,o),
(453,360,cs),
(453,0,l)
);
}
);
width = 911;
},
{
associatedMasterId = m01;
layerId = "07880794-6F6C-4526-872B-1E160CEAA9D6";
name = "20 Apr 26 at 14.42";
shapes = (
{
closed = 1;
nodes = (
(398,0,l),
(398,500,l),
(373,500,l),
(373,0,l)
);
},
{
closed = 1;
nodes = (
(659,52,o),
(732,164,o),
(732,300,cs),
(732,467,o),
(645,516,o),
(553,516,cs),
(453,516,o),
(388,437,o),
(391,251,c),
(398,251,l),
(398,431,o),
(459,506,o),
(553,506,cs),
(633,506,o),
(702,461,o),
(702,300,cs),
(702,170,o),
(643,59,o),
(556,9,c),
(556,0,l),
(751,0,l),
(751,10,l),
(582,20,l),
(568,2,l)
);
},
{
closed = 1;
nodes = (
(189,20,l),
(20,10,l),
(20,0,l),
(215,0,l),
(215,9,l),
(128,59,o),
(69,170,o),
(69,300,cs),
(69,461,o),
(138,506,o),
(218,506,cs),
(312,506,o),
(373,431,o),
(373,251,c),
(380,251,l),
(383,437,o),
(318,516,o),
(218,516,cs),
(126,516,o),
(39,467,o),
(39,300,cs),
(39,164,o),
(112,52,o),
(203,2,c)
);
}
);
width = 801;
},
{
hints = (
{
name = _corner.serifLeft;
options = 1;
origin = (1,0);
scale = (1,-1);
type = Corner;
},
{
name = _corner.serifLeft;
options = 1;
origin = (1,2);
scale = (1,-1);
type = Corner;
},
{
name = _corner.serifLeft;
origin = (1,3);
type = Corner;
},
{
name = _corner.serifLeft;
options = 1;
origin = (2,0);
scale = (1,-1);
type = Corner;
},
{
name = _corner.serifLeft;
origin = (2,15);
type = Corner;
}
);
layerId = m002;
shapes = (
{
closed = 1;
nodes = (
(930,0,l),
(930,10,l),
(677,20,l),
(683,2,l),
(824,52,o),
(917,164,o),
(917,300,cs),
(917,447,o),
(808,516,o),
(702,516,cs),
(561,516,o),
(509,405,o),
(509,291,c),
(517,291,l),
(517,431,o),
(607,503,o),
(676,503,cs),
(760,503,o),
(777,401,o),
(777,320,cs),
(777,150,o),
(693,51,o),
(651,9,c),
(651,0,l)
);
},
{
closed = 1;
nodes = (
(139,0,l),
(139,500,l),
(114,500,l),
(114,0,l)
);
},
{
closed = 1;
nodes = (
(517,0,l),
(517,364,ls),
(517,487,o),
(396,516,o),
(327,516,cs),
(214,516,o),
(129,437,o),
(132,251,c),
(139,251,l),
(139,431,o),
(230,506,o),
(322,506,cs),
(384,506,o),
(397,471,o),
(397,420,cs),
(397,0,l)
);
}
);
width = 980;
},
{
associatedMasterId = m002;
layerId = "BF30AF62-F511-4385-B326-08A47FB66D38";
name = "20 Apr 26 at 14.42";
shapes = (
{
closed = 1;
nodes = (
(398,0,l),
(398,500,l),
(373,500,l),
(373,0,l)
);
},
{
closed = 1;
nodes = (
(659,52,o),
(732,164,o),
(732,300,cs),
(732,467,o),
(645,516,o),
(553,516,cs),
(453,516,o),
(388,437,o),
(391,251,c),
(398,251,l),
(398,431,o),
(459,506,o),
(553,506,cs),
(633,506,o),
(702,461,o),
(702,300,cs),
(702,170,o),
(643,59,o),
(556,9,c),
(556,0,l),
(751,0,l),
(751,10,l),
(582,20,l),
(568,2,l)
);
},
{
closed = 1;
nodes = (
(189,20,l),
(20,10,l),
(20,0,l),
(215,0,l),
(215,9,l),
(128,59,o),
(69,170,o),
(69,300,cs),
(69,461,o),
(138,506,o),
(218,506,cs),
(312,506,o),
(373,431,o),
(373,251,c),
(380,251,l),
(383,437,o),
(318,516,o),
(218,516,cs),
(126,516,o),
(39,467,o),
(39,300,cs),
(39,164,o),
(112,52,o),
(203,2,c)
);
}
);
width = 801;
}
);
metricLeft = "=n";
metricRight = "=n";
unicode = 109;
},
{
glyphname = n;
kernLeft = n;
kernRight = n;
lastChange = "2026-04-27 09:41:01 +0000";
layers = (
{
anchors = (
{
name = bottom;
pos = (296,0);
},
{
name = top;
pos = (326,500);
}
);
hints = (
{
name = _corner.serifLeft;
origin = (1,3);
type = Corner;
},
{
name = _corner.serifLeft;
options = 1;
origin = (1,0);
scale = (1,-1);
type = Corner;
},
{
name = _corner.serifLeft;
options = 1;
origin = (1,2);
scale = (1,-1);
type = Corner;
}
);
layerId = m01;
shapes = (
{
closed = 1;
nodes = (
(582,0,l),
(582,10,l),
(393,20,l),
(379,2,l),
(470,52,o),
(543,164,o),
(543,300,cs),
(543,447,o),
(456,516,o),
(343,516,cs),
(224,516,o),
(129,437,o),
(132,251,c),
(139,251,l),
(139,431,o),
(230,506,o),
(343,506,cs),
(444,506,o),
(513,441,o),
(513,300,cs),
(513,170,o),
(454,59,o),
(367,9,c),
(367,0,l)
);
},
{
closed = 1;
nodes = (
(139,0,l),
(139,500,l),
(114,500,l),
(114,0,l)
);
}
);
width = 602;
},
{
associatedMasterId = m01;
layerId = "D315A5DD-0F3F-4ABE-8E31-02C881C5C3C6";
name = "20 Apr 26 at 11.53";
shapes = (
{
closed = 1;
nodes = (
(317,373,l),
(317,458,o),
(283,500,o),
(213,500,cs),
(143,500,o),
(96,456,o),
(71,367,c),
(76,364,l),
(99,447,o),
(142,488,o),
(204,488,cs),
(263,488,o),
(292,450,o),
(292,373,c)
);
},
{
closed = 1;
nodes = (
(87,0,l),
(87,500,l),
(62,500,l),
(62,0,l)
);
},
{
closed = 1;
nodes = (
(292,373,l),
(292,0,l),
(317,0,l),
(317,373,l)
);
}
);
width = 600;
},
{
anchors = (
{
name = bottom;
pos = (296,0);
},
{
name = top;
pos = (326,500);
}
);
hints = (
{
name = _corner.serifLeft;
options = 1;
origin = (1,0);
scale = (1,-1);
type = Corner;
},
{
name = _corner.serifLeft;
options = 1;
origin = (1,2);
scale = (1,-1);
type = Corner;
},
{
name = _corner.serifLeft;
origin = (1,3);
type = Corner;
}
);
layerId = m002;
shapes = (
{
closed = 1;
nodes = (
(582,0,l),
(582,10,l),
(372,21,l),
(334,2,l),
(495,52,o),
(578,164,o),
(578,300,cs),
(578,447,o),
(481,516,o),
(333,516,cs),
(188,516,o),
(132,375,o),
(132,251,c),
(139,251,l),
(139,391,o),
(219,506,o),
(313,506,cs),
(392,506,o),
(438,421,o),
(438,290,cs),
(438,150,o),
(369,69,o),
(302,9,c),
(302,0,l)
);
},
{
closed = 1;
nodes = (
(139,0,l),
(139,500,l),
(114,500,l),
(114,0,l)
);
}
);
width = 632;
},
{
anchors = (
{
name = bottom;
pos = (366,0);
},
{
name = top;
pos = (396,500);
}
);
associatedMasterId = m002;
hints = (
{
name = _corner.serifLeft;
origin = (0,3);
type = Corner;
},
{
name = _corner.serifLeft;
options = 1;
origin = (0,0);
scale = (1,-1);
type = Corner;
},
{
name = _corner.serifLeft;
options = 1;
origin = (0,2);
scale = (1,-1);
type = Corner;
}
);
layerId = "44A88780-9FA8-4CE8-B4E2-079F49DB2AE0";
name = "24 Apr 26 at 17.51";
shapes = (
{
closed = 1;
nodes = (
(259,0,l),
(259,500,l),
(94,500,l),
(94,0,l)
);
},
{
closed = 1;
nodes = (
(580,52,o),
(653,164,o),
(653,300,cs),
(653,447,o),
(566,516,o),
(428,516,cs),
(334,516,o),
(259,477,o),
(252,341,c),
(259,311,l),
(259,431,o),
(314,496,o),
(375,496,cs),
(424,496,o),
(473,451,o),
(473,290,cs),
(473,220,o),
(464,99,o),
(387,9,c),
(387,0,l),
(662,0,l),
(662,20,l),
(463,60,l),
(419,2,l)
);
}
);
width = 682;
}
);
unicode = 110;
},
{
glyphname = o;
kernLeft = o;
kernRight = o;
lastChange = "2026-04-27 04:27:10 +0000";
layers = (
{
anchors = (
{
name = bottom;
pos = (286,0);
},
{
name = center;
pos = (286,250);
},
{
name = ogonek;
pos = (507,10);
},
{
name = top;
pos = (286,500);
},
{
name = topright;
pos = (542,500);
}
);
layerId = m01;
shapes = (
{
closed = 1;
nodes = (
(425,-16,o),
(522,94,o),
(522,251,cs),
(522,407,o),
(425,516,o),
(286,516,cs),
(147,516,o),
(50,407,o),
(50,251,cs),
(50,94,o),
(147,-16,o),
(286,-16,cs)
);
},
{
closed = 1;
nodes = (
(159,-6,o),
(80,100,o),
(80,251,cs),
(80,401,o),
(159,506,o),
(286,506,cs),
(413,506,o),
(492,401,o),
(492,251,cs),
(492,100,o),
(413,-6,o),
(286,-6,cs)
);
}
);
width = 572;
},
{
anchors = (
{
name = bottom;
pos = (291,0);
},
{
name = center;
pos = (291,250);
},
{
name = ogonek;
pos = (512,10);
},
{
name = top;
pos = (291,500);
},
{
name = topright;
pos = (547,500);
}
);
background = {
shapes = (
{
closed = 1;
nodes = (
(430,-16,o),
(527,94,o),
(527,251,cs),
(527,407,o),
(430,516,o),
(291,516,cs),
(152,516,o),
(55,407,o),
(55,251,cs),
(55,94,o),
(152,-16,o),
(291,-16,cs)
);
},
{
closed = 1;
nodes = (
(164,-6,o),
(85,100,o),
(85,251,cs),
(85,401,o),
(164,506,o),
(291,506,cs),
(418,506,o),
(497,401,o),
(497,251,cs),
(497,100,o),
(418,-6,o),
(291,-6,cs)
);
}
);
};
layerId = m002;
shapes = (
{
closed = 1;
nodes = (
(440,-16,o),
(537,94,o),
(537,251,cs),
(537,407,o),
(440,516,o),
(291,516,cs),
(142,516,o),
(45,407,o),
(45,251,cs),
(45,94,o),
(142,-16,o),
(291,-16,cs)
);
},
{
closed = 1;
nodes = (
(227,-6,o),
(185,56,o),
(185,251,cs),
(185,445,o),
(227,506,o),
(291,506,cs),
(356,506,o),
(397,445,o),
(397,251,cs),
(397,56,o),
(356,-6,o),
(291,-6,cs)
);
}
);
width = 582;
}
);
unicode = 111;
},
{
glyphname = oslash;
kernLeft = o;
kernRight = o;
lastChange = "2026-04-24 09:42:18 +0000";
layers = (
{
layerId = m01;
shapes = (
{
ref = o;
},
{
closed = 1;
nodes = (
(69,-72,l),
(84,-72,l),
(484,573,l),
(469,573,l)
);
}
);
width = 552;
},
{
layerId = m002;
shapes = (
{
ref = o;
},
{
closed = 1;
nodes = (
(69,-72,l),
(84,-72,l),
(484,573,l),
(469,573,l)
);
}
);
width = 552;
}
);
unicode = 248;
},
{
glyphname = oe;
kernLeft = o;
kernRight = e;
lastChange = "2026-04-27 09:09:51 +0000";
layers = (
{
layerId = m01;
shapes = (
{
closed = 1;
nodes = (
(425,-16,o),
(522,94,o),
(522,251,cs),
(522,407,o),
(425,516,o),
(286,516,cs),
(147,516,o),
(50,407,o),
(50,251,cs),
(50,94,o),
(147,-16,o),
(286,-16,cs)
);
},
{
closed = 1;
nodes = (
(159,-6,o),
(80,100,o),
(80,251,cs),
(80,401,o),
(159,506,o),
(286,506,cs),
(413,506,o),
(492,401,o),
(492,251,cs),
(492,100,o),
(413,-6,o),
(286,-6,cs)
);
},
{
closed = 1;
nodes = (
(759,282,l),
(821,290,o),
(869,329,o),
(869,391,cs),
(869,468,o),
(796,516,o),
(713,516,cs),
(587,516,o),
(492,407,o),
(492,251,cs),
(492,94,o),
(588,-16,o),
(718,-16,cs),
(799,-16,o),
(869,28,o),
(911,97,c),
(903,101,l),
(865,37,o),
(792,-6,o),
(718,-6,cs),
(602,-6,o),
(522,98,o),
(522,251,cs),
(522,401,o),
(602,506,o),
(713,506,cs),
(783,506,o),
(843,464,o),
(843,391,cs),
(843,343,o),
(816,297,o),
(759,285,c)
);
},
{
closed = 1;
nodes = (
(506,270,l),
(939,270,l),
(939,290,l),
(506,280,l)
);
}
);
width = 959;
},
{
layerId = m002;
shapes = (
{
closed = 1;
nodes = (
(440,-16,o),
(537,94,o),
(537,251,cs),
(537,407,o),
(440,516,o),
(291,516,cs),
(142,516,o),
(45,407,o),
(45,251,cs),
(45,94,o),
(142,-16,o),
(291,-16,cs)
);
},
{
closed = 1;
nodes = (
(227,-6,o),
(185,56,o),
(185,251,cs),
(185,445,o),
(227,506,o),
(291,506,cs),
(356,506,o),
(397,445,o),
(397,251,cs),
(397,56,o),
(356,-6,o),
(291,-6,cs)
);
},
{
closed = 1;
nodes = (
(664,282,l),
(782,290,o),
(824,326,o),
(824,391,cs),
(824,468,o),
(762,516,o),
(648,516,cs),
(495,516,o),
(397,409,o),
(397,251,cs),
(397,90,o),
(505,-16,o),
(663,-16,cs),
(743,-16,o),
(803,26,o),
(846,97,c),
(838,101,l),
(800,37,o),
(736,-6,o),
(663,-6,cs),
(591,-6,o),
(537,45,o),
(537,251,cs),
(537,443,o),
(590,506,o),
(644,506,cs),
(698,506,o),
(698,442,o),
(698,398,cs),
(698,305,o),
(664,280,o),
(584,282,c)
);
},
{
closed = 1;
nodes = (
(441,270,l),
(874,270,l),
(874,290,l),
(441,280,l)
);
}
);
width = 894;
}
);
metricLeft = "=o";
metricRight = "=e";
unicode = 339;
},
{
glyphname = p;
kernLeft = p;
kernRight = o;
lastChange = "2026-04-27 04:36:18 +0000";
layers = (
{
hints = (
{
name = _corner.serifLeft;
options = 1;
origin = (2,2);
scale = (1,-1);
type = Corner;
},
{
name = _corner.serifLeft;
options = 1;
origin = (2,0);
scale = (2,-1);
type = Corner;
},
{
name = _corner.serifLeft;
origin = (2,3);
type = Corner;
}
);
layerId = m01;
shapes = (
{
closed = 1;
nodes = (
(484,-16,o),
(581,93,o),
(581,249,cs),
(581,406,o),
(484,516,o),
(345,516,cs),
(206,516,o),
(129,406,o),
(129,249,cs),
(129,93,o),
(206,-16,o),
(345,-16,cs)
);
},
{
closed = 1;
nodes = (
(218,-6,o),
(139,99,o),
(139,249,cs),
(139,400,o),
(218,506,o),
(345,506,cs),
(472,506,o),
(551,400,o),
(551,249,cs),
(551,99,o),
(472,-6,o),
(345,-6,cs)
);
},
{
closed = 1;
nodes = (
(139,-170,l),
(139,500,l),
(114,500,l),
(114,-170,l)
);
}
);
width = 631;
},
{
background = {
hints = (
{
name = _corner.serifLeft;
options = 1;
origin = (2,0);
scale = (1,-1);
type = Corner;
},
{
name = _corner.serifLeft;
origin = (2,1);
type = Corner;
},
{
name = _corner.serifLeft;
options = 1;
origin = (2,2);
scale = (2,-1);
type = Corner;
}
);
shapes = (
{
closed = 1;
nodes = (
(206,516,o),
(129,406,o),
(129,249,cs),
(129,93,o),
(206,-16,o),
(345,-16,cs),
(484,-16,o),
(581,93,o),
(581,249,cs),
(581,406,o),
(484,516,o),
(345,516,cs)
);
},
{
closed = 1;
nodes = (
(472,506,o),
(551,400,o),
(551,249,cs),
(551,99,o),
(472,-6,o),
(345,-6,cs),
(218,-6,o),
(139,99,o),
(139,249,cs),
(139,400,o),
(218,506,o),
(345,506,cs)
);
},
{
closed = 1;
nodes = (
(114,500,l),
(114,-170,l),
(139,-170,l),
(139,500,l)
);
}
);
};
hints = (
{
name = _corner.serifLeft;
options = 1;
origin = (2,0);
scale = (2,-1);
type = Corner;
},
{
name = _corner.serifLeft;
options = 1;
origin = (2,2);
scale = (1,-1);
type = Corner;
},
{
name = _corner.serifLeft;
origin = (2,3);
type = Corner;
}
);
layerId = m002;
shapes = (
{
closed = 1;
nodes = (
(504,-16,o),
(601,93,o),
(601,249,cs),
(601,406,o),
(504,516,o),
(345,516,cs),
(206,516,o),
(129,406,o),
(129,249,cs),
(129,93,o),
(206,-16,o),
(345,-16,cs)
);
},
{
closed = 1;
nodes = (
(218,-6,o),
(139,99,o),
(139,249,cs),
(139,400,o),
(218,506,o),
(345,506,cs),
(435,506,o),
(461,442,o),
(461,249,cs),
(461,58,o),
(435,-6,o),
(345,-6,cs)
);
},
{
closed = 1;
nodes = (
(139,-170,l),
(139,500,l),
(114,500,l),
(114,-170,l)
);
}
);
width = 646;
}
);
metricLeft = "=n";
metricRight = "=o";
unicode = 112;
},
{
glyphname = thorn;
kernLeft = thorn;
kernRight = o;
lastChange = "2026-04-27 09:10:24 +0000";
layers = (
{
hints = (
{
name = _corner.serifLeft;
options = 1;
origin = (2,0);
scale = (1,-1);
type = Corner;
},
{
name = _corner.serifLeft;
origin = (2,1);
type = Corner;
},
{
name = _corner.serifLeft;
options = 1;
origin = (2,2);
scale = (1,-1);
type = Corner;
},
{
name = _corner.serifLeft;
origin = (2,3);
type = Corner;
}
);
layerId = m01;
shapes = (
{
closed = 1;
nodes = (
(484,-16,o),
(581,93,o),
(581,249,cs),
(581,406,o),
(484,516,o),
(345,516,cs),
(206,516,o),
(129,406,o),
(129,249,cs),
(129,93,o),
(206,-16,o),
(345,-16,cs)
);
},
{
closed = 1;
nodes = (
(218,-6,o),
(139,99,o),
(139,249,cs),
(139,400,o),
(218,506,o),
(345,506,cs),
(472,506,o),
(551,400,o),
(551,249,cs),
(551,99,o),
(472,-6,o),
(345,-6,cs)
);
},
{
closed = 1;
nodes = (
(139,-170,l),
(139,700,l),
(114,700,l),
(114,-170,l)
);
}
);
width = 621;
},
{
hints = (
{
name = _corner.serifLeft;
options = 1;
origin = (2,0);
scale = (1,-1);
type = Corner;
},
{
name = _corner.serifLeft;
origin = (2,1);
type = Corner;
},
{
name = _corner.serifLeft;
options = 1;
origin = (2,2);
scale = (1,-1);
type = Corner;
},
{
name = _corner.serifLeft;
origin = (2,3);
type = Corner;
}
);
layerId = m002;
shapes = (
{
closed = 1;
nodes = (
(504,-16,o),
(601,93,o),
(601,249,cs),
(601,406,o),
(504,516,o),
(345,516,cs),
(206,516,o),
(129,406,o),
(129,249,cs),
(129,93,o),
(206,-16,o),
(345,-16,cs)
);
},
{
closed = 1;
nodes = (
(218,-6,o),
(139,99,o),
(139,249,cs),
(139,400,o),
(218,506,o),
(345,506,cs),
(435,506,o),
(461,442,o),
(461,249,cs),
(461,58,o),
(435,-6,o),
(345,-6,cs)
);
},
{
closed = 1;
nodes = (
(139,-170,l),
(139,700,l),
(114,700,l),
(114,-170,l)
);
}
);
width = 621;
}
);
unicode = 254;
},
{
glyphname = q;
kernLeft = o;
kernRight = q;
lastChange = "2026-04-27 04:39:34 +0000";
layers = (
{
hints = (
{
name = _corner.serifLeft;
options = 1;
origin = (2,0);
scale = (1,-1);
type = Corner;
},
{
name = _corner.serifLeft;
origin = (2,4);
scale = (2,1);
type = Corner;
}
);
layerId = m01;
shapes = (
{
closed = 1;
nodes = (
(425,-16,o),
(502,93,o),
(502,249,cs),
(502,406,o),
(425,516,o),
(286,516,cs),
(147,516,o),
(50,406,o),
(50,249,cs),
(50,93,o),
(147,-16,o),
(286,-16,cs)
);
},
{
closed = 1;
nodes = (
(159,-6,o),
(80,99,o),
(80,249,cs),
(80,400,o),
(159,506,o),
(286,506,cs),
(413,506,o),
(492,400,o),
(492,249,cs),
(492,99,o),
(413,-6,o),
(286,-6,cs)
);
},
{
closed = 1;
nodes = (
(517,-170,l),
(517,500,l),
(502,500,l),
(492,317,l),
(492,-170,l)
);
}
);
width = 616;
},
{
hints = (
{
name = _corner.serifLeft;
options = 1;
origin = (2,0);
scale = (1,-1);
type = Corner;
},
{
name = _corner.serifLeft;
origin = (2,4);
scale = (2,1);
type = Corner;
}
);
layerId = m002;
shapes = (
{
closed = 1;
nodes = (
(440,-16,o),
(517,93,o),
(517,249,cs),
(517,406,o),
(440,516,o),
(301,516,cs),
(142,516,o),
(45,406,o),
(45,249,cs),
(45,93,o),
(142,-16,o),
(301,-16,cs)
);
},
{
closed = 1;
nodes = (
(211,-6,o),
(185,58,o),
(185,249,cs),
(185,442,o),
(211,506,o),
(301,506,cs),
(428,506,o),
(507,400,o),
(507,249,cs),
(507,99,o),
(428,-6,o),
(301,-6,cs)
);
},
{
closed = 1;
nodes = (
(532,-170,l),
(532,500,l),
(517,500,l),
(507,317,l),
(507,-170,l)
);
}
);
width = 631;
}
);
metricLeft = "=o";
metricRight = "=|p-15";
unicode = 113;
},
{
glyphname = r;
kernLeft = n;
kernRight = r;
lastChange = "2026-04-27 09:39:46 +0000";
layers = (
{
anchors = (
{
name = bottom;
pos = (126,0);
},
{
name = top;
pos = (241,500);
}
);
hints = (
{
name = _corner.serifLeft;
origin = (1,3);
type = Corner;
},
{
name = _corner.serifLeft;
options = 1;
origin = (1,0);
scale = (1,-1);
type = Corner;
},
{
name = _corner.serifLeft;
options = 1;
origin = (1,2);
scale = (1,-1);
type = Corner;
}
);
layerId = m01;
shapes = (
{
closed = 1;
nodes = (
(139,251,l),
(139,408,o),
(193,506,o),
(288,506,cs),
(344,506,o),
(379,471,o),
(379,414,cs),
(379,319,l),
(389,319,l),
(401,473,l),
(368,499,o),
(336,516,o),
(292,516,cs),
(187,516,o),
(129,414,o),
(132,251,c)
);
},
{
closed = 1;
nodes = (
(139,0,l),
(139,500,l),
(114,500,l),
(114,0,l)
);
}
);
width = 441;
},
{
anchors = (
{
name = bottom;
pos = (221,0);
},
{
name = top;
pos = (336,500);
}
);
hints = (
{
name = _corner.serifLeft;
origin = (1,3);
type = Corner;
},
{
name = _corner.serifLeft;
options = 1;
origin = (1,0);
scale = (1,-1);
type = Corner;
},
{
name = _corner.serifLeft;
options = 1;
origin = (1,2);
scale = (1,-1);
type = Corner;
}
);
layerId = m002;
shapes = (
{
closed = 1;
nodes = (
(234,251,l),
(234,408,o),
(288,506,o),
(383,506,cs),
(439,506,o),
(474,471,o),
(474,414,cs),
(474,319,l),
(484,319,l),
(496,473,l),
(463,499,o),
(431,516,o),
(387,516,cs),
(282,516,o),
(224,414,o),
(227,251,c)
);
},
{
closed = 1;
nodes = (
(234,0,l),
(234,500,l),
(114,500,l),
(114,0,l)
);
}
);
width = 536;
}
);
metricLeft = "=n";
unicode = 114;
},
{
glyphname = s;
kernLeft = s;
kernRight = s;
lastChange = "2026-04-27 10:01:32 +0000";
layers = (
{
anchors = (
{
name = bottom;
pos = (215,-10);
},
{
name = top;
pos = (215,500);
}
);
layerId = m01;
shapes = (
{
closed = 1;
nodes = (
(337,-16,o),
(382,47,o),
(382,116,cs),
(382,291,o),
(80,239,o),
(80,396,cs),
(80,466,o),
(145,506,o),
(215,506,cs),
(302,506,o),
(336,459,o),
(336,414,cs),
(336,359,l),
(346,359,l),
(358,473,l),
(319,504,o),
(260,516,o),
(215,516,cs),
(130,516,o),
(50,477,o),
(50,391,cs),
(50,219,o),
(352,271,o),
(352,108,cs),
(352,58,o),
(325,-6,o),
(215,-6,cs),
(128,-6,o),
(70,31,o),
(70,86,cs),
(70,171,l),
(60,171,l),
(48,27,l),
(88,5,o),
(146,-16,o),
(215,-16,cs)
);
}
);
width = 430;
},
{
anchors = (
{
name = bottom;
pos = (235,-10);
},
{
name = top;
pos = (235,500);
}
);
layerId = m002;
shapes = (
{
closed = 1;
nodes = (
(357,-16,o),
(432,39,o),
(432,133,cs),
(432,310,o),
(170,309,o),
(170,437,cs),
(170,479,o),
(196,506,o),
(247,506,cs),
(334,506,o),
(368,459,o),
(368,414,cs),
(368,359,l),
(378,359,l),
(390,473,l),
(351,504,o),
(292,516,o),
(240,516,cs),
(125,516,o),
(50,465,o),
(50,380,cs),
(50,220,o),
(302,230,o),
(302,80,cs),
(302,27,o),
(269,-6,o),
(212,-6,cs),
(135,-6,o),
(77,31,o),
(77,86,cs),
(77,171,l),
(67,171,l),
(55,27,l),
(95,5,o),
(143,-16,o),
(222,-16,cs)
);
}
);
width = 462;
},
{
anchors = (
{
name = bottom;
pos = (235,-10);
},
{
name = top;
pos = (235,500);
}
);
associatedMasterId = m002;
layerId = "EC5D97F7-52F8-4245-9343-E5DC4E365B50";
name = "27 Apr 26 at 11.09";
shapes = (
{
closed = 1;
nodes = (
(347,-16,o),
(432,35,o),
(432,132,cs),
(432,311,o),
(180,309,o),
(180,437,cs),
(180,467,o),
(194,506,o),
(245,506,cs),
(298,506,o),
(326,465,o),
(326,414,cs),
(326,359,l),
(346,359,l),
(408,473,l),
(369,495,o),
(315,516,o),
(245,516,cs),
(130,516,o),
(50,470,o),
(50,381,cs),
(50,219,o),
(292,231,o),
(292,80,cs),
(292,39,o),
(273,-6,o),
(213,-6,cs),
(154,-6,o),
(110,47,o),
(110,146,cs),
(110,181,l),
(80,181,l),
(48,23,l),
(103,-2,o),
(158,-16,o),
(215,-16,cs)
);
}
);
width = 450;
},
{
anchors = (
{
name = bottom;
pos = (235,-10);
},
{
name = top;
pos = (235,500);
}
);
associatedMasterId = m002;
layerId = "8016E57E-0CF4-4A34-BA27-B711D0F24AD2";
name = "27 Apr 26 at 17.00";
shapes = (
{
closed = 1;
nodes = (
(357,-16,o),
(432,39,o),
(432,133,cs),
(432,310,o),
(170,309,o),
(170,437,cs),
(170,479,o),
(196,506,o),
(247,506,cs),
(310,506,o),
(341,466,o),
(341,404,cs),
(341,359,l),
(351,359,l),
(400,458,l),
(354,496,o),
(305,516,o),
(240,516,cs),
(125,516,o),
(50,465,o),
(50,380,cs),
(50,220,o),
(302,230,o),
(302,80,cs),
(302,27,o),
(269,-6,o),
(212,-6,cs),
(138,-6,o),
(102,53,o),
(102,136,cs),
(102,201,l),
(92,201,l),
(43,30,l),
(114,-4,o),
(164,-16,o),
(225,-16,cs)
);
}
);
width = 462;
}
);
unicode = 115;
},
{
glyphname = germandbls;
kernLeft = f;
kernRight = germandbls;
lastChange = "2026-04-27 06:44:00 +0000";
layers = (
{
hints = (
{
name = _corner.serifLeft;
origin = (0,15);
type = Corner;
}
);
layerId = m01;
shapes = (
{
closed = 1;
nodes = (
(481,-16,o),
(521,47,o),
(521,116,cs),
(521,291,o),
(299,259,o),
(299,400,cs),
(299,502,o),
(419,501,o),
(419,606,cs),
(419,681,o),
(358,720,o),
(281,720,cs),
(190,720,o),
(128,681,o),
(128,564,cs),
(128,0,l),
(153,0,l),
(153,564,ls),
(153,675,o),
(202,710,o),
(279,710,cs),
(366,710,o),
(391,660,o),
(391,606,cs),
(391,499,o),
(269,519,o),
(269,395,cs),
(269,239,o),
(491,271,o),
(491,108,cs),
(491,58,o),
(469,-6,o),
(378,-6,cs),
(317,-6,o),
(259,21,o),
(259,76,cs),
(259,161,l),
(249,161,l),
(237,17,l),
(277,-5,o),
(335,-16,o),
(378,-16,cs)
);
},
{
closed = 1;
nodes = (
(137,486,l),
(137,500,l),
(20,500,l),
(20,486,l)
);
}
);
width = 569;
},
{
associatedMasterId = m01;
hints = (
{
name = _corner.serifLeft;
origin = (0,9);
type = Corner;
},
{
name = _corner.serifLeft;
options = 1;
origin = (0,10);
scale = (1,-1);
type = Corner;
}
);
layerId = "665BBE41-F4B6-4D6D-9991-66058E394082";
name = "24 Apr 26 at 11.04";
shapes = (
{
closed = 1;
nodes = (
(303,436,o),
(396,481,o),
(459,487,c),
(459,674,o),
(392,720,o),
(298,720,cs),
(198,720,o),
(128,671,o),
(128,554,cs),
(128,0,l),
(153,0,l),
(153,554,ls),
(153,665,o),
(202,710,o),
(298,710,cs),
(406,710,o),
(431,644,o),
(431,497,c),
(328,486,o),
(273,417,o),
(273,341,cs),
(273,189,o),
(535,241,o),
(535,95,cs),
(535,48,o),
(508,-6,o),
(418,-6,cs),
(351,-6,o),
(293,24,o),
(293,79,cs),
(293,134,l),
(283,134,l),
(271,20,l),
(311,-2,o),
(369,-16,o),
(418,-16,cs),
(520,-16,o),
(565,37,o),
(565,103,cs),
(565,261,o),
(303,209,o),
(303,346,cs)
);
}
);
width = 599;
},
{
associatedMasterId = m01;
hints = (
{
name = _corner.serifLeft;
origin = (0,12);
type = Corner;
}
);
layerId = "9464C2A9-D6CD-43BB-B870-61A92498C163";
name = "24 Apr 26 at 11.09";
shapes = (
{
closed = 1;
nodes = (
(366,710,o),
(391,664,o),
(391,607,cs),
(391,562,l),
(401,562,l),
(413,666,l),
(384,691,o),
(358,720,o),
(281,720,cs),
(190,720,o),
(128,681,o),
(128,564,cs),
(128,0,l),
(153,0,l),
(153,564,ls),
(153,675,o),
(202,710,o),
(279,710,cs)
);
},
{
closed = 1;
nodes = (
(492,480,l),
(492,500,l),
(143,500,l),
(139,480,l)
);
},
{
closed = 1;
nodes = (
(170,-216,l),
(316,-189,o),
(486,-98,o),
(486,54,cs),
(486,136,o),
(433,214,o),
(294,241,c),
(289,233,l),
(403,203,o),
(456,138,o),
(456,55,cs),
(456,-88,o),
(296,-171,o),
(168,-206,c)
);
},
{
closed = 1;
nodes = (
(236,171,l),
(252,171,l),
(492,480,l),
(476,480,l)
);
}
);
width = 549;
},
{
associatedMasterId = m01;
hints = (
{
name = _corner.serifLeft;
origin = (0,12);
type = Corner;
}
);
layerId = "A2975BE8-4566-46BF-8E79-5C3893DFD04B";
name = "24 Apr 26 at 11.13";
shapes = (
{
closed = 1;
nodes = (
(366,710,o),
(391,664,o),
(391,607,cs),
(391,562,l),
(401,562,l),
(413,666,l),
(384,691,o),
(358,720,o),
(281,720,cs),
(190,720,o),
(128,681,o),
(128,564,cs),
(128,0,l),
(153,0,l),
(153,564,ls),
(153,675,o),
(202,710,o),
(279,710,cs)
);
},
{
closed = 1;
nodes = (
(20,486,l),
(137,486,l),
(137,500,l),
(20,500,l)
);
},
{
closed = 1;
nodes = (
(481,-16,o),
(521,47,o),
(521,116,cs),
(521,291,o),
(269,239,o),
(269,396,cs),
(269,466,o),
(324,506,o),
(384,506,cs),
(451,506,o),
(485,459,o),
(485,414,cs),
(485,359,l),
(495,359,l),
(507,473,l),
(468,504,o),
(426,516,o),
(384,516,cs),
(309,516,o),
(239,477,o),
(239,391,cs),
(239,219,o),
(491,271,o),
(491,108,cs),
(491,58,o),
(469,-6,o),
(378,-6,cs),
(317,-6,o),
(259,21,o),
(259,76,cs),
(259,161,l),
(249,161,l),
(237,17,l),
(277,-5,o),
(335,-16,o),
(378,-16,cs)
);
}
);
width = 829;
},
{
associatedMasterId = m01;
hints = (
{
name = _corner.serifLeft;
origin = (0,12);
type = Corner;
}
);
layerId = "85E93344-6C7F-43B1-B063-8586E289C9F3";
name = "24 Apr 26 at 11.14";
shapes = (
{
closed = 1;
nodes = (
(366,710,o),
(401,664,o),
(391,607,cs),
(374,506,l),
(389,506,l),
(413,666,l),
(384,691,o),
(358,720,o),
(281,720,cs),
(190,720,o),
(128,681,o),
(128,564,cs),
(128,0,l),
(153,0,l),
(153,564,ls),
(153,675,o),
(202,710,o),
(279,710,cs)
);
},
{
closed = 1;
nodes = (
(20,486,l),
(137,486,l),
(137,500,l),
(20,500,l)
);
},
{
closed = 1;
nodes = (
(384,516,l),
(309,516,o),
(239,477,o),
(239,391,cs),
(239,219,o),
(491,271,o),
(491,108,cs),
(491,58,o),
(469,-6,o),
(378,-6,cs),
(317,-6,o),
(259,21,o),
(259,76,cs),
(259,161,l),
(249,161,l),
(237,17,l),
(277,-5,o),
(335,-16,o),
(378,-16,cs),
(481,-16,o),
(521,47,o),
(521,116,cs),
(521,291,o),
(269,239,o),
(269,396,cs),
(269,466,o),
(324,506,o),
(384,506,c)
);
}
);
width = 829;
},
{
hints = (
{
name = _corner.serifLeft;
origin = (0,15);
type = Corner;
}
);
layerId = m002;
shapes = (
{
closed = 1;
nodes = (
(481,-16,o),
(521,47,o),
(521,116,cs),
(521,291,o),
(299,259,o),
(299,400,cs),
(299,502,o),
(419,501,o),
(419,606,cs),
(419,681,o),
(358,720,o),
(281,720,cs),
(190,720,o),
(128,681,o),
(128,564,cs),
(128,0,l),
(153,0,l),
(153,564,ls),
(153,675,o),
(202,710,o),
(279,710,cs),
(366,710,o),
(391,660,o),
(391,606,cs),
(391,499,o),
(269,519,o),
(269,395,cs),
(269,239,o),
(491,271,o),
(491,108,cs),
(491,58,o),
(469,-6,o),
(378,-6,cs),
(317,-6,o),
(259,21,o),
(259,76,cs),
(259,161,l),
(249,161,l),
(237,17,l),
(277,-5,o),
(335,-16,o),
(378,-16,cs)
);
},
{
closed = 1;
nodes = (
(137,486,l),
(137,500,l),
(20,500,l),
(20,486,l)
);
}
);
width = 551;
},
{
associatedMasterId = m002;
hints = (
{
name = _corner.serifLeft;
origin = (0,9);
type = Corner;
},
{
name = _corner.serifLeft;
options = 1;
origin = (0,10);
scale = (1,-1);
type = Corner;
}
);
layerId = "23199486-A680-423C-BCC0-03F5CAE1B5C8";
name = "24 Apr 26 at 11.04";
shapes = (
{
closed = 1;
nodes = (
(303,436,o),
(396,481,o),
(459,487,c),
(459,674,o),
(392,720,o),
(298,720,cs),
(198,720,o),
(128,671,o),
(128,554,cs),
(128,0,l),
(153,0,l),
(153,554,ls),
(153,665,o),
(202,710,o),
(298,710,cs),
(406,710,o),
(431,644,o),
(431,497,c),
(328,486,o),
(273,417,o),
(273,341,cs),
(273,189,o),
(535,241,o),
(535,95,cs),
(535,48,o),
(508,-6,o),
(418,-6,cs),
(351,-6,o),
(293,24,o),
(293,79,cs),
(293,134,l),
(283,134,l),
(271,20,l),
(311,-2,o),
(369,-16,o),
(418,-16,cs),
(520,-16,o),
(565,37,o),
(565,103,cs),
(565,261,o),
(303,209,o),
(303,346,cs)
);
}
);
width = 599;
},
{
associatedMasterId = m002;
hints = (
{
name = _corner.serifLeft;
origin = (0,12);
type = Corner;
}
);
layerId = "3E84DBEA-6C81-45E2-B3DE-432DFDA88B62";
name = "24 Apr 26 at 11.09";
shapes = (
{
closed = 1;
nodes = (
(366,710,o),
(391,664,o),
(391,607,cs),
(391,562,l),
(401,562,l),
(413,666,l),
(384,691,o),
(358,720,o),
(281,720,cs),
(190,720,o),
(128,681,o),
(128,564,cs),
(128,0,l),
(153,0,l),
(153,564,ls),
(153,675,o),
(202,710,o),
(279,710,cs)
);
},
{
closed = 1;
nodes = (
(492,480,l),
(492,500,l),
(143,500,l),
(139,480,l)
);
},
{
closed = 1;
nodes = (
(170,-216,l),
(316,-189,o),
(486,-98,o),
(486,54,cs),
(486,136,o),
(433,214,o),
(294,241,c),
(289,233,l),
(403,203,o),
(456,138,o),
(456,55,cs),
(456,-88,o),
(296,-171,o),
(168,-206,c)
);
},
{
closed = 1;
nodes = (
(236,171,l),
(252,171,l),
(492,480,l),
(476,480,l)
);
}
);
width = 549;
},
{
associatedMasterId = m002;
hints = (
{
name = _corner.serifLeft;
origin = (0,12);
type = Corner;
}
);
layerId = "3B79BDCD-AB45-4AD9-85DB-D984F7B9D21F";
name = "24 Apr 26 at 11.13";
shapes = (
{
closed = 1;
nodes = (
(366,710,o),
(391,664,o),
(391,607,cs),
(391,562,l),
(401,562,l),
(413,666,l),
(384,691,o),
(358,720,o),
(281,720,cs),
(190,720,o),
(128,681,o),
(128,564,cs),
(128,0,l),
(153,0,l),
(153,564,ls),
(153,675,o),
(202,710,o),
(279,710,cs)
);
},
{
closed = 1;
nodes = (
(20,486,l),
(137,486,l),
(137,500,l),
(20,500,l)
);
},
{
closed = 1;
nodes = (
(481,-16,o),
(521,47,o),
(521,116,cs),
(521,291,o),
(269,239,o),
(269,396,cs),
(269,466,o),
(324,506,o),
(384,506,cs),
(451,506,o),
(485,459,o),
(485,414,cs),
(485,359,l),
(495,359,l),
(507,473,l),
(468,504,o),
(426,516,o),
(384,516,cs),
(309,516,o),
(239,477,o),
(239,391,cs),
(239,219,o),
(491,271,o),
(491,108,cs),
(491,58,o),
(469,-6,o),
(378,-6,cs),
(317,-6,o),
(259,21,o),
(259,76,cs),
(259,161,l),
(249,161,l),
(237,17,l),
(277,-5,o),
(335,-16,o),
(378,-16,cs)
);
}
);
width = 829;
},
{
associatedMasterId = m002;
hints = (
{
name = _corner.serifLeft;
origin = (0,12);
type = Corner;
}
);
layerId = "D6699169-56D3-42B6-B812-F080E849B020";
name = "24 Apr 26 at 11.14";
shapes = (
{
closed = 1;
nodes = (
(366,710,o),
(401,664,o),
(391,607,cs),
(374,506,l),
(389,506,l),
(413,666,l),
(384,691,o),
(358,720,o),
(281,720,cs),
(190,720,o),
(128,681,o),
(128,564,cs),
(128,0,l),
(153,0,l),
(153,564,ls),
(153,675,o),
(202,710,o),
(279,710,cs)
);
},
{
closed = 1;
nodes = (
(20,486,l),
(137,486,l),
(137,500,l),
(20,500,l)
);
},
{
closed = 1;
nodes = (
(384,516,l),
(309,516,o),
(239,477,o),
(239,391,cs),
(239,219,o),
(491,271,o),
(491,108,cs),
(491,58,o),
(469,-6,o),
(378,-6,cs),
(317,-6,o),
(259,21,o),
(259,76,cs),
(259,161,l),
(249,161,l),
(237,17,l),
(277,-5,o),
(335,-16,o),
(378,-16,cs),
(481,-16,o),
(521,47,o),
(521,116,cs),
(521,291,o),
(269,239,o),
(269,396,cs),
(269,466,o),
(324,506,o),
(384,506,c)
);
}
);
width = 829;
}
);
metricLeft = "=f";
metricRight = "=s";
unicode = 223;
},
{
glyphname = t;
kernLeft = t;
kernRight = t;
lastChange = "2026-04-27 06:41:41 +0000";
layers = (
{
anchors = (
{
name = bottom;
pos = (259,-10);
},
{
name = center;
pos = (234,250);
},
{
name = top;
pos = (234,500);
},
{
name = topright;
pos = (399,800);
}
);
layerId = m01;
shapes = (
{
closed = 1;
nodes = (
(336,-16,o),
(397,19,o),
(438,97,c),
(430,101,l),
(393,29,o),
(331,-6,o),
(259,-6,cs),
(149,-6,o),
(89,70,o),
(89,183,cs),
(89,336,o),
(199,437,o),
(277,487,c),
(271,497,l),
(174,446,o),
(59,340,o),
(59,183,cs),
(59,66,o),
(135,-16,o),
(259,-16,cs)
);
},
{
closed = 1;
nodes = (
(20,486,l),
(417,486,l),
(417,500,l),
(20,500,l)
);
}
);
width = 468;
},
{
anchors = (
{
name = bottom;
pos = (280,-10);
},
{
name = center;
pos = (255,250);
},
{
name = top;
pos = (255,500);
},
{
name = topright;
pos = (420,800);
}
);
layerId = m002;
shapes = (
{
closed = 1;
nodes = (
(357,-16,o),
(418,19,o),
(459,97,c),
(451,101,l),
(414,29,o),
(352,-6,o),
(306,-6,cs),
(240,-6,o),
(190,70,o),
(190,219,cs),
(190,336,o),
(220,437,o),
(298,487,c),
(292,497,l),
(165,446,o),
(50,340,o),
(50,189,cs),
(50,66,o),
(126,-16,o),
(280,-16,cs)
);
},
{
closed = 1;
nodes = (
(41,486,l),
(438,486,l),
(438,500,l),
(41,500,l)
);
}
);
width = 470;
}
);
unicode = 116;
},
{
glyphname = u;
kernLeft = u;
kernRight = u;
lastChange = "2026-04-27 10:47:00 +0000";
layers = (
{
anchors = (
{
name = bottom;
pos = (306,0);
},
{
name = ogonek;
pos = (561,0);
},
{
name = top;
pos = (326,500);
},
{
name = topright;
pos = (592,500);
}
);
hints = (
{
name = _corner.serifLeft;
options = 1;
origin = (1,2);
scale = (1,-1);
type = Corner;
},
{
name = _corner.serifLeft;
options = 1;
origin = (1,0);
scale = (1,-1);
type = Corner;
}
);
layerId = m01;
shapes = (
{
closed = 1;
nodes = (
(388,-16,o),
(483,63,o),
(480,249,c),
(473,249,l),
(473,69,o),
(382,-6,o),
(269,-6,cs),
(168,-6,o),
(99,59,o),
(99,200,cs),
(99,330,o),
(158,441,o),
(245,491,c),
(245,500,l),
(30,500,l),
(30,490,l),
(219,480,l),
(233,498,l),
(142,448,o),
(69,336,o),
(69,200,cs),
(69,53,o),
(156,-16,o),
(269,-16,cs)
);
},
{
closed = 1;
nodes = (
(498,0,l),
(498,500,l),
(473,500,l),
(473,0,l)
);
}
);
width = 612;
},
{
anchors = (
{
name = bottom;
pos = (296,0);
},
{
name = ogonek;
pos = (551,0);
},
{
name = top;
pos = (316,500);
},
{
name = topright;
pos = (582,500);
}
);
background = {
anchors = (
{
name = bottom;
pos = (296,0);
},
{
name = top;
pos = (326,500);
}
);
hints = (
{
name = _corner.serifLeft;
options = 1;
origin = (1,0);
scale = (1,-1);
type = Corner;
},
{
name = _corner.serifLeft;
options = 1;
origin = (1,2);
scale = (1,-1);
type = Corner;
},
{
name = _corner.serifLeft;
origin = (1,3);
type = Corner;
}
);
shapes = (
{
closed = 1;
nodes = (
(40,500,l),
(40,490,l),
(250,479,l),
(288,498,l),
(127,448,o),
(44,336,o),
(44,200,cs),
(44,53,o),
(141,-16,o),
(289,-16,cs),
(434,-16,o),
(490,125,o),
(490,249,c),
(483,249,l),
(483,109,o),
(403,-6,o),
(309,-6,cs),
(230,-6,o),
(184,79,o),
(184,210,cs),
(184,350,o),
(253,431,o),
(320,491,c),
(320,500,l)
);
},
{
closed = 1;
nodes = (
(483,500,l),
(483,0,l),
(508,0,l),
(508,500,l)
);
}
);
};
hints = (
{
name = _corner.serifLeft;
options = 1;
origin = (1,2);
scale = (1,-1);
type = Corner;
},
{
name = _corner.serifLeft;
options = 1;
origin = (1,0);
scale = (1,-1);
type = Corner;
}
);
layerId = m002;
shapes = (
{
closed = 1;
nodes = (
(428,-16,o),
(490,125,o),
(490,249,c),
(483,249,l),
(483,109,o),
(403,-2,o),
(309,-2,cs),
(240,-2,o),
(194,79,o),
(194,202,cs),
(194,350,o),
(263,431,o),
(320,491,c),
(320,500,l),
(40,500,l),
(40,490,l),
(250,479,l),
(288,498,l),
(137,448,o),
(54,336,o),
(54,200,cs),
(54,53,o),
(151,-16,o),
(289,-16,cs)
);
},
{
closed = 1;
nodes = (
(508,0,l),
(508,500,l),
(483,500,l),
(483,0,l)
);
}
);
width = 622;
},
{
anchors = (
{
name = bottom;
pos = (306,0);
},
{
name = ogonek;
pos = (561,0);
},
{
name = top;
pos = (326,500);
},
{
name = topright;
pos = (592,500);
}
);
associatedMasterId = m002;
hints = (
{
name = _corner.serifLeft;
options = 1;
origin = (0,0);
scale = (1,-1);
type = Corner;
},
{
name = _corner.serifLeft;
options = 1;
origin = (0,2);
scale = (1,-1);
type = Corner;
}
);
layerId = "B4984A2A-B86F-469F-A28B-A13FEC2E3F5A";
name = "27 Apr 26 at 10.54";
shapes = (
{
closed = 1;
nodes = (
(473,500,l),
(473,0,l),
(498,0,l),
(498,500,l)
);
},
{
closed = 1;
nodes = (
(142,448,o),
(69,336,o),
(69,200,cs),
(69,53,o),
(156,-16,o),
(269,-16,cs),
(388,-16,o),
(483,63,o),
(480,249,c),
(473,249,l),
(473,69,o),
(382,-6,o),
(269,-6,cs),
(168,-6,o),
(99,59,o),
(99,200,cs),
(99,330,o),
(158,441,o),
(245,491,c),
(245,500,l),
(30,500,l),
(30,490,l),
(219,480,l),
(233,498,l)
);
}
);
width = 612;
}
);
unicode = 117;
},
{
glyphname = v;
kernLeft = v;
kernRight = v;
lastChange = "2026-04-27 07:13:48 +0000";
layers = (
{
hints = (
{
name = _corner.serifLeft;
options = 1;
origin = (0,3);
scale = (0.6,-1);
type = Corner;
},
{
name = _corner.serifLeft;
origin = (0,2);
scale = (1.3,1);
type = Corner;
},
{
name = _corner.serifLeft;
options = 1;
origin = (1,1);
scale = (1.3,-1);
type = Corner;
},
{
name = _corner.serifLeft;
origin = (1,0);
scale = (0.6,1);
type = Corner;
}
);
layerId = m01;
shapes = (
{
closed = 1;
nodes = (
(300,0,l),
(296,11,l),
(100,500,l),
(73,500,l),
(273,0,l)
);
},
{
closed = 1;
nodes = (
(500,500,l),
(484,500,l),
(284,0,l),
(300,0,l)
);
}
);
width = 573;
},
{
hints = (
{
name = _corner.serifLeft;
options = 1;
origin = (0,3);
scale = (0.6,-1);
type = Corner;
},
{
name = _corner.serifLeft;
origin = (0,2);
scale = (1.2,1);
type = Corner;
},
{
name = _corner.serifLeft;
options = 1;
origin = (1,1);
scale = (1.2,-1);
type = Corner;
},
{
name = _corner.serifLeft;
origin = (1,0);
scale = (0.6,1);
type = Corner;
}
);
layerId = m002;
shapes = (
{
closed = 1;
nodes = (
(330,0,l),
(356,101,l),
(197,500,l),
(73,500,l),
(273,0,l)
);
},
{
closed = 1;
nodes = (
(530,500,l),
(514,500,l),
(314,0,l),
(330,0,l)
);
}
);
width = 603;
}
);
metricRight = "=|";
unicode = 118;
},
{
glyphname = w;
kernLeft = w;
kernRight = w;
lastChange = "2026-04-27 09:18:19 +0000";
layers = (
{
anchors = (
{
name = bottom;
pos = (391,0);
},
{
name = top;
pos = (391,500);
}
);
hints = (
{
name = _corner.serifLeft;
options = 1;
origin = (0,3);
scale = (0.6,-1);
type = Corner;
},
{
name = _corner.serifLeft;
origin = (0,2);
scale = (1.3,1);
type = Corner;
},
{
name = _corner.serifLeft;
origin = (3,1);
scale = (0.6,1);
type = Corner;
},
{
name = _corner.serifLeft;
options = 1;
origin = (3,2);
scale = (1.3,-1);
type = Corner;
}
);
layerId = m01;
shapes = (
{
closed = 1;
nodes = (
(262,0,l),
(256,17,l),
(82,500,l),
(55,500,l),
(235,0,l)
);
},
{
closed = 1;
nodes = (
(262,0,l),
(402,500,l),
(386,500,l),
(246,0,l)
);
},
{
closed = 1;
nodes = (
(582,0,l),
(577,14,l),
(402,500,l),
(386,500,l),
(386,473,l),
(555,0,l)
);
},
{
closed = 1;
nodes = (
(582,0,l),
(722,500,l),
(706,500,l),
(566,0,l)
);
}
);
width = 781;
},
{
anchors = (
{
name = bottom;
pos = (434,0);
},
{
name = top;
pos = (434,500);
}
);
background = {
hints = (
{
name = _corner.serifLeft;
origin = (0,2);
scale = (1.3,1);
type = Corner;
},
{
name = _corner.serifLeft;
options = 1;
origin = (0,3);
scale = (0.6,-1);
type = Corner;
},
{
name = _corner.serifLeft;
origin = (3,1);
scale = (0.6,1);
type = Corner;
},
{
name = _corner.serifLeft;
options = 1;
origin = (3,2);
scale = (1.3,-1);
type = Corner;
}
);
shapes = (
{
closed = 1;
nodes = (
(280,0,l),
(274,17,l),
(100,500,l),
(73,500,l),
(253,0,l)
);
},
{
closed = 1;
nodes = (
(280,0,l),
(420,500,l),
(404,500,l),
(264,0,l)
);
},
{
closed = 1;
nodes = (
(600,0,l),
(595,14,l),
(420,500,l),
(404,500,l),
(404,473,l),
(573,0,l)
);
},
{
closed = 1;
nodes = (
(600,0,l),
(740,500,l),
(724,500,l),
(584,0,l)
);
}
);
};
hints = (
{
name = _corner.serifLeft;
origin = (0,2);
scale = (1.3,1);
type = Corner;
},
{
name = _corner.serifLeft;
options = 1;
origin = (0,3);
scale = (0.6,-1);
type = Corner;
},
{
name = _corner.serifLeft;
origin = (3,1);
scale = (0.6,1);
type = Corner;
},
{
name = _corner.serifLeft;
options = 1;
origin = (3,2);
scale = (1.3,-1);
type = Corner;
}
);
layerId = m002;
shapes = (
{
closed = 1;
nodes = (
(319,0,l),
(350,125,l),
(195,500,l),
(73,500,l),
(273,0,l)
);
},
{
closed = 1;
nodes = (
(325,0,l),
(465,500,l),
(449,500,l),
(309,0,l)
);
},
{
closed = 1;
nodes = (
(609,0,l),
(640,125,l),
(485,500,l),
(459,500,l),
(414,358,l),
(563,0,l)
);
},
{
closed = 1;
nodes = (
(615,0,l),
(755,500,l),
(739,500,l),
(599,0,l)
);
}
);
width = 834;
}
);
metricLeft = "=v";
metricRight = "=v";
unicode = 119;
},
{
glyphname = x;
kernLeft = x;
kernRight = x;
lastChange = "2026-04-27 07:21:24 +0000";
layers = (
{
hints = (
{
name = _corner.serifLeft;
options = 1;
origin = (0,0);
scale = (0.8,-1);
type = Corner;
},
{
name = _corner.serifLeft;
options = 1;
origin = (0,2);
scale = (0.8,-1);
type = Corner;
},
{
name = _corner.serifLeft;
origin = (0,3);
type = Corner;
},
{
name = _corner.serifLeft;
origin = (0,1);
type = Corner;
},
{
name = _corner.serifLeft;
origin = (2,1);
scale = (0.8,1);
type = Corner;
},
{
name = _corner.serifLeft;
options = 1;
origin = (1,2);
scale = (1,-1);
type = Corner;
},
{
name = _corner.serifLeft;
origin = (1,1);
scale = (0.8,1);
type = Corner;
},
{
name = _corner.serifLeft;
options = 1;
origin = (2,2);
scale = (1,-1);
type = Corner;
}
);
layerId = m01;
shapes = (
{
closed = 1;
nodes = (
(474,0,l),
(99,500,l),
(72,500,l),
(447,0,l)
);
},
{
closed = 1;
nodes = (
(272,256,l),
(449,500,l),
(432,500,l),
(255,256,l)
);
},
{
closed = 1;
nodes = (
(255,266,l),
(57,0,l),
(74,0,l),
(272,266,l)
);
}
);
width = 530;
},
{
hints = (
{
name = _corner.serifLeft;
options = 1;
origin = (0,0);
scale = (0.8,-1);
type = Corner;
},
{
name = _corner.serifLeft;
options = 1;
origin = (0,2);
scale = (0.8,-1);
type = Corner;
},
{
name = _corner.serifLeft;
origin = (0,3);
scale = (0.8,1);
type = Corner;
},
{
name = _corner.serifLeft;
origin = (0,1);
scale = (0.8,1);
type = Corner;
},
{
name = _corner.serifLeft;
origin = (2,1);
scale = (0.8,1);
type = Corner;
},
{
name = _corner.serifLeft;
options = 1;
origin = (1,2);
scale = (0.8,-1);
type = Corner;
},
{
name = _corner.serifLeft;
origin = (1,1);
scale = (0.8,1);
type = Corner;
},
{
name = _corner.serifLeft;
options = 1;
origin = (2,2);
scale = (0.8,-1);
type = Corner;
}
);
layerId = m002;
shapes = (
{
closed = 1;
nodes = (
(527,0,l),
(197,500,l),
(60,500,l),
(390,0,l)
);
},
{
closed = 1;
nodes = (
(315,266,l),
(482,500,l),
(465,500,l),
(298,266,l)
);
},
{
closed = 1;
nodes = (
(248,256,l),
(65,0,l),
(82,0,l),
(265,256,l)
);
}
);
width = 588;
}
);
metricRight = "=|";
unicode = 120;
},
{
glyphname = y;
kernLeft = y;
kernRight = y;
lastChange = "2026-04-27 07:28:00 +0000";
layers = (
{
anchors = (
{
name = bottom;
pos = (267,0);
},
{
name = top;
pos = (267,500);
}
);
hints = (
{
name = _corner.serifLeft;
options = 1;
origin = (0,2);
scale = (0.6,-1);
type = Corner;
},
{
name = _corner.serifLeft;
origin = (0,1);
scale = (1.3,1);
type = Corner;
},
{
name = _corner.serifLeft;
options = 1;
origin = (1,1);
scale = (1.3,-1);
type = Corner;
},
{
name = _corner.serifLeft;
origin = (1,0);
scale = (0.6,1);
type = Corner;
}
);
layerId = m01;
shapes = (
{
closed = 1;
nodes = (
(279,10,l),
(80,500,l),
(53,500,l),
(262,-13,l)
);
},
{
closed = 1;
nodes = (
(480,500,l),
(465,500,l),
(259,-4,l),
(150,-195,l),
(188,-216,l)
);
}
);
width = 533;
},
{
anchors = (
{
name = bottom;
pos = (284,0);
},
{
name = top;
pos = (284,500);
}
);
background = {
shapes = (
{
pos = (-1,0);
ref = v;
}
);
};
hints = (
{
name = _corner.serifLeft;
options = 1;
origin = (0,2);
scale = (0.6,-1);
type = Corner;
},
{
name = _corner.serifLeft;
origin = (0,1);
scale = (1.3,1);
type = Corner;
},
{
name = _corner.serifLeft;
options = 1;
origin = (1,1);
scale = (1.3,-1);
type = Corner;
},
{
name = _corner.serifLeft;
origin = (1,0);
scale = (0.6,1);
type = Corner;
}
);
layerId = m002;
shapes = (
{
closed = 1;
nodes = (
(374,143,l),
(196,500,l),
(70,500,l),
(310,-8,l)
);
},
{
closed = 1;
nodes = (
(527,500,l),
(512,500,l),
(306,-4,l),
(127,-145,l),
(235,-216,l)
);
}
);
width = 600;
}
);
metricLeft = "=v";
metricRight = "=v";
unicode = 121;
},
{
glyphname = z;
kernLeft = z;
kernRight = z;
lastChange = "2026-04-27 07:20:28 +0000";
layers = (
{
anchors = (
{
name = bottom;
pos = (240,0);
},
{
name = center;
pos = (240,250);
},
{
name = top;
pos = (240,500);
}
);
hints = (
{
name = _corner.serifLeft;
options = 1;
origin = (1,0);
scale = (1.3,-1);
type = Corner;
},
{
name = _corner.serifLeft;
options = 1;
origin = (2,2);
scale = (1.6,-1);
type = Corner;
}
);
layerId = m01;
shapes = (
{
closed = 1;
nodes = (
(78,12,l),
(410,488,l),
(382,488,l),
(50,12,l)
);
},
{
closed = 1;
nodes = (
(79,488,l),
(410,488,l),
(410,500,l),
(81,500,l)
);
},
{
closed = 1;
nodes = (
(50,0,l),
(393,0,l),
(396,12,l),
(50,12,l)
);
}
);
width = 480;
},
{
anchors = (
{
name = bottom;
pos = (240,0);
},
{
name = center;
pos = (240,250);
},
{
name = top;
pos = (240,500);
}
);
hints = (
{
name = _corner.serifLeft;
options = 1;
origin = (1,0);
scale = (1.3,-1);
type = Corner;
},
{
name = _corner.serifLeft;
options = 1;
origin = (2,2);
scale = (1.6,-1);
type = Corner;
}
);
layerId = m002;
shapes = (
{
closed = 1;
nodes = (
(158,12,l),
(440,488,l),
(322,488,l),
(40,12,l)
);
},
{
closed = 1;
nodes = (
(79,488,l),
(440,488,l),
(440,500,l),
(81,500,l)
);
},
{
closed = 1;
nodes = (
(40,0,l),
(423,0,l),
(426,12,l),
(40,12,l)
);
}
);
width = 500;
}
);
unicode = 122;
},
{
glyphname = f.ss01;
kernLeft = f;
kernRight = f;
lastChange = "2026-04-27 10:56:03 +0000";
layers = (
{
layerId = m01;
shapes = (
{
closed = 1;
nodes = (
(366,710,o),
(391,664,o),
(391,607,cs),
(391,562,l),
(401,562,l),
(413,666,l),
(384,691,o),
(358,720,o),
(281,720,cs),
(190,720,o),
(128,681,o),
(128,564,cs),
(128,-190,l),
(143,-190,l),
(153,0,l),
(153,564,ls),
(153,675,o),
(202,710,o),
(279,710,cs)
);
},
{
closed = 1;
nodes = (
(20,484,l),
(317,484,l),
(317,500,l),
(20,500,l)
);
}
);
width = 359;
},
{
associatedMasterId = m01;
hints = (
{
name = _corner.serifLeft;
options = 1;
origin = (2,2);
scale = (1,-1);
type = Corner;
},
{
name = _corner.serifLeft;
origin = (2,3);
type = Corner;
}
);
layerId = "A2836D5C-24F3-4811-944D-2007A5B1E3A4";
name = "21 Apr 26 at 17.38";
shapes = (
{
closed = 1;
nodes = (
(377,506,o),
(421,460,o),
(421,403,cs),
(421,358,l),
(431,358,l),
(443,462,l),
(414,487,o),
(369,516,o),
(296,516,cs),
(211,516,o),
(145,477,o),
(145,360,c),
(153,360,l),
(153,471,o),
(223,506,o),
(294,506,cs)
);
},
{
closed = 1;
nodes = (
(20,130,l),
(407,130,l),
(407,146,l),
(20,146,l)
);
},
{
closed = 1;
nodes = (
(153,-120,l),
(153,500,l),
(128,500,l),
(128,-120,l)
);
}
);
width = 459;
},
{
layerId = m002;
shapes = (
{
closed = 1;
nodes = (
(356,710,o),
(391,664,o),
(391,607,cs),
(391,562,l),
(401,562,l),
(413,666,l),
(384,691,o),
(358,720,o),
(281,720,cs),
(190,720,o),
(83,681,o),
(83,564,cs),
(83,-190,l),
(87,-190,l),
(203,0,l),
(203,604,ls),
(203,665,o),
(222,710,o),
(288,710,cs)
);
},
{
closed = 1;
nodes = (
(20,484,l),
(317,484,l),
(317,500,l),
(20,500,l)
);
}
);
width = 359;
},
{
associatedMasterId = m002;
hints = (
{
name = _corner.serifLeft;
options = 1;
origin = (2,2);
scale = (1,-1);
type = Corner;
},
{
name = _corner.serifLeft;
origin = (2,3);
type = Corner;
}
);
layerId = "6AE2D93E-E659-4404-8807-87F86E20E688";
name = "21 Apr 26 at 17.38";
shapes = (
{
closed = 1;
nodes = (
(377,506,o),
(421,460,o),
(421,403,cs),
(421,358,l),
(431,358,l),
(443,462,l),
(414,487,o),
(369,516,o),
(296,516,cs),
(211,516,o),
(145,477,o),
(145,360,c),
(153,360,l),
(153,471,o),
(223,506,o),
(294,506,cs)
);
},
{
closed = 1;
nodes = (
(20,130,l),
(407,130,l),
(407,146,l),
(20,146,l)
);
},
{
closed = 1;
nodes = (
(153,-120,l),
(153,500,l),
(128,500,l),
(128,-120,l)
);
}
);
width = 459;
}
);
metricLeft = "=f";
metricRight = "=f";
},
{
glyphname = r.ss01;
kernLeft = n;
kernRight = k;
lastChange = "2026-04-27 09:13:47 +0000";
layers = (
{
anchors = (
{
name = bottom;
pos = (128,0);
},
{
name = top;
pos = (281,500);
}
);
hints = (
{
name = _corner.serifLeft;
origin = (0,3);
type = Corner;
},
{
name = _corner.serifLeft;
options = 1;
origin = (0,0);
scale = (1,-1);
type = Corner;
},
{
name = _corner.serifLeft;
options = 1;
origin = (0,2);
scale = (1,-1);
type = Corner;
}
);
layerId = m01;
shapes = (
{
closed = 1;
nodes = (
(139,0,l),
(139,500,l),
(114,500,l),
(114,0,l)
);
},
{
closed = 1;
nodes = (
(164,199,o),
(202,195,o),
(241,195,cs),
(372,195,o),
(503,242,o),
(503,369,cs),
(503,447,o),
(446,516,o),
(338,516,cs),
(224,516,o),
(129,437,o),
(132,251,c),
(139,251,l),
(139,431,o),
(230,506,o),
(338,506,cs),
(434,506,o),
(473,441,o),
(473,369,cs),
(473,247,o),
(359,204,o),
(237,204,cs),
(200,204,o),
(162,208,o),
(126,215,c),
(128,206,l)
);
},
{
closed = 1;
nodes = (
(528,-60,l),
(342,208,l),
(302,203,l),
(514,-60,l)
);
}
);
width = 562;
},
{
associatedMasterId = m01;
hints = (
{
name = _corner.serifLeft;
origin = (0,3);
type = Corner;
},
{
name = _corner.serifLeft;
options = 1;
origin = (0,0);
scale = (1,-1);
type = Corner;
},
{
name = _corner.serifLeft;
options = 1;
origin = (0,2);
scale = (1,-1);
type = Corner;
}
);
layerId = "D1B45180-BADD-4D0D-B367-EE10A8B900A4";
name = "20 Apr 26 at 16.32";
shapes = (
{
closed = 1;
nodes = (
(139,0,l),
(139,500,l),
(114,500,l),
(114,0,l)
);
},
{
closed = 1;
nodes = (
(284,174,o),
(503,204,o),
(503,369,cs),
(503,447,o),
(446,516,o),
(338,516,cs),
(224,516,o),
(129,437,o),
(132,251,c),
(139,251,l),
(139,431,o),
(230,506,o),
(338,506,cs),
(434,506,o),
(473,441,o),
(473,369,cs),
(473,210,o),
(279,185,o),
(126,215,c),
(128,206,l)
);
},
{
closed = 1;
nodes = (
(528,-60,l),
(342,208,l),
(302,203,l),
(514,-60,l)
);
}
);
width = 562;
},
{
anchors = (
{
name = bottom;
pos = (128,0);
},
{
name = top;
pos = (281,500);
}
);
hints = (
{
name = _corner.serifLeft;
origin = (0,3);
type = Corner;
},
{
name = _corner.serifLeft;
options = 1;
origin = (0,0);
scale = (1,-1);
type = Corner;
},
{
name = _corner.serifLeft;
options = 1;
origin = (0,2);
scale = (1,-1);
type = Corner;
}
);
layerId = m002;
shapes = (
{
closed = 1;
nodes = (
(139,0,l),
(139,500,l),
(114,500,l),
(114,0,l)
);
},
{
closed = 1;
nodes = (
(164,199,o),
(202,195,o),
(241,195,cs),
(392,195,o),
(523,242,o),
(523,369,cs),
(523,447,o),
(466,516,o),
(338,516,cs),
(224,516,o),
(129,437,o),
(132,251,c),
(139,251,l),
(139,431,o),
(240,506,o),
(317,506,cs),
(374,506,o),
(383,441,o),
(383,369,cs),
(383,247,o),
(349,204,o),
(237,204,cs),
(200,204,o),
(162,208,o),
(126,215,c),
(128,206,l)
);
},
{
closed = 1;
nodes = (
(528,-60,l),
(342,208,l),
(302,203,l),
(514,-60,l)
);
}
);
width = 572;
},
{
associatedMasterId = m002;
hints = (
{
name = _corner.serifLeft;
origin = (0,3);
type = Corner;
},
{
name = _corner.serifLeft;
options = 1;
origin = (0,0);
scale = (1,-1);
type = Corner;
},
{
name = _corner.serifLeft;
options = 1;
origin = (0,2);
scale = (1,-1);
type = Corner;
}
);
layerId = "EED47984-98F9-476C-98CB-2AF199381881";
name = "20 Apr 26 at 16.32";
shapes = (
{
closed = 1;
nodes = (
(139,0,l),
(139,500,l),
(114,500,l),
(114,0,l)
);
},
{
closed = 1;
nodes = (
(284,174,o),
(503,204,o),
(503,369,cs),
(503,447,o),
(446,516,o),
(338,516,cs),
(224,516,o),
(129,437,o),
(132,251,c),
(139,251,l),
(139,431,o),
(230,506,o),
(338,506,cs),
(434,506,o),
(473,441,o),
(473,369,cs),
(473,210,o),
(279,185,o),
(126,215,c),
(128,206,l)
);
},
{
closed = 1;
nodes = (
(528,-60,l),
(342,208,l),
(302,203,l),
(514,-60,l)
);
}
);
width = 562;
}
);
metricLeft = "=n";
metricRight = "=k";
},
{
glyphname = t.ss01;
kernLeft = t.ss01;
kernRight = t.ss01;
lastChange = "2026-04-27 10:48:38 +0000";
layers = (
{
anchors = (
{
name = bottom;
pos = (244,-7);
},
{
name = center;
pos = (200,250);
},
{
name = top;
pos = (152,657);
},
{
name = topright;
pos = (345,750);
}
);
layerId = m01;
shapes = (
{
closed = 1;
nodes = (
(303,-16,o),
(336,12,o),
(351,97,c),
(343,101,l),
(328,12,o),
(288,-6,o),
(244,-6,cs),
(188,-6,o),
(163,27,o),
(163,103,cs),
(164,657,l),
(139,657,l),
(139,97,ls),
(139,15,o),
(176,-16,o),
(240,-16,cs)
);
},
{
closed = 1;
nodes = (
(30,486,l),
(337,486,l),
(337,500,l),
(30,500,l)
);
}
);
width = 400;
},
{
anchors = (
{
name = bottom;
pos = (244,-7);
},
{
name = center;
pos = (200,250);
},
{
name = top;
pos = (152,657);
},
{
name = topright;
pos = (345,750);
}
);
layerId = m002;
shapes = (
{
closed = 1;
nodes = (
(312,-16,o),
(337,18,o),
(351,97,c),
(343,101,l),
(331,25,o),
(300,-4,o),
(261,-4,cs),
(222,-4,o),
(213,27,o),
(213,63,cs),
(214,657,l),
(93,657,l),
(93,97,ls),
(93,18,o),
(147,-16,o),
(229,-16,cs)
);
},
{
closed = 1;
nodes = (
(30,486,l),
(337,486,l),
(337,500,l),
(30,500,l)
);
}
);
width = 400;
}
);
},
{
glyphname = y.ss01;
kernLeft = u;
kernRight = y.ss01;
lastChange = "2026-04-27 10:47:15 +0000";
layers = (
{
anchors = (
{
name = bottom;
pos = (282,0);
},
{
name = top;
pos = (312,500);
}
);
hints = (
{
name = _corner.serifLeft;
options = 1;
origin = (1,2);
scale = (1,-1);
type = Corner;
}
);
layerId = m01;
shapes = (
{
closed = 1;
nodes = (
(388,-16,o),
(483,63,o),
(480,249,c),
(473,249,l),
(473,69,o),
(382,-6,o),
(269,-6,cs),
(168,-6,o),
(99,59,o),
(99,200,cs),
(99,330,o),
(158,441,o),
(245,491,c),
(245,500,l),
(30,500,l),
(30,490,l),
(219,480,l),
(233,498,l),
(142,448,o),
(69,336,o),
(69,200,cs),
(69,53,o),
(156,-16,o),
(269,-16,cs)
);
},
{
closed = 1;
nodes = (
(498,-200,l),
(498,500,l),
(473,500,l),
(473,-200,l)
);
}
);
width = 564;
},
{
anchors = (
{
name = bottom;
pos = (292,0);
},
{
name = top;
pos = (322,500);
}
);
hints = (
{
name = _corner.serifLeft;
options = 1;
origin = (1,2);
scale = (1,-1);
type = Corner;
}
);
layerId = m002;
shapes = (
{
closed = 1;
nodes = (
(428,-16,o),
(490,125,o),
(490,249,c),
(483,249,l),
(483,109,o),
(403,-2,o),
(309,-2,cs),
(240,-2,o),
(194,79,o),
(194,202,cs),
(194,350,o),
(263,431,o),
(320,491,c),
(320,500,l),
(40,500,l),
(40,490,l),
(250,479,l),
(288,498,l),
(137,448,o),
(54,336,o),
(54,200,cs),
(54,53,o),
(151,-16,o),
(289,-16,cs)
);
},
{
closed = 1;
nodes = (
(508,-200,l),
(508,500,l),
(483,500,l),
(483,-200,l)
);
}
);
width = 574;
}
);
metricLeft = "=u";
},
{
glyphname = f.ss02;
kernLeft = f.ss02;
kernRight = f.ss02;
lastChange = "2026-04-27 10:56:57 +0000";
layers = (
{
layerId = m01;
shapes = (
{
closed = 1;
nodes = (
(386,506,o),
(421,460,o),
(421,403,cs),
(421,358,l),
(431,358,l),
(443,462,l),
(414,487,o),
(378,516,o),
(291,516,cs),
(190,516,o),
(128,477,o),
(128,360,cs),
(128,-190,l),
(143,-190,l),
(153,0,l),
(153,360,ls),
(153,471,o),
(202,506,o),
(289,506,cs)
);
},
{
closed = 1;
nodes = (
(20,130,l),
(407,130,l),
(407,146,l),
(20,146,l)
);
}
);
width = 482;
},
{
layerId = m002;
shapes = (
{
closed = 1;
nodes = (
(376,506,o),
(421,460,o),
(421,403,cs),
(421,358,l),
(431,358,l),
(443,462,l),
(414,487,o),
(379,516,o),
(292,516,cs),
(191,516,o),
(78,477,o),
(78,330,cs),
(78,-190,l),
(93,-190,l),
(203,0,l),
(203,390,ls),
(203,471,o),
(230,506,o),
(297,506,cs)
);
},
{
closed = 1;
nodes = (
(20,130,l),
(407,130,l),
(407,146,l),
(20,146,l)
);
}
);
width = 482;
}
);
},
{
glyphname = t.ss02;
kernLeft = t.ss02;
kernRight = t.ss02;
lastChange = "2026-04-27 10:55:02 +0000";
layers = (
{
anchors = (
{
name = bottom;
pos = (298,-7);
},
{
name = center;
pos = (235,250);
},
{
name = top;
pos = (235,500);
},
{
name = topright;
pos = (450,760);
}
);
layerId = m01;
shapes = (
{
closed = 1;
nodes = (
(360,-16,o),
(403,12,o),
(438,97,c),
(430,101,l),
(395,12,o),
(348,-6,o),
(298,-6,cs),
(231,-6,o),
(193,27,o),
(193,123,cs),
(194,487,l),
(169,497,l),
(169,117,ls),
(169,15,o),
(216,-16,o),
(290,-16,cs)
);
},
{
closed = 1;
nodes = (
(447,486,l),
(447,500,l),
(20,500,l),
(20,486,l)
);
}
);
width = 470;
},
{
anchors = (
{
name = bottom;
pos = (298,-7);
},
{
name = center;
pos = (235,250);
},
{
name = top;
pos = (235,500);
},
{
name = topright;
pos = (450,760);
}
);
background = {
shapes = (
{
closed = 1;
nodes = (
(360,-16,o),
(403,12,o),
(438,97,c),
(430,101,l),
(395,12,o),
(348,-6,o),
(298,-6,cs),
(231,-6,o),
(243,27,o),
(243,123,cs),
(244,487,l),
(121,497,l),
(121,117,ls),
(121,15,o),
(216,-16,o),
(290,-16,cs)
);
},
{
closed = 1;
nodes = (
(20,486,l),
(447,486,l),
(447,500,l),
(20,500,l)
);
}
);
};
layerId = m002;
shapes = (
{
closed = 1;
nodes = (
(367,-16,o),
(404,18,o),
(438,97,c),
(430,101,l),
(398,25,o),
(357,-4,o),
(300,-4,cs),
(252,-4,o),
(243,18,o),
(243,54,cs),
(244,494,l),
(123,494,l),
(123,137,ls),
(123,8,o),
(205,-16,o),
(286,-16,cs)
);
},
{
closed = 1;
nodes = (
(447,486,l),
(447,500,l),
(20,500,l),
(20,486,l)
);
}
);
width = 470;
}
);
},
{
glyphname = f_f;
kernLeft = f;
kernRight = f;
lastChange = "2026-04-24 09:42:18 +0000";
layers = (
{
hints = (
{
name = _corner.serifLeft;
origin = (0,12);
type = Corner;
},
{
name = _corner.serifLeft;
options = 1;
origin = (0,13);
scale = (1,-1);
type = Corner;
}
);
layerId = m01;
shapes = (
{
closed = 1;
nodes = (
(384,670,o),
(408,626,o),
(408,590,cs),
(408,572,l),
(419,572,l),
(431,646,l),
(412,656,o),
(361,680,o),
(286,680,cs),
(190,680,o),
(128,641,o),
(128,524,cs),
(128,0,l),
(153,0,l),
(153,524,ls),
(153,635,o),
(202,670,o),
(284,670,cs)
);
},
{
closed = 1;
nodes = (
(20,486,l),
(337,486,l),
(337,500,l),
(20,500,l)
);
},
{
pos = (279,0);
ref = f;
}
);
width = 638;
},
{
hints = (
{
name = _corner.serifLeft;
origin = (0,12);
type = Corner;
},
{
name = _corner.serifLeft;
options = 1;
origin = (0,13);
scale = (1,-1);
type = Corner;
}
);
layerId = m002;
shapes = (
{
closed = 1;
nodes = (
(384,670,o),
(408,626,o),
(408,590,cs),
(408,572,l),
(419,572,l),
(431,646,l),
(412,656,o),
(361,680,o),
(286,680,cs),
(190,680,o),
(128,641,o),
(128,524,cs),
(128,0,l),
(153,0,l),
(153,524,ls),
(153,635,o),
(202,670,o),
(284,670,cs)
);
},
{
closed = 1;
nodes = (
(20,486,l),
(337,486,l),
(337,500,l),
(20,500,l)
);
},
{
pos = (279,0);
ref = f;
}
);
width = 638;
}
);
metricLeft = f;
metricRight = f;
},
{
glyphname = f_f_i;
kernLeft = f;
kernRight = i;
lastChange = "2026-04-24 09:42:18 +0000";
layers = (
{
background = {
shapes = (
{
pos = (279,0);
ref = f;
}
);
};
hints = (
{
name = _corner.serifLeft;
origin = (0,12);
type = Corner;
},
{
name = _corner.serifLeft;
options = 1;
origin = (0,13);
scale = (1,-1);
type = Corner;
}
);
layerId = m01;
shapes = (
{
closed = 1;
nodes = (
(384,670,o),
(408,626,o),
(408,590,cs),
(408,572,l),
(419,572,l),
(431,646,l),
(412,656,o),
(361,680,o),
(286,680,cs),
(190,680,o),
(128,641,o),
(128,524,cs),
(128,0,l),
(153,0,l),
(153,524,ls),
(153,635,o),
(202,670,o),
(284,670,cs)
);
},
{
closed = 1;
nodes = (
(20,486,l),
(337,486,l),
(337,500,l),
(20,500,l)
);
},
{
pos = (279,0);
ref = fi;
}
);
width = 841;
},
{
background = {
shapes = (
{
pos = (279,0);
ref = f;
}
);
};
hints = (
{
name = _corner.serifLeft;
origin = (0,12);
type = Corner;
},
{
name = _corner.serifLeft;
options = 1;
origin = (0,13);
scale = (1,-1);
type = Corner;
}
);
layerId = m002;
shapes = (
{
closed = 1;
nodes = (
(384,670,o),
(408,626,o),
(408,590,cs),
(408,572,l),
(419,572,l),
(431,646,l),
(412,656,o),
(361,680,o),
(286,680,cs),
(190,680,o),
(128,641,o),
(128,524,cs),
(128,0,l),
(153,0,l),
(153,524,ls),
(153,635,o),
(202,670,o),
(284,670,cs)
);
},
{
closed = 1;
nodes = (
(20,486,l),
(337,486,l),
(337,500,l),
(20,500,l)
);
},
{
pos = (279,0);
ref = fi;
}
);
width = 841;
}
);
metricLeft = f;
metricRight = i;
},
{
glyphname = f_f_l;
kernLeft = f;
kernRight = l;
lastChange = "2026-04-24 09:42:18 +0000";
layers = (
{
background = {
shapes = (
{
pos = (279,0);
ref = f;
}
);
};
hints = (
{
name = _corner.serifLeft;
origin = (0,12);
type = Corner;
},
{
name = _corner.serifLeft;
options = 1;
origin = (0,13);
scale = (1,-1);
type = Corner;
}
);
layerId = m01;
shapes = (
{
closed = 1;
nodes = (
(384,670,o),
(408,626,o),
(408,590,cs),
(408,572,l),
(419,572,l),
(431,646,l),
(412,656,o),
(361,680,o),
(286,680,cs),
(190,680,o),
(128,641,o),
(128,524,cs),
(128,0,l),
(153,0,l),
(153,524,ls),
(153,635,o),
(202,670,o),
(284,670,cs)
);
},
{
closed = 1;
nodes = (
(20,486,l),
(337,486,l),
(337,500,l),
(20,500,l)
);
},
{
pos = (279,0);
ref = fl;
}
);
width = 841;
},
{
background = {
shapes = (
{
pos = (279,0);
ref = f;
}
);
};
hints = (
{
name = _corner.serifLeft;
origin = (0,12);
type = Corner;
},
{
name = _corner.serifLeft;
options = 1;
origin = (0,13);
scale = (1,-1);
type = Corner;
}
);
layerId = m002;
shapes = (
{
closed = 1;
nodes = (
(384,670,o),
(408,626,o),
(408,590,cs),
(408,572,l),
(419,572,l),
(431,646,l),
(412,656,o),
(361,680,o),
(286,680,cs),
(190,680,o),
(128,641,o),
(128,524,cs),
(128,0,l),
(153,0,l),
(153,524,ls),
(153,635,o),
(202,670,o),
(284,670,cs)
);
},
{
closed = 1;
nodes = (
(20,486,l),
(337,486,l),
(337,500,l),
(20,500,l)
);
},
{
pos = (279,0);
ref = fl;
}
);
width = 841;
}
);
metricLeft = f;
metricRight = l;
},
{
glyphname = fi;
kernLeft = f;
kernRight = i;
lastChange = "2026-04-24 09:42:18 +0000";
layers = (
{
background = {
shapes = (
{
pos = (359,0);
ref = idotless;
},
{
pos = (355,0);
ref = dotaccentcomb;
}
);
};
hints = (
{
name = _corner.serifLeft;
origin = (0,12);
type = Corner;
},
{
name = _corner.serifLeft;
options = 1;
origin = (0,13);
scale = (1,-1);
type = Corner;
},
{
name = _corner.serifLeft;
options = 1;
origin = (2,0);
scale = (1,-1);
type = Corner;
},
{
name = _corner.serifLeft;
origin = (2,8);
type = Corner;
}
);
layerId = m01;
shapes = (
{
closed = 1;
nodes = (
(376,710,o),
(411,664,o),
(411,607,cs),
(411,562,l),
(421,562,l),
(436,662,l),
(407,691,o),
(368,720,o),
(286,720,cs),
(190,720,o),
(128,681,o),
(128,564,cs),
(128,0,l),
(153,0,l),
(153,564,ls),
(153,675,o),
(202,710,o),
(284,710,cs)
);
},
{
closed = 1;
nodes = (
(20,486,l),
(447,486,l),
(447,500,l),
(20,500,l)
);
},
{
closed = 1;
nodes = (
(448,0,l),
(448,500,l),
(433,500,l),
(369,500,l),
(369,486,l),
(406,486,o),
(423,486,o),
(423,455,c),
(423,0,l)
);
}
);
width = 562;
},
{
background = {
shapes = (
{
pos = (359,0);
ref = idotless;
},
{
pos = (355,0);
ref = dotaccentcomb;
}
);
};
hints = (
{
name = _corner.serifLeft;
origin = (0,12);
type = Corner;
},
{
name = _corner.serifLeft;
options = 1;
origin = (0,13);
scale = (1,-1);
type = Corner;
},
{
name = _corner.serifLeft;
options = 1;
origin = (2,0);
scale = (1,-1);
type = Corner;
},
{
name = _corner.serifLeft;
origin = (2,8);
type = Corner;
}
);
layerId = m002;
shapes = (
{
closed = 1;
nodes = (
(376,710,o),
(411,664,o),
(411,607,cs),
(411,562,l),
(421,562,l),
(436,662,l),
(407,691,o),
(368,720,o),
(286,720,cs),
(190,720,o),
(128,681,o),
(128,564,cs),
(128,0,l),
(153,0,l),
(153,564,ls),
(153,675,o),
(202,710,o),
(284,710,cs)
);
},
{
closed = 1;
nodes = (
(20,486,l),
(447,486,l),
(447,500,l),
(20,500,l)
);
},
{
closed = 1;
nodes = (
(448,0,l),
(448,500,l),
(433,500,l),
(369,500,l),
(369,486,l),
(406,486,o),
(423,486,o),
(423,455,c),
(423,0,l)
);
}
);
width = 562;
}
);
metricLeft = f;
metricRight = i;
unicode = 64257;
},
